<svg xmlns="http://www.w3.org/2000/svg" viewBox="0 0 190.67 182.5"><defs><style>.cls-1,.cls-2{fill:#234b41;}.cls-2{fill-rule:evenodd;}</style></defs><g id="Calque_1" data-name="Calque 1"><path class="cls-1" d="M37.14,90.83A5,5,0,0,0,36,90a5.84,5.84,0,0,0-1.35-.47,2,2,0,0,0-.71,0,.85.85,0,0,0-.41.14.82.82,0,0,0-.2.25.45.45,0,0,0-.07.2v0a2.21,2.21,0,0,1,1.38,1.3,5.28,5.28,0,0,1,0,3.31,30.79,30.79,0,0,1-2.21,6l0,.11-.08-.1a18.36,18.36,0,0,0-2.52-2.63c-1.06-.93-1.9-1.62-2.57-2.12s-1.73-1.26-3.15-2.27c-.15-.09-.36-.24-.66-.46l0,0v0a17.58,17.58,0,0,0,0-4.64,12.2,12.2,0,0,0-1.06-3.76,9.09,9.09,0,0,0-1.8-2.53A4.42,4.42,0,0,0,18.39,81a2.67,2.67,0,0,0-1.95.26,3.65,3.65,0,0,0-1.35,1.29,5.46,5.46,0,0,0-.67,1.65,6.54,6.54,0,0,0,0,3A8.58,8.58,0,0,0,15.85,90a20.69,20.69,0,0,0,2.36,2.73,42.24,42.24,0,0,0,3.18,2.8l0,0v.05A13.85,13.85,0,0,1,20.06,99a7,7,0,0,1-1.76,2.08,5.79,5.79,0,0,1-1.78.91,3.29,3.29,0,0,1-1.64.07c-.18,0-.27,0-.3.12a2.18,2.18,0,0,0,.39,1.46,2.08,2.08,0,0,0,1.33,1.06c1,.23,2.15-.37,3.32-1.77a17.39,17.39,0,0,0,3-6.29l0-.1.09.06.63.46,1,.74.12.09,1.17.88,1,.77c.52.38.89.66,1.09.83s.35.28.6.49l.3.25c.41.33.72.6.94.81l.75.72c.29.28.53.53.75.77l0,0,0,0a18.62,18.62,0,0,0-1.33,3.6,3.48,3.48,0,0,0,.19,2.51,2.24,2.24,0,0,0,1.5,1.15,2.1,2.1,0,0,0,.43.05,2.17,2.17,0,0,0,1.26-.44,2.94,2.94,0,0,0,1.1-1.84,8.52,8.52,0,0,0-.57-5.54v0l0,0c.72-1.15,1.3-2.1,1.72-2.84a29.35,29.35,0,0,0,1.43-2.87A18,18,0,0,0,38,93.9a3.44,3.44,0,0,0,0-1.75A3.11,3.11,0,0,0,37.14,90.83ZM22,92.25l-.11-.08c-.86-.62-1.58-1.15-2.15-1.59s-1.15-1-1.76-1.52a10.49,10.49,0,0,1-1.41-1.57,5.38,5.38,0,0,1-.74-1.55,3.28,3.28,0,0,1-.07-1.61,1,1,0,0,1,.54-.72,1.28,1.28,0,0,1,.83-.1,4.18,4.18,0,0,1,1.7.87,8.51,8.51,0,0,1,1.6,1.75,8.77,8.77,0,0,1,1.18,2.65,11.65,11.65,0,0,1,.4,3.33Zm10.94,16.06c-.14.64-.45,1-.92,1a1.1,1.1,0,0,1-.25,0,.77.77,0,0,1-.57-.51,1.79,1.79,0,0,1,0-1,9.83,9.83,0,0,1,1.13-2.5l.07-.12.06.12A4.5,4.5,0,0,1,32.94,108.31Z" transform="translate(-14.27 -20.9)"/><path class="cls-1" d="M38.32,79.48A18.2,18.2,0,0,0,36.7,76.6a.07.07,0,0,0-.09,0l-.9.28a0,0,0,0,0,0,0l0,0a13.68,13.68,0,0,1,1.43,2.79,7.6,7.6,0,0,1,.52,2.42,8.73,8.73,0,0,1-.09,1.72,5.17,5.17,0,0,1-.35,1.2,1.34,1.34,0,0,1-1,.86,2.78,2.78,0,0,1-1.54-.27,5.56,5.56,0,0,1-1-.57l0,0,0-.06A9.89,9.89,0,0,0,34.3,82a8.1,8.1,0,0,0-.38-3.27,3.36,3.36,0,0,0-1.75-2.16,2,2,0,0,0-.84-.19,1.57,1.57,0,0,0-.83.24,3.69,3.69,0,0,0-1.3,1.66,5.88,5.88,0,0,0-.31,3.61,9,9,0,0,0,1.63,3.65,7.18,7.18,0,0,0,2.75,2.32,5.43,5.43,0,0,0,2.17.51,4.06,4.06,0,0,0,.92-.11,3.2,3.2,0,0,0,2.16-2A10.68,10.68,0,0,0,39,85.14a7.18,7.18,0,0,0,.24-1.45,7.1,7.1,0,0,0-.11-1.9A11.38,11.38,0,0,0,38.32,79.48Zm-5.43,4.73,0,.14-.1-.1a10.38,10.38,0,0,1-2.16-3.1,3.39,3.39,0,0,1-.36-2.67.48.48,0,0,1,.24-.26l.18,0c.41,0,.84.35,1.33,1.06A6.49,6.49,0,0,1,32.89,84.21Z" transform="translate(-14.27 -20.9)"/><path class="cls-1" d="M47.13,60.32c-.72-1.47-1.43-2.9-2.14-4.25s-1.36-2.72-1.89-3.94a12.57,12.57,0,0,1-1-3.37,3,3,0,0,1,.53-2.39.09.09,0,0,0,0,0,.27.27,0,0,0-.15-.08.6.6,0,0,0-.22,0,.9.9,0,0,0-.66.38,5.42,5.42,0,0,0-1.06,4.12,21.45,21.45,0,0,0,2.17,6.88c.79,1.71,1.43,3.25,1.92,4.58a25.33,25.33,0,0,1,1,3.26,8.85,8.85,0,0,1,.23,2.22,3.9,3.9,0,0,1-.27,1.48,4.17,4.17,0,0,1-.64,1,.73.73,0,0,1-.42.23,1.05,1.05,0,0,0-.23,0s0,.13,0,.27a1.51,1.51,0,0,0,.38.46,2.77,2.77,0,0,0,2,.54,2.68,2.68,0,0,0,2-.93A3.92,3.92,0,0,0,49.63,68a11,11,0,0,0-.75-3.62A43.5,43.5,0,0,0,47.13,60.32Z" transform="translate(-14.27 -20.9)"/><path class="cls-1" d="M91.11,26.39a2.13,2.13,0,0,0,1-.92,2.28,2.28,0,0,0,.35-1.33,1.06,1.06,0,0,0-.5-.9,1,1,0,0,0-.49-.13,1.29,1.29,0,0,0-.55.13,2.21,2.21,0,0,0-1,.91,2.29,2.29,0,0,0-.34,1.33,1,1,0,0,0,.5.91A1.1,1.1,0,0,0,91.11,26.39Z" transform="translate(-14.27 -20.9)"/><path class="cls-1" d="M113.63,30.44a0,0,0,0,0,0,0l0,0A13.25,13.25,0,0,1,111.77,33a7.92,7.92,0,0,1-1.92,1.56,9.42,9.42,0,0,1-1.58.7,5.48,5.48,0,0,1-1.23.23h-.1a1.33,1.33,0,0,1-1.14-.55,2.72,2.72,0,0,1-.45-1.5,4.62,4.62,0,0,1,.07-1.1v-.06h.06a10.52,10.52,0,0,0,2.89-.76,8.16,8.16,0,0,0,2.74-1.82,3.32,3.32,0,0,0,1.13-2.54,1.68,1.68,0,0,0-.79-1.47,3.74,3.74,0,0,0-2.07-.4A5.85,5.85,0,0,0,106,26.65a8.92,8.92,0,0,0-2.52,3.1,8.15,8.15,0,0,0-.72,2.19v0c-.38.81-.75,1.54-1.11,2.18A12.86,12.86,0,0,1,100.47,36c-.31.34-.53.52-.7.55h-.11c-.2,0-.45-.1-.53-.58-.15-1,.41-3.28,1.7-7.09a1.93,1.93,0,0,0,.1-.89,1.63,1.63,0,0,0-.31-.72,2.46,2.46,0,0,0-.76-.62c-.36-.2-.64-.35-.86-.45s-.59-.25-1.06-.43l-.36-.17v-.06a.74.74,0,0,0,0-.25,1.09,1.09,0,0,0-.42-.75,1,1,0,0,0-.75-.18,1.13,1.13,0,0,0-.78.49,1.42,1.42,0,0,0-.19,1.06,1.12,1.12,0,0,0,.63.72l0,0v.06a50.49,50.49,0,0,1-1.93,5.7v0h0s0,0,0,0a24.91,24.91,0,0,1-1.66,4c-.57,1-1,1.6-1.37,1.68s-.54-.08-.65-.48a7.66,7.66,0,0,1,0-2.43c.12-1.1.53-3.5,1.22-7.13a.13.13,0,0,0,0-.1.11.11,0,0,0-.08,0l-2.4.62a.23.23,0,0,0-.2.2c-.4,2.11-1.06,5.07-1.07,5.09A24.28,24.28,0,0,1,86.73,38c-.43,1.08-.79,1.67-1.1,1.79s-.55,0-.7-.41a7.11,7.11,0,0,1-.29-2.31c0-1,.12-3.28.37-6.68a.14.14,0,0,0-.05-.09.08.08,0,0,0-.08,0l-2.32.88a.24.24,0,0,0-.18.22c0,.3,0,.43,0,.47l0,.18-.11-.13a2.08,2.08,0,0,0-2.57-.5,5,5,0,0,0-2.22,1.71,7.37,7.37,0,0,0-1.33,2.69,12.34,12.34,0,0,0-.37,2.6v0l0,0,0,0A22.75,22.75,0,0,1,75,43.4a4.7,4.7,0,0,1-2,2.71l-.19.12L72.9,46a9.8,9.8,0,0,0,.57-4.08,8.75,8.75,0,0,0-1-3.7,3.8,3.8,0,0,0-1.88-1.75,2.6,2.6,0,0,0-2.32.22,4,4,0,0,0-1.65,2.09l-.13.32,0-1a.09.09,0,0,0-.06-.08.06.06,0,0,0-.08,0l-2.16,1.22a.24.24,0,0,0-.14.24l.54,6.93a12.76,12.76,0,0,1-.12,1.61,8.21,8.21,0,0,1-.7,2.38,9.32,9.32,0,0,1-.91,1.47,4.9,4.9,0,0,1-.89.88,1.35,1.35,0,0,1-1.33.25,2.75,2.75,0,0,1-1.22-1,5.17,5.17,0,0,1-.56-1l0,0,.05,0a10.25,10.25,0,0,0,2-2.25A8.35,8.35,0,0,0,62,45.72a3.33,3.33,0,0,0-.5-2.73A1.7,1.7,0,0,0,60,42.23a3.63,3.63,0,0,0-1.94.84,5.84,5.84,0,0,0-2,3,9.1,9.1,0,0,0-.32,4c0,.12,0,.24.07.35l0,.16,0,.08.75,5.2c.25,1.78.17,2.89-.27,3.4a.59.59,0,0,1-.77.12,3,3,0,0,1-1-.82c-.33-.4-.68-.83-1-1.3s-.72-.93-1.16-1.46a9.72,9.72,0,0,0-1.12-1.2A2.44,2.44,0,0,0,48.7,54l-.21.09.12-.2a9.84,9.84,0,0,0,1.53-5.18,5.44,5.44,0,0,0-2-4.19A5.82,5.82,0,0,0,44.3,43a7.31,7.31,0,0,0-1.86.26,12.22,12.22,0,0,0-6.1,4.12,19.46,19.46,0,0,0-3,4.61A15.52,15.52,0,0,0,32,56.56a15.19,15.19,0,0,0,0,4.1,11.07,11.07,0,0,0,1,3.48,7.87,7.87,0,0,0,1.87,2.45,4.9,4.9,0,0,0,3.62,1.24,4.34,4.34,0,0,0,3.16-1.44,4.85,4.85,0,0,0,1.17-3.73,4.49,4.49,0,0,0-1.31-3.08,1,1,0,0,0-1.09-.21c-.23.07-.24.13-.25.14s0,.05.06.08a3.29,3.29,0,0,1,.9,2.15,3.17,3.17,0,0,1-.68,2.51,1.85,1.85,0,0,1-1.56.7,3.08,3.08,0,0,1-1.81-.84,7.5,7.5,0,0,1-1.62-2,10.44,10.44,0,0,1-1.09-2.93,13.28,13.28,0,0,1-.28-3.47,12,12,0,0,1,.9-3.83A13.77,13.77,0,0,1,37.38,48a6.88,6.88,0,0,1,4.37-2.75,5.27,5.27,0,0,1,4,1.36,5.67,5.67,0,0,1,2.07,4.21,7,7,0,0,1-2,4.9.13.13,0,0,0,0,.08s0,.12.3.22a.84.84,0,0,0,1-.21.78.78,0,0,1,.08-.1l.11-.13a1.11,1.11,0,0,1,1.43.26,13.22,13.22,0,0,1,2.05,2.78,13.32,13.32,0,0,0,2.28,3c1.44,1.23,2.76,1.14,4-.28,1.07-1.24,1.2-3.68.39-7.24l-.06-.26.19.19a4.34,4.34,0,0,0,2,1.21,3.16,3.16,0,0,0,2.84-.69,10.73,10.73,0,0,0,1-.79,6.87,6.87,0,0,0,.9-1.17,6.57,6.57,0,0,0,.53-1l.12-.27.63,8c0,.08,0,.09,0,.1a.07.07,0,0,0,.09,0l2.16-1.22A.25.25,0,0,0,68,58L66.93,44.61a14.4,14.4,0,0,1,.3-4.59,3.16,3.16,0,0,1,1.14-2c.44-.26.89,0,1.28.67a10,10,0,0,1,1,3.9,10.4,10.4,0,0,1-.3,4.11l0,0h0a2.74,2.74,0,0,0-1.28.24,1.54,1.54,0,0,0-.73.81,1.16,1.16,0,0,0,.1,1,1.15,1.15,0,0,0,.66.58,1.24,1.24,0,0,0,.76,0,3.21,3.21,0,0,0,.78-.4,5.76,5.76,0,0,0,.55-.42,1.13,1.13,0,0,0,.21-.24h0a16.13,16.13,0,0,0,1.7-.82,10.65,10.65,0,0,0,1.27-.82,3.79,3.79,0,0,0,.93-1,11.07,11.07,0,0,0,.62-1.18,6.82,6.82,0,0,0,.4-1.51c0-.16,0-.31,0-.47a2.54,2.54,0,0,1,0-.29l0-.22.12.19a3.48,3.48,0,0,0,1.09,1.18,2.35,2.35,0,0,0,2.15.14c1.11-.42,1.94-1.6,2.45-3.51l.06-.23.1.28a2.35,2.35,0,0,0,1.19,1.32,2.19,2.19,0,0,0,1.74,0,4,4,0,0,0,1-.53,4.48,4.48,0,0,0,.85-1,6.37,6.37,0,0,0,.67-1.51l.07-.19.07.19a2.26,2.26,0,0,0,.92,1.1,2.15,2.15,0,0,0,1.68.25,4.21,4.21,0,0,0,1.11-.43,4.5,4.5,0,0,0,1-.91,7.83,7.83,0,0,0,1.11-2c.34-.83.72-1.9,1.13-3.19a65.2,65.2,0,0,0,2.3-6.11l0-.08.08,0c.59.28.91.58,1,.91a1.71,1.71,0,0,1-.08.71,41.81,41.81,0,0,0-1.46,4.9,7.63,7.63,0,0,0-.13,2.54,2.27,2.27,0,0,0,.87,1.53,2,2,0,0,0,1.62.41,3.47,3.47,0,0,0,1.1-.36,4.57,4.57,0,0,0,1.07-.9A8.55,8.55,0,0,0,102.6,35l.12-.24.14-.3.06.19a4.19,4.19,0,0,0,.81,1.59,3.21,3.21,0,0,0,2.74,1,11.43,11.43,0,0,0,1.22-.12,7.5,7.5,0,0,0,1.41-.45,6.88,6.88,0,0,0,1.64-.95A11,11,0,0,0,112.45,34a17.85,17.85,0,0,0,1.83-2.74s0-.07,0-.1Zm-7.95.73a10.32,10.32,0,0,1,1.78-3.34,3.38,3.38,0,0,1,2.22-1.52h0a.42.42,0,0,1,.3.1c.31.35.23.94-.25,1.81a6.48,6.48,0,0,1-4,3l-.14,0Zm-47.27,19,0-.14A10.52,10.52,0,0,1,58,46.25a3.4,3.4,0,0,1,1-2.51.42.42,0,0,1,.34-.11c.46.11.72.64.82,1.63A6.51,6.51,0,0,1,58.5,50Zm23.79-16c-.06.92-.1,1.72-.1,2.36-.53,3-1.23,4.7-2.14,5a.74.74,0,0,1-.25,0,.81.81,0,0,1-.47-.16,1.64,1.64,0,0,1-.56-.78,8.75,8.75,0,0,1-.43-3,11,11,0,0,1,.53-3.44,2.93,2.93,0,0,1,1.47-2,1,1,0,0,1,1.12.32,3.3,3.3,0,0,1,.83,1.55h0Z" transform="translate(-14.27 -20.9)"/><path class="cls-1" d="M142.68,35.82s0,0,0,0a13.92,13.92,0,0,1-2.58,1.78,8.24,8.24,0,0,1-2.33.83,9.91,9.91,0,0,1-1.5.13H136a5,5,0,0,1-1.24-.2,1.32,1.32,0,0,1-1-.93,2.81,2.81,0,0,1,.07-1.56,5.61,5.61,0,0,1,.44-1l0,0,.06,0a10.25,10.25,0,0,0,3,.26,8.34,8.34,0,0,0,3.19-.8,3.33,3.33,0,0,0,1.92-2,1.68,1.68,0,0,0-.27-1.65,3.59,3.59,0,0,0-1.81-1.07,5.92,5.92,0,0,0-3.61.15,8.93,8.93,0,0,0-3.42,2.09,7.79,7.79,0,0,0-1.5,2v0a21.08,21.08,0,0,1-2,1.92,2.55,2.55,0,0,1-1.86.78.53.53,0,0,1-.36-.19.76.76,0,0,1-.08-.52,9.33,9.33,0,0,1,1.42-3c.82-1.31,3.38-5.14,7.61-11.38,0,0,0,0,0-.06a.07.07,0,0,0-.06-.06l-2.42-.38a.25.25,0,0,0-.27.1c-2.51,3.69-4.17,6.14-4.93,7.27l-.11.17,0-.2a2,2,0,0,0-2-1.77,5.19,5.19,0,0,0-2.79.38,7.38,7.38,0,0,0-2.48,1.67,11.59,11.59,0,0,0-1.82,2.37,7.21,7.21,0,0,0-.94,2.48,3.92,3.92,0,0,0,.3,2.51,2.31,2.31,0,0,0,1.79,1.2c1.22.2,2.58-.47,4.06-2l.15-.15,0,.25a2.62,2.62,0,0,0,.36,1.86,2,2,0,0,0,1.43,1,4.56,4.56,0,0,0,1.24.06,3.79,3.79,0,0,0,1.23-.47A8.37,8.37,0,0,0,131,36.28l.05-.05.14-.15v.2a4.42,4.42,0,0,0,.24,1.66,3.2,3.2,0,0,0,2.23,1.89,10,10,0,0,0,1.2.3,7.09,7.09,0,0,0,1.47,0,7.2,7.2,0,0,0,1.87-.35,11.33,11.33,0,0,0,2.19-1.07,18.21,18.21,0,0,0,2.65-2s.05-.05,0-.1l-.38-.85Zm-7.73-2a10.11,10.11,0,0,1,2.8-2.55,3.38,3.38,0,0,1,2.6-.69.47.47,0,0,1,.28.2c.18.44-.09,1-.84,1.63a6.31,6.31,0,0,1-4.4,1.54h-.53Zm-8.34-2.05A19.78,19.78,0,0,1,124,34.53a3.2,3.2,0,0,1-1.82.9H122a.75.75,0,0,1-.57-.46,1.53,1.53,0,0,1-.1-1,8.43,8.43,0,0,1,1.12-2.8,10.84,10.84,0,0,1,2.17-2.72,2.93,2.93,0,0,1,2.26-1,1.06,1.06,0,0,1,.84.87,3.6,3.6,0,0,1-.1,1.84v0C127.21,30.83,126.88,31.36,126.61,31.81Z" transform="translate(-14.27 -20.9)"/><path class="cls-1" d="M168.16,40a12,12,0,0,1,3.22-1.39,3,3,0,0,1,2.43.22.1.1,0,0,0,.06,0s0,0,.06-.15c.07-.32-.07-.59-.44-.84a5.49,5.49,0,0,0-4.23-.54,21.4,21.4,0,0,0-6.55,3c-1.59,1-3,1.82-4.3,2.48a25.74,25.74,0,0,1-3.12,1.4,8.69,8.69,0,0,1-2.17.51,4,4,0,0,1-1.5-.08,3.86,3.86,0,0,1-1.06-.52.63.63,0,0,1-.28-.39l-.08-.21-.06,0a.43.43,0,0,0-.2.08,1.46,1.46,0,0,0-.41.44,2.8,2.8,0,0,0-.3,2A2.7,2.7,0,0,0,150.41,48a3.63,3.63,0,0,0,2,.57,6.61,6.61,0,0,0,.76,0,11.22,11.22,0,0,0,3.51-1.19c1.22-.64,2.51-1.4,3.83-2.25s2.68-1.78,3.94-2.65S167,40.72,168.16,40Z" transform="translate(-14.27 -20.9)"/><path class="cls-1" d="M168.65,46.1l-.12-.18.21.07a8,8,0,0,0,4.53.36A5.4,5.4,0,0,0,176.58,44a5.53,5.53,0,0,0,.91-3.82,8.18,8.18,0,0,0-1.7-4,15.23,15.23,0,0,0-3.8-3.46,19.44,19.44,0,0,0-4.94-2.41,15.57,15.57,0,0,0-4.66-.8,15.35,15.35,0,0,0-4.08.53A10.68,10.68,0,0,0,155,31.55a7.87,7.87,0,0,0-2.18,2.16,4.88,4.88,0,0,0-.8,3.74,4.3,4.3,0,0,0,1.82,2.94,4.78,4.78,0,0,0,3.84.7,4.49,4.49,0,0,0,2.89-1.68,1,1,0,0,0,.08-1.1c-.11-.23-.17-.23-.18-.23s0,0-.07.06a3.23,3.23,0,0,1-2,1.16,3.15,3.15,0,0,1-2.58-.36,1.82,1.82,0,0,1-.88-1.46,3.08,3.08,0,0,1,.6-1.9,7.59,7.59,0,0,1,1.82-1.86,10.33,10.33,0,0,1,2.77-1.44,12.86,12.86,0,0,1,3.41-.72,11.93,11.93,0,0,1,3.91.42,14.19,14.19,0,0,1,4.09,1.87,7.49,7.49,0,0,1,3.39,4,4.84,4.84,0,0,1-.73,4.07,5.47,5.47,0,0,1-3.78,2.56,6.74,6.74,0,0,1-4.84-1.31l-.08,0c-.07,0-.14.09-.21.26a.92.92,0,0,0,.47,1.13l.6.36,0,0a3.33,3.33,0,0,1,.95,2.12,4.31,4.31,0,0,1-.85,2.72,7.45,7.45,0,0,1-2.09,2.13,5.06,5.06,0,0,1-2.8.81h0a5.62,5.62,0,0,1-3.12-1,4.9,4.9,0,0,1-1.06-.93,2.76,2.76,0,0,1-.53-.87c-.08-.24-.14-.45-.19-.63s-.08-.25-.09-.26h-.06l-.15,0a.73.73,0,0,0-.29.27,2,2,0,0,0,.13,1.88,5.36,5.36,0,0,0,2.11,2.34,10.2,10.2,0,0,0,3.26,1.47,7.35,7.35,0,0,0,1.68.21,5.46,5.46,0,0,0,1.23-.13,7.28,7.28,0,0,0,2.38-1,6.65,6.65,0,0,0,1.81-1.85,5.33,5.33,0,0,0,.94-3A5.79,5.79,0,0,0,168.65,46.1Z" transform="translate(-14.27 -20.9)"/><path class="cls-1" d="M203.79,80.67l-13-.84,0,0h0a15.19,15.19,0,0,1-3.08-.48,7.74,7.74,0,0,1-2.24-.93,10.11,10.11,0,0,1-1.32-1,3.77,3.77,0,0,1-.77-1,1.32,1.32,0,0,1,0-1.37,3,3,0,0,1,1.18-1.11,7.29,7.29,0,0,1,3.1-.8,9.71,9.71,0,0,1,3.31.33,3.08,3.08,0,0,1,1.91,1.2.66.66,0,0,1-.14.91,3.08,3.08,0,0,1-2.69.28c-.06,0-.18.16,0,.54a2,2,0,0,0,1.32.89,2.23,2.23,0,0,0,1.73-.15c1.18-.65,1.35-1.69.53-3.18a5.88,5.88,0,0,0-2.7-2.41,8.87,8.87,0,0,0-3.87-.88h0a7.72,7.72,0,0,0-2.33.33h0a14.65,14.65,0,0,1-1.93-.13,7.54,7.54,0,0,1-2.32-.67,9.61,9.61,0,0,1-1.44-.85,3.77,3.77,0,0,1-.87-.87,1.29,1.29,0,0,1-.15-1.36,3,3,0,0,1,1-1.24,7.23,7.23,0,0,1,3-1.16,9.8,9.8,0,0,1,3.32,0,3.07,3.07,0,0,1,2,1,.66.66,0,0,1,0,.92,3.08,3.08,0,0,1-2.64.59c-.06,0-.16.18.09.53a2,2,0,0,0,1.41.73,2.21,2.21,0,0,0,1.71-.35,1.84,1.84,0,0,0,.83-1.2,2.8,2.8,0,0,0-.68-2,5.83,5.83,0,0,0-3-2.08,9.07,9.07,0,0,0-4-.43,8.74,8.74,0,0,0-2,.49,21.66,21.66,0,0,1-3.34.35c-1.16,0-1.84-.1-2.07-.34s-.27-.45.11-.8a6.85,6.85,0,0,1,2-1.15c1-.4,3.08-1.14,6.32-2.21a.11.11,0,0,0,.06-.07.1.1,0,0,0,0-.09l-1.7-1.8a.24.24,0,0,0-.27-.08l-.44.16-.17,0,.08-.16a2.08,2.08,0,0,0-.52-2.56,5,5,0,0,0-2.43-1.4,7.58,7.58,0,0,0-3-.21,12.45,12.45,0,0,0-2.89.77,7.48,7.48,0,0,0-2.26,1.38,4,4,0,0,0-1.3,2.18,2.34,2.34,0,0,0,.68,2c.82.87,2.23,1.17,4.19.92l.23,0-.22.2a2.33,2.33,0,0,0-.76,1.61,2.14,2.14,0,0,0,.62,1.62,4.32,4.32,0,0,0,.88.74,4,4,0,0,0,1.25.4,7.52,7.52,0,0,0,2.23,0h.15l.15,0,.19,0-.13.15a4.18,4.18,0,0,0-.94,1.59,3.22,3.22,0,0,0,.62,2.87,10.94,10.94,0,0,0,.75.95,6.76,6.76,0,0,0,1.11.88,6.63,6.63,0,0,0,1.65.8,11.12,11.12,0,0,0,2.36.45h.25l.18,0-.14.12a4.2,4.2,0,0,0-1.26,1.6,3.19,3.19,0,0,0,.27,2.91,10,10,0,0,0,.65,1,6,6,0,0,0,1,1,6.76,6.76,0,0,0,.91.64l.14.08-.18.07s0,0,0,0a.06.06,0,0,0,0,.08l.9,2.31a.22.22,0,0,0,.21.15l7.4.47a10,10,0,0,1,3,1,3.12,3.12,0,0,1,1.42,1.28.48.48,0,0,1-.09.44c-.35.44-1.54.61-3.67.54-1.38-.08-2.33-.11-2.83-.08A5,5,0,0,0,189,86a2.24,2.24,0,0,0-1.3,1.08,1.85,1.85,0,0,0,0,1.58,5.09,5.09,0,0,0,.58,1.12,5.5,5.5,0,0,0,1.06,1,7,7,0,0,0,1.58.79l.17.07-.17.07a2.17,2.17,0,0,0-.92.76,2,2,0,0,0-.29,1.63c.29,1.26,1.47,2.39,3.51,3.37l.19.09-.2.05-.24,0-.07,0a2.38,2.38,0,0,0-1.5.94,2,2,0,0,0-.28,1.65,3.22,3.22,0,0,0,1.27,2.06,6.53,6.53,0,0,0,1.45.9l.14.06-.14.07a3.75,3.75,0,0,0-1.44,1.34,3.08,3.08,0,0,0-.48,2.05,6.86,6.86,0,0,0,.34,1.63,2.85,2.85,0,0,0,2.55,1.78h0A13.41,13.41,0,0,0,197,110c.81-.11,1.58-.25,2.3-.41a8.17,8.17,0,0,1,2.18-.2,2.81,2.81,0,0,1,1.72.58,1.19,1.19,0,0,0,.73-.54,1.71,1.71,0,0,0,.3-1.17,2.23,2.23,0,0,0-1.33-1.92c-1.88-.9-3.43-1.68-4.62-2.32l-1.53-.85h0v0c-.15-.26-.48-.38-1-.35h0c-.56-.26-1-.48-1.37-.68-1-.58-1.54-1-1.62-1.34s0-.52.51-.64a7.59,7.59,0,0,1,2.42,0c1.09.14,3.41.59,7.09,1.38a.15.15,0,0,0,.1,0,.08.08,0,0,0,0-.08l-.55-2.39a.24.24,0,0,0-.22-.2c-2.23-.48-4-.83-5.19-1a23,23,0,0,1-3.95-1.71c-1-.59-1.54-1.08-1.64-1.51a.46.46,0,0,1,.05-.37.76.76,0,0,1,.45-.27,7.91,7.91,0,0,1,2.42,0c1.1.15,3.42.6,7.1,1.39h0a.11.11,0,0,0,.09,0,.07.07,0,0,0,0-.08l-.55-2.39a.25.25,0,0,0-.19-.2c-2.16-.47-3.9-.81-5.17-1h0a20,20,0,0,1-4-1.15c-1.23-.52-1.9-1-2.06-1.37-.08-.22-.08-.52.41-.71a5.33,5.33,0,0,1,1.71-.16c.82,0,2.19.09,4.2.22h.06a4.47,4.47,0,0,0,1.69-.29,1.88,1.88,0,0,0,1.08-1.06,2.2,2.2,0,0,0,0-1.72c-.14-.35-.27-.65-.39-.88a4.07,4.07,0,0,0-.68-.85,4.55,4.55,0,0,0-1.22-.88l-.33-.17,8.93.58a.11.11,0,0,0,.09,0,.06.06,0,0,0,0-.08L204,80.84A.25.25,0,0,0,203.79,80.67ZM171.87,58.79a2.62,2.62,0,0,1-1.93-.54.77.77,0,0,1-.18-.71,1.62,1.62,0,0,1,.51-.81,8.54,8.54,0,0,1,2.59-1.54,11.12,11.12,0,0,1,3.38-.82,2.91,2.91,0,0,1,2.39.6,1,1,0,0,1,.14,1.16,3.48,3.48,0,0,1-1.12,1.36h0c-.94.31-1.66.57-2.22.81A17.45,17.45,0,0,1,171.87,58.79Zm22.63,45.78a2.86,2.86,0,0,1,1.53-.42h0l.45.16c1,.62,2.36,1.35,4.08,2.25l.22.12-.25,0-1.26.17-1.29.21-1.18.16a6,6,0,0,1-.81.05h-.29a4.24,4.24,0,0,1-.89-.15,1.24,1.24,0,0,1-.68-.43,1.37,1.37,0,0,1-.29-.79A1.31,1.31,0,0,1,194.5,104.57Z" transform="translate(-14.27 -20.9)"/><path class="cls-1" d="M36.65,139.68l.4,1.2-4.11,3.45,5.37.25.39,1.17-7.07-.45-.32-1Z" transform="translate(-14.27 -20.9)"/><path class="cls-1" d="M36.89,150h0a3.4,3.4,0,0,1,3,6.13h0a3.35,3.35,0,0,1-4.52-1.62A3.31,3.31,0,0,1,36.89,150ZM39.32,155h0a2.23,2.23,0,0,0,1.12-3,2.19,2.19,0,0,0-3-1h0a2.23,2.23,0,0,0-1.12,3A2.19,2.19,0,0,0,39.32,155Z" transform="translate(-14.27 -20.9)"/><path class="cls-1" d="M44.58,159.76,43.48,158l.89-.57,2.83,4.47-.9.57-1.1-1.75-4.61,2.92-.61-1Z" transform="translate(-14.27 -20.9)"/><path class="cls-1" d="M49.45,165.05l1.82,2.26a2.63,2.63,0,0,1,.67,1.88,2,2,0,0,1-.75,1.3h0a2,2,0,0,1-2.5,0l-.82,2.92L47,172.39l.76-2.67-.9-1.12L45.1,170l-.72-.89Zm-.75,4.22c.52.64,1.18.78,1.69.36h0c.54-.44.52-1.07,0-1.73l-1-1.29L47.65,168Z" transform="translate(-14.27 -20.9)"/><path class="cls-1" d="M55.53,172.2,59,175.6l-.72.73-2.61-2.59-1.2,1.2,2.32,2.3L56,178l-2.32-2.29-1.23,1.24,2.65,2.62-.72.73L51,176.83Z" transform="translate(-14.27 -20.9)"/><path class="cls-1" d="M64.5,184.4v0a3.3,3.3,0,0,1,4.67-.91,3.38,3.38,0,0,1,1.54,2.27l-1.08.29a2.59,2.59,0,0,0-1.06-1.7,2.2,2.2,0,0,0-3.07.71h0a2.21,2.21,0,0,0,.49,3.12,2.58,2.58,0,0,0,2,.35l.19,1a3.34,3.34,0,0,1-2.83-.52A3.27,3.27,0,0,1,64.5,184.4Z" transform="translate(-14.27 -20.9)"/><path class="cls-1" d="M76.61,187.93l1,.48-.43,7.14L76.05,195l.13-1.7-2.74-1.4L72.12,193l-1-.53Zm-.34,4.28.18-2.83-2.18,1.81Z" transform="translate(-14.27 -20.9)"/><path class="cls-1" d="M82.18,190.67l1.18.45.07,5.37,3.6-4,1.15.43-4.83,5.18-.95-.35Z" transform="translate(-14.27 -20.9)"/><path class="cls-1" d="M92,194l1.1.3-1.69,6.28-1.1-.3Z" transform="translate(-14.27 -20.9)"/><path class="cls-1" d="M96.21,200.77l.81-.69a3,3,0,0,0,1.88,1.19c.7.11,1.19-.14,1.27-.62h0c.08-.46-.14-.75-1.28-1.23-1.31-.57-2-1.1-1.8-2.28v0a2,2,0,0,1,2.51-1.48,3.61,3.61,0,0,1,2.18,1.2l-.75.75a3,3,0,0,0-1.62-1c-.66-.11-1.11.16-1.18.58v0c-.09.5.17.77,1.35,1.27s1.92,1.17,1.73,2.23v0c-.21,1.2-1.27,1.75-2.62,1.52A4,4,0,0,1,96.21,200.77Z" transform="translate(-14.27 -20.9)"/><path class="cls-1" d="M107.55,197.74l-2.06-.13.07-1.05,5.27.33-.07,1.05-2.06-.13-.34,5.44-1.15-.07Z" transform="translate(-14.27 -20.9)"/><path class="cls-1" d="M114.73,196.89l4.82-.22,0,1-3.68.17.08,1.69,3.26-.15,0,1-3.26.15.08,1.74,3.73-.17.05,1-4.87.23Z" transform="translate(-14.27 -20.9)"/><path class="cls-1" d="M129.29,195.33l2.36-.57a3.24,3.24,0,0,1,4.11,2.34v0a3.26,3.26,0,0,1-2.6,4l-2.36.56Zm1.36.74,1,4.3,1.24-.3a2.11,2.11,0,0,0,1.69-2.65v0a2.14,2.14,0,0,0-2.71-1.63Z" transform="translate(-14.27 -20.9)"/><path class="cls-1" d="M138.83,192.74l4.52-1.67.36,1-3.45,1.27.58,1.59,3.06-1.13.35,1-3.05,1.13.6,1.63,3.49-1.29.36,1-4.57,1.69Z" transform="translate(-14.27 -20.9)"/><path class="cls-1" d="M147.08,189.43l2.29-1.16a2.18,2.18,0,0,1,3.18.83v0c.66,1.3,0,2.51-1.32,3.15l-1.16.58.94,1.87-1,.52Zm3.73,1.9a1.22,1.22,0,0,0,.73-1.66v0c-.34-.68-1-.79-1.78-.41l-1.18.6,1.05,2.09Z" transform="translate(-14.27 -20.9)"/><path class="cls-1" d="M156.83,188.44l-2.06-3.13,1-.63,2,3.09a1.6,1.6,0,0,0,2.4.64,1.57,1.57,0,0,0,.37-2.41l-2.06-3.13,1-.63,2,3.09a2.6,2.6,0,0,1-.74,4A2.56,2.56,0,0,1,156.83,188.44Z" transform="translate(-14.27 -20.9)"/><path class="cls-1" d="M163,179.53l.89-.72,4.09,5.07-.89.71Z" transform="translate(-14.27 -20.9)"/><path class="cls-1" d="M170.89,180.11l-.08-1.07a3,3,0,0,0,2.06-.82c.51-.49.6-1,.26-1.39h0c-.33-.33-.69-.33-1.75.31-1.23.72-2.07,1-2.91.11h0a2,2,0,0,1,.28-2.9,3.61,3.61,0,0,1,2.27-1.06l.16,1a2.91,2.91,0,0,0-1.74.75c-.48.46-.52,1-.22,1.29h0c.35.36.72.32,1.83-.34s2.07-.86,2.82-.09v0c.85.87.67,2.06-.31,3A4,4,0,0,1,170.89,180.11Z" transform="translate(-14.27 -20.9)"/><path class="cls-1" d="M178.47,165l-.43,1.14-.89-.35.59-1.75.47-.64,5.28,3.88-.67.91Z" transform="translate(-14.27 -20.9)"/><path class="cls-1" d="M185.64,158.42a1.89,1.89,0,0,1-.18,1.67,2.07,2.07,0,0,1-3,.93h0a2.25,2.25,0,0,1-.7-3.23,2.37,2.37,0,0,1,1.52-1.21,3.31,3.31,0,0,1,2.53.59h0c1.8,1.07,2.52,2.7,1.62,4.21a3.07,3.07,0,0,1-1.73,1.39l-.44-1a2.23,2.23,0,0,0,1.29-1C187.19,159.83,186.38,158.87,185.64,158.42Zm-1.26-.69h0a1.23,1.23,0,0,0-1.73.55A1.2,1.2,0,0,0,183,160h0a1.33,1.33,0,0,0,1.34-2.28Z" transform="translate(-14.27 -20.9)"/><path class="cls-1" d="M189.22,154.3h0a1.64,1.64,0,0,1-.95-1.72,1.56,1.56,0,0,1-1.71.26h0a2.33,2.33,0,0,1,1.87-4.11h0a1.56,1.56,0,0,1,.93,1.47,1.67,1.67,0,0,1,1.91-.42h0c1.06.48,1.28,1.75.69,3S190.25,154.77,189.22,154.3Zm-1.17-4.53h0a1.19,1.19,0,0,0-1,2.11h0a1.18,1.18,0,0,0,1-2.11Zm2.7,1h0c-.55-.24-1.15.14-1.47.84s-.2,1.4.34,1.64h0c.48.22,1.09-.05,1.45-.83S191.24,151,190.75,150.77Z" transform="translate(-14.27 -20.9)"/><path class="cls-1" d="M193.46,146.24l-.45-1a2.16,2.16,0,0,0,1.35-1.35,1,1,0,0,0-.59-1.38h0c-.6-.21-1.13.24-1.42,1.1l-.16.5-.74,0-1.22-2.26-.89,2.68-.94-.32,1.35-4.08.81.27,1.2,2.3a1.87,1.87,0,0,1,2.33-1.25h0a2.09,2.09,0,0,1,1.25,2.81A3.09,3.09,0,0,1,193.46,146.24Z" transform="translate(-14.27 -20.9)"/></g><g id="Mode_Isolation" data-name="Mode Isolation"><path class="cls-1" d="M143,119.1c-.16-.26-.35-.51-.52-.76a1.64,1.64,0,0,1-.34-.73c-.06-.67-.13-1.33-.21-2-.12-.92-.25-1.84-.36-2.77-.06-.55-.13-1.1-.16-1.66a16.42,16.42,0,0,0-.22-2.71,12,12,0,0,0-.35-1.34,3,3,0,0,1-.2-1c0-.21,0-.41,0-.61,0-.59-.09-1.18-.12-1.77a5.9,5.9,0,0,1,.32-2.21,3.19,3.19,0,0,0,.16-1.1,5.56,5.56,0,0,0-.57-2.08.39.39,0,0,1,0-.35,2.62,2.62,0,0,0,.36-1.19.68.68,0,0,1,0-.14,6.27,6.27,0,0,0,.1-1.73c0-.54-.1-1.08-.16-1.62,0-.27-.08-.54-.11-.81a.61.61,0,0,1,0-.36c.35-.4.55-1,1.26-.94H142a.35.35,0,0,0,.25-.46.62.62,0,0,0-.13-.27.66.66,0,0,1-.17-.72,1.2,1.2,0,0,0-.21-1c-.14-.17-.28-.35-.43-.52s-.21-.21-.3-.32a.36.36,0,0,1-.06-.51,1.39,1.39,0,0,0,.15-1c-.1-.49-.18-1-.27-1.48a1,1,0,0,1,.13-.74,1.29,1.29,0,0,0,.2-1.14c-.09-.23-.22-.44-.33-.66l-.12-.24a.87.87,0,0,1,.19-.08,1.42,1.42,0,0,0,1-1.86,2.13,2.13,0,0,0-2.14-1.5c-.23,0-.26,0-.31-.25a1.48,1.48,0,0,0-.25-.69,2.71,2.71,0,0,0-1-.88,1,1,0,0,0-1.27.24,2,2,0,0,0-.26.51c-.06.17-.12.33-.33.35a.5.5,0,0,1-.46-.23,1.61,1.61,0,0,0-.23-.33,2.28,2.28,0,0,0-2.25-.65.9.9,0,0,0-.24.12,2,2,0,0,0-.79.94.42.42,0,0,1-.56.3c-.36-.09-.39-.08-.47-.43a1.59,1.59,0,0,1-.06-.3,2.1,2.1,0,0,0-.54-1.22,1.06,1.06,0,0,0-.47-.34,1.6,1.6,0,0,0-1.88.63c0,.06-.09.11-.16.2l-.26-.3a2,2,0,0,0-.74-.54,3.29,3.29,0,0,0-1.7-.24,1.86,1.86,0,0,0-.39.1,1.62,1.62,0,0,0-1,1.26c-.06.25-.09.27-.35.24a1.67,1.67,0,0,0-1.38.42,1.53,1.53,0,0,1-.3.19c0-.44.07-.84.09-1.24a10.87,10.87,0,0,0-.19-2,3.32,3.32,0,0,0-.9-1.9,6.64,6.64,0,0,1-.58-.71c-.34-.49-.66-1-1-1.49a.32.32,0,0,0-.36-.18c0,.09-.06.18-.08.27a3,3,0,0,1-.39,1,4.66,4.66,0,0,1-1.08,1.26,2.76,2.76,0,0,0-1,2.63,4.68,4.68,0,0,1,.07.54.32.32,0,0,1-.19.36c-.19-.26-.39-.5-.55-.77A18.62,18.62,0,0,0,114,73c-.26-.3-.56-.55-.87-.86a1.6,1.6,0,0,0-.36.66,2.85,2.85,0,0,1-.11.39c-.12.34-.25.68-.39,1s-.34.82-.53,1.21a1.82,1.82,0,0,1-.28.33l-.17-.4a5.92,5.92,0,0,0-2.45-2.43l-1.5-.87-.9-.53c0,.08-.09.11-.1.15-.25.81-.5,1.62-.72,2.44a7.92,7.92,0,0,0-.19,1,1.23,1.23,0,0,0,0,.33,3.69,3.69,0,0,0,.46,1.76c.11.16.23.31.34.46s.16.2.1.33a2,2,0,0,1-1.38-.89,13.85,13.85,0,0,0-2.19-2.64,3.34,3.34,0,0,0-1-.7.64.64,0,0,0-.87.5,2.46,2.46,0,0,0,.09,1,13.69,13.69,0,0,1,.37,1.66,15.39,15.39,0,0,1,.09,1.66c0,.35,0,.7-.07,1,0,.07-.06.13-.11.25a1.28,1.28,0,0,1-.09-.24,2.47,2.47,0,0,0-.45-1.05,9.14,9.14,0,0,0-1-1.06,11.35,11.35,0,0,0-3.17-2.14.64.64,0,0,0-1,.34c-.18.41-.32.84-.47,1.26,0,.08-.07.15-.09.22s-.09.28-.13.42a1.6,1.6,0,0,1-.07.33,2.14,2.14,0,0,0-.16.9,3.35,3.35,0,0,0,.21,1.66,4.36,4.36,0,0,0,.4.74c.37.41.78.79,1.17,1.18a.67.67,0,0,1,.11.14c-.1.14-.19.08-.28,0l-.37-.18c-.43-.2-.85-.4-1.29-.59A9.33,9.33,0,0,0,93,81.21a7.62,7.62,0,0,1-.82-.22,5.89,5.89,0,0,1-.8-.29,3.36,3.36,0,0,1-1.2-.92,1.75,1.75,0,0,0-.19-.2,1.59,1.59,0,0,0-1.52-.47,2,2,0,0,0-.82.38,1.06,1.06,0,0,0-.3,1.35,7.14,7.14,0,0,0,.43.64.56.56,0,0,1,.11.66c-.07.14-.15.28-.21.42-.31.8-.63,1.6-.93,2.41-.25.66-.49,1.34-.73,2l-.31.82c-.13.34-.27.67-.39,1a1,1,0,0,0,0,.3c0,.37,0,.75,0,1.12a2.81,2.81,0,0,0,.39,1.29c.27.52.59,1,.88,1.53a1.3,1.3,0,0,1,.19.53c0,.59,0,1.18,0,1.77a4.42,4.42,0,0,1-.58,1.94.42.42,0,0,1-.19.18.37.37,0,0,0-.22.38c0,.16,0,.32,0,.48,0,.42,0,.83,0,1.25a.66.66,0,0,0,.06.2,2.42,2.42,0,0,0,.55.72c.31.26.6.56.91.82a4.46,4.46,0,0,0,2,1.05,4.44,4.44,0,0,1,.62.19.57.57,0,0,1,.34.37,1,1,0,0,1-.58.32l-.81.1c-.35.06-.63.18-.72.57,0,.2-.22.23-.35.07s-.45-.56-.67-.86a.65.65,0,0,1-.08-.28c0-.42,0-.47-.44-.62a1.58,1.58,0,0,1-.49-.23,17.18,17.18,0,0,1-1.77-1.53,1.76,1.76,0,0,0-1.3-.66c-.71,0-1.42-.07-2.14-.09a6.26,6.26,0,0,0-2.64.38.31.31,0,0,1-.13,0,2.34,2.34,0,0,0-1,.32,3.31,3.31,0,0,0-1.24.86,6.11,6.11,0,0,0-1,1.19,1.12,1.12,0,0,1-.53.59.63.63,0,0,0-.27.33.59.59,0,0,1-.3.34,1.35,1.35,0,0,0-.69,1,6.34,6.34,0,0,1-.31.93s0,0,0,0a1.28,1.28,0,0,0-.21.91,2.89,2.89,0,0,1-.09,1.57.32.32,0,0,0,0,.14,5.94,5.94,0,0,1-.35,1.44,4.05,4.05,0,0,0,0,2.34,1.27,1.27,0,0,1,.05.34.88.88,0,0,0,0,.33c.2.38.19.83.39,1.22a8.52,8.52,0,0,0,.78,1.42,2.24,2.24,0,0,0,1.37.94,1.54,1.54,0,0,1,.76.39,2.63,2.63,0,0,0,1.9.85.49.49,0,0,1,.28.09c.14.08.25.19.39.27a1.8,1.8,0,0,0,1.13.32,1.34,1.34,0,0,1,.56.08,2.3,2.3,0,0,0,1.53.07l.4-.09a2.73,2.73,0,0,0,1.87-1.19,3.49,3.49,0,0,1,.66-.72l.28-.25a2.59,2.59,0,0,0,.74-2.62c-.15-.55-.18-1.12-.35-1.66a4.89,4.89,0,0,0-.45-1.05,1.66,1.66,0,0,1-.35-.93,1.71,1.71,0,0,0-.1-.5.57.57,0,0,0-.78-.4,2.21,2.21,0,0,0-1.3,1.26,2.33,2.33,0,0,0-.22.81.51.51,0,0,1-.09.22c-.18.26-.37.52-.54.78a3.92,3.92,0,0,0-.81,1.84s0,.08-.07.15c-.19-.2-.35-.39-.52-.56a.6.6,0,0,1-.17-.52,4.34,4.34,0,0,0,0-1,2.08,2.08,0,0,0-.44-1.27,1.52,1.52,0,0,1-.42-1.18,1.82,1.82,0,0,0-.3-1.06c-.13-.23-.11-.26.07-.46a6.55,6.55,0,0,0,.45-.59,1,1,0,0,1,.12-.16,1,1,0,0,0,.41-.68.43.43,0,0,1,.18-.26,2.35,2.35,0,0,1,.37-.24,1.58,1.58,0,0,1,.44-.24,1.33,1.33,0,0,0,.65-.4c.11-.11.2-.22.32-.35a.7.7,0,0,1,.34.4,2.86,2.86,0,0,0,.84,1,1.56,1.56,0,0,1,.27.3.77.77,0,0,0,.56.4.46.46,0,0,1,.38.26,1.56,1.56,0,0,0,1,.8.44.44,0,0,1,.3.29c.11.24.25.46.37.69a2.46,2.46,0,0,1,.31.63,8.77,8.77,0,0,0,.46,1.59,6.89,6.89,0,0,0,.87,1.6c.62.84,1.29,1.64,1.92,2.47s1.12,1.48,1.66,2.24a3.43,3.43,0,0,1,.62,1.67,4.43,4.43,0,0,0,.46,1.66.89.89,0,0,0,1.38.23,2.11,2.11,0,0,0,.53-1.15c.09-.33.13-.38.46-.27l1.15.41a.16.16,0,0,1,.11.24.84.84,0,0,1-.11.21,5.78,5.78,0,0,0-.83,1.8,1.28,1.28,0,0,0-.06.33c-.05.5-.11,1-.13,1.49a2.93,2.93,0,0,0,.59,2.12,2.7,2.7,0,0,0,1.91,1,3.85,3.85,0,0,0,.68,0,.85.85,0,0,1,.68.24.46.46,0,0,1,.15.55,6.72,6.72,0,0,1-.5.69.5.5,0,0,1-.29.14,1.64,1.64,0,0,0-1.08.58,1.33,1.33,0,0,1-.38.33c-.18.12-.39.19-.57.3a1.91,1.91,0,0,0-1,2,2.11,2.11,0,0,0,.55,1.21l.92,1a.63.63,0,0,1-.07,1,2.25,2.25,0,0,1-.68.29,4.19,4.19,0,0,0-1.54.76,1.72,1.72,0,0,0-.24,2.61c.41.43.86.84,1.3,1.25a2.25,2.25,0,0,1,.61,1,.79.79,0,0,1-.08.62,1.62,1.62,0,0,1-.85.65c-.43.21-.87.41-1.29.64a4.05,4.05,0,0,0-1.29,1.25.59.59,0,0,1-.56.3,1.31,1.31,0,0,0-.34,0c-.34.11-.68.24-.77.64a1.1,1.1,0,0,0,.33,1,.66.66,0,0,0,.9.11,1.76,1.76,0,0,0,.23-.14.37.37,0,0,1,.38,0,4,4,0,0,0,.76.18,1,1,0,0,0,.78-.18,1,1,0,0,1,.63-.2,2.18,2.18,0,0,0,.57-.08.84.84,0,0,0,.63-.93.85.85,0,0,0,0-.23.65.65,0,0,1,.71-.86c.12,0,.23,0,.34,0a1.21,1.21,0,0,0,.9-.43s.08-.11.13-.15.18-.08.26-.12a.62.62,0,0,1,.1.24,2.15,2.15,0,0,0,.56,1.35c.15.22.31.45.45.68a4,4,0,0,0,1.2,1.36,3.18,3.18,0,0,1,.52.44,1,1,0,0,1,.23,1.37c-.09.15-.17.3-.26.44a1,1,0,0,0-.12,1,3.2,3.2,0,0,1,.13.63,4.49,4.49,0,0,0,.19.72.58.58,0,0,0,.51.39.38.38,0,0,0,.48-.36c0-.28,0-.56.06-.84s.07-.77.13-1.15a1.72,1.72,0,0,1,.19-.47c.18-.32.4-.63.56-1a5.36,5.36,0,0,0,.51-1.86,1.11,1.11,0,0,1,.2-.52c.14-.23.35-.21.48,0a1.22,1.22,0,0,1,.17.37,1.34,1.34,0,0,0,.54.88,7,7,0,0,1,1.33,1.5,4.32,4.32,0,0,1,.8,1.85,2.9,2.9,0,0,0,1.22,2.11,1.94,1.94,0,0,0,.73.33,1.23,1.23,0,0,0,1.4-1,5.48,5.48,0,0,0,.13-2.06c0-.24,0-.48-.07-.71a.37.37,0,0,1,.2-.37c.17-.06.28.07.4.15a.25.25,0,0,1,.08.14c.07.23.14.45.2.68s.08.43.15.63a2.76,2.76,0,0,0,1.2,1.39,22,22,0,0,0,2.32,1.18c.52.27,1.06.52,1.56.82a17.34,17.34,0,0,1,1.6,1.09c.77.58,1.51,1.19,2.26,1.79.31.25.61.52.93.74a1.19,1.19,0,0,0,1.28-.09,1,1,0,0,0,.34-.85,4.29,4.29,0,0,0-.19-1.07,12.18,12.18,0,0,1-.5-1.66c-.14-.74-.3-1.49-.37-2.24a12.56,12.56,0,0,1,0-1.84,4.86,4.86,0,0,1,.12-.84c.1-.43.21-.86.33-1.28l.33-1.22c.13-.52.28-1,.38-1.58s.22-1.35.33-2c.13-.85.25-1.7.42-2.55a6.54,6.54,0,0,1,.41-1.5c.26-.56.48-.67,1.1-.61a12.14,12.14,0,0,0,3.56-.07c.51-.1,1-.19,1.53-.3s.88-.2,1.32-.32a3.77,3.77,0,0,0,.72-.23,14.37,14.37,0,0,0,1.36-.68,3.77,3.77,0,0,0,1.89-3,4.2,4.2,0,0,0-.56-2.41,5.55,5.55,0,0,1-.5-1.3,1.22,1.22,0,0,1,0-.57c.09-.47.23-.58.7-.62a5.49,5.49,0,0,0,.58,0l.78-.12a1,1,0,0,0,.69-.51,2.44,2.44,0,0,0,.14-2.49c-.11-.2-.07-.29.15-.35a.81.81,0,0,0,.45-.21,1.74,1.74,0,0,0,.38-1.8,2.19,2.19,0,0,0-1.51-1.44,5.8,5.8,0,0,1-.73-.28.5.5,0,0,1-.27-.32c0-.17.21-.16.34-.22h0a2.9,2.9,0,0,0,1.5-1,2.15,2.15,0,0,1,.35-.32.54.54,0,0,1,.63,0,2.45,2.45,0,0,1,.72.52,5.84,5.84,0,0,0,1.12.92,1.58,1.58,0,0,0,1.85,0,4.22,4.22,0,0,0,1-1.22A.71.71,0,0,0,143,119.1ZM141.25,89l.1.18a.76.76,0,0,1,0,.72c-.12.22-.11.26.08.43a1.47,1.47,0,0,1,.22.21c.11.14.06.24-.1.26a.74.74,0,0,1-.21,0c-.35-.07-.71-.15-1.06-.24a.57.57,0,0,1-.42-.36,2,2,0,0,1,.29-.15,1,1,0,0,1,.16,0c.23-.11.26-.27,0-.43a6.82,6.82,0,0,0-.64-.39c-.54-.28-1.08-.57-1.63-.83-.35-.16-.72-.28-1.08-.41l-.24-.12a2.72,2.72,0,0,1,.37-.22,2.53,2.53,0,0,1,.6-.11,7.94,7.94,0,0,1,1.29,0A2.68,2.68,0,0,1,141.25,89Zm-18.77,5.4c-.87,0-1.73,0-2.59,0a2.11,2.11,0,0,1-.5-.1l-.6-.13a1.38,1.38,0,0,1-.29-.08c-.35-.13-.7-.25-1-.4s-.69-.33-1-.52a11.58,11.58,0,0,1-1.06-.65,3.13,3.13,0,0,1-1.05-.9.35.35,0,0,1,.14-.56l.27-.14a.83.83,0,0,1,.78,0,1.37,1.37,0,0,0,.52.13c.3,0,.4-.08.35-.38a.75.75,0,0,1,.19-.63c.14-.18.26-.23.46-.11a4,4,0,0,1,.64.44,3,3,0,0,0,.72.45.37.37,0,0,1,.19.2,2,2,0,0,1,.11.42c-.22.25-.36.27-.61,0s-.34-.33-.53-.47a4.61,4.61,0,0,0-.56-.33,1.14,1.14,0,0,1-.79.69c-.19.08-.35.18-.35.41a.54.54,0,0,0,.31.45,2.79,2.79,0,0,0,.89.32.55.55,0,0,0,.45-.08.5.5,0,0,1,.71.06,3,3,0,0,0,1.5.66,7.43,7.43,0,0,1,.77.33,7.32,7.32,0,0,0,.87.28.42.42,0,0,0,.46-.23.23.23,0,0,1,.33-.08l.88.35a1,1,0,0,1,.18.08c.11.07.11.2,0,.24A2.11,2.11,0,0,1,122.48,94.42Zm.66,1.24a.34.34,0,0,0,0,.1c-.22,0-.45.07-.67.08a17.83,17.83,0,0,0-3,.44c-.5.11-1,.2-1.5.32a5.08,5.08,0,0,0-.51.17.62.62,0,0,1-.67-.11.37.37,0,0,0-.41-.09.17.17,0,0,1-.25-.09.28.28,0,0,1,.12-.35,1.12,1.12,0,0,1,.23-.06,13.38,13.38,0,0,1,2-.26c1.19-.13,2.37-.22,3.57-.24.25,0,.49,0,.74,0A2.25,2.25,0,0,1,123.14,95.66Zm-3.43,5.84c0-.42.07-.55.5-.59l.44,0a.24.24,0,0,1,.28.24c0,.26.06.51.06.77a6.1,6.1,0,0,1-.75,3.07,11,11,0,0,0-.66,1.33,3.9,3.9,0,0,0-.17,2.79c0,.12.14.27,0,.37s-.24-.07-.34-.15a1.78,1.78,0,0,1-.45-1,9.17,9.17,0,0,1-.09-.93,11.41,11.41,0,0,1,.22-1.19,3.77,3.77,0,0,1,.32-.71,7,7,0,0,0,.71-2.67A8.85,8.85,0,0,0,119.71,101.5Zm-.63,2.8c-.08.25-.19.48-.26.73a1.64,1.64,0,0,1-.41.62,4.7,4.7,0,0,0-1.13,2.06c-.07.27-.15.54-.23.82s-.23.28-.37.13a1.17,1.17,0,0,1-.3-.51,2.37,2.37,0,0,1,.06-.88,7,7,0,0,1,.73-1.6,6.23,6.23,0,0,0,.89-2.82c0-.31,0-.63,0-.95a.37.37,0,0,1,.22-.38,6.91,6.91,0,0,1,.77-.25c.16,0,.23.08.24.22,0,.3.08.61.11.85A7.65,7.65,0,0,1,119.08,104.3Zm-1.6-.3a6.25,6.25,0,0,1-.7,1.42l-.89,1.44c-.12.2-.22.25-.41.21a.38.38,0,0,1-.32-.42,1.65,1.65,0,0,1,0-.44c.14-.53.28-1.07.47-1.59a2.86,2.86,0,0,1,.5-.76,4.14,4.14,0,0,0,.8-1.56c.13-.47.16-.49.7-.53a.72.72,0,0,1,.07.25A7.81,7.81,0,0,1,117.48,104Zm-7,9.59a4,4,0,0,0,.22.57c.09.22.16.45.26.66a2.74,2.74,0,0,1,.2,1.2,1.66,1.66,0,0,1-1.16,1.57,8.29,8.29,0,0,1-3.21.47s-.1,0-.2-.08a3.35,3.35,0,0,1,.31-.38,5,5,0,0,0,1.3-2.28,4.32,4.32,0,0,0,.11-.88,5.13,5.13,0,0,0-.28-1.94.8.8,0,0,0-.31-.39,3.81,3.81,0,0,1-.65-.54,2,2,0,0,1-.44-1.19A4.17,4.17,0,0,1,108,107a1.22,1.22,0,0,1,.38-.22c.17-.06.29,0,.3.22a.81.81,0,0,1,0,.27c-.17.44-.38.87-.52,1.32a7.73,7.73,0,0,0-.2,1.17.35.35,0,0,0,.17.26c.12.07.21,0,.26-.15.14-.29.25-.58.39-.87s.3-.61.45-.91c0,0,0-.1.07-.14a.28.28,0,0,1,.17.33c0,.28,0,.57,0,.85s0,.31.24.4c.43.14.86.28,1.28.45a2.35,2.35,0,0,1,.67.39,1.75,1.75,0,0,0,2.52-.71c.28-.46.13-.8-.33-1.07a6.11,6.11,0,0,0-.58-.27.45.45,0,0,1-.14-.11s.06-.09.1-.11l1.34-.65a1,1,0,0,1,1.43.63,2.77,2.77,0,0,1,.18,1.27,7.07,7.07,0,0,1-.44,2.23,3.19,3.19,0,0,1-1.25,1.49,3.44,3.44,0,0,1-2.66.53,5,5,0,0,1-.73-.28l-.15-.08c-.12-.06-.26-.08-.33,0A.45.45,0,0,0,110.47,113.59Zm-20.31-8.48a1,1,0,0,1,.24,0,7.2,7.2,0,0,1,2.71,1.49.7.7,0,0,1,.13.18l-.19.09c-.33.09-.46.24-.36.56a4.39,4.39,0,0,0,.35.84c.41.82.86,1.62,1.26,2.44a8.52,8.52,0,0,1,.33,1c.06.19.13.38.19.58a1.26,1.26,0,0,1,0,.28l-.07,0a.9.9,0,0,1-.2-.14,19.53,19.53,0,0,1-1.61-2,31.45,31.45,0,0,1-2.36-4c-.16-.32-.3-.66-.45-1A.74.74,0,0,1,90.16,105.11Zm2,4.66a17.65,17.65,0,0,0,2.09,2.77c.26.26.55.51.82.76l.11.16a.41.41,0,0,1,0,.09,1.4,1.4,0,0,1-.29-.09,5.46,5.46,0,0,1-1.72-1.52c-.62-.84-1.22-1.69-1.81-2.55-.37-.55-.73-1.12-1.06-1.7a10.82,10.82,0,0,1-.59-1.18c-.12-.25-.2-.5-.3-.76,0-.11-.13-.23,0-.33a.42.42,0,0,1,.44.09A2.82,2.82,0,0,1,90,106,28.71,28.71,0,0,0,92.11,109.77Zm2.83,1.62A11.4,11.4,0,0,0,94,109.3c-.28-.54-.57-1.07-.86-1.62a1.51,1.51,0,0,1-.1-.3.48.48,0,0,1,.52,0,10.76,10.76,0,0,1,1.33.74c1,.69,1.89,1.4,2.81,2.13a3.48,3.48,0,0,1,1.29,2,.62.62,0,0,1,0,.33,4.66,4.66,0,0,1-.54,1.53,3.13,3.13,0,0,1-.41.49.42.42,0,0,1-.5.09,3.69,3.69,0,0,1-2.17-1.93A9.73,9.73,0,0,1,94.94,111.39Zm3.54,3.39a2.84,2.84,0,0,0,.69-1.23,11.15,11.15,0,0,1,.7-1.88c.07-.12.16-.24.24-.37a4.45,4.45,0,0,1,.94-1.18,1.63,1.63,0,0,0,.27-.31,2.48,2.48,0,0,1,2.57-1l.16,0a.17.17,0,0,1,.11.27,2.75,2.75,0,0,1-.19.28,3.92,3.92,0,0,0-.47,1.45,2.13,2.13,0,0,0,.08.9,5.78,5.78,0,0,1,0,3.06,4.22,4.22,0,0,1-.55,1.27,1.91,1.91,0,0,1-.89.72l-.25.08h-.14l-1-.32a15.13,15.13,0,0,1-1.65-.85,2.31,2.31,0,0,1-.57-.43A.27.27,0,0,1,98.48,114.78Zm3.46-20.42a5.65,5.65,0,0,1-1.65-.42.32.32,0,0,1-.19-.34c0-.14.16-.14.27-.16.69-.07,1.37-.18,2.06-.2a1.18,1.18,0,0,0,1-.65,4.54,4.54,0,0,0,.3-.53,1,1,0,0,1,1.27-.34.23.23,0,0,1,.12.34,5.38,5.38,0,0,1-1.59,1.83A3.5,3.5,0,0,1,101.94,94.36Zm.43.92s-.06.08-.09.09c-.34.09-.68.16-1,.27a5.74,5.74,0,0,0-.72.3c-.17.09-.32.21-.48.31a.42.42,0,0,1-.53,0,.45.45,0,0,1-.05-.51,1.15,1.15,0,0,1,1-.61,14.73,14.73,0,0,1,1.63,0C102.2,95.11,102.33,95.11,102.37,95.28Zm3.52-2.42.73-.55c.2-.14.31-.11.5.1-.15.1-.29.21-.44.29a6.12,6.12,0,0,0-1.3,1.08l-.37.31a.5.5,0,0,1-.21.09c-.29.07-.44,0-.47-.28a.36.36,0,0,1,.36-.45A2.56,2.56,0,0,0,105.89,92.86Zm.45,13.56a1.15,1.15,0,0,0,.09.26,2.54,2.54,0,0,0,.14-.25c.16-.44.3-.9.48-1.33a2.63,2.63,0,0,1,.68-1,.36.36,0,0,1,.36-.13c.15,0,.13.18.16.3a3.56,3.56,0,0,0,1.56,2.34.86.86,0,0,1,.37.5,5,5,0,0,1,.25,1.54,2.25,2.25,0,0,0,.06.36c0,.17,0,.24-.21.23l-.23,0c-.26-.07-.31-.14-.31-.41s0-.63,0-1a1.11,1.11,0,0,0-.08-.3c-.1-.22-.22-.27-.45-.17l-.18.06a1.92,1.92,0,0,1,0-.35c0-.26,0-.54-.2-.68a.78.78,0,0,0-.84.08,3.78,3.78,0,0,0-.92,1,3.38,3.38,0,0,0-.52,1.06,1,1,0,0,1-.07.17c-.13-.09-.12-.2-.14-.31-.08-.46-.14-.92-.24-1.37-.07-.3-.2-.58-.29-.87a1.44,1.44,0,0,1-.07-.5,3.26,3.26,0,0,1,.36-1.47,1.17,1.17,0,0,1,.62-.56,1.51,1.51,0,0,1,.4,0,1.4,1.4,0,0,1-.11.44,6.1,6.1,0,0,0-.55,1.26A2.65,2.65,0,0,0,106.34,106.42Zm-.08-4.16a1.27,1.27,0,0,1-.28.06c-.57,0-1.15.06-1.73.09-.23,0-.29,0-.31-.26s0-.31.27-.34q.69-.09,1.38-.15a.25.25,0,0,1,.19,0c.17.14.33.3.5.45A.3.3,0,0,0,106.26,102.26Zm-.8,1.37.2,0c.17.06.22.16.13.31a3.12,3.12,0,0,0-.43,1.76,2.08,2.08,0,0,0,.17.82,6.54,6.54,0,0,1,.42,1.85c0,.21-.06.28-.27.21a2.2,2.2,0,0,0-.81,0,2.38,2.38,0,0,1-.7-.07,2.75,2.75,0,0,0-1.77,0,4.48,4.48,0,0,0-.68.37c-.1,0-.19.11-.35.21a3.53,3.53,0,0,1,0-.39c.06-.29.11-.58.18-.87a5.69,5.69,0,0,1,1.17-2.45,4.83,4.83,0,0,0,.44-.64A2.36,2.36,0,0,1,105.46,103.63ZM102.57,117a2.58,2.58,0,0,0,1-1.14,6.52,6.52,0,0,0,.29-.73A5.48,5.48,0,0,0,104,112a3.14,3.14,0,0,1-.06-1.58,2.47,2.47,0,0,1,.68-1.27.87.87,0,0,1,.55-.24.37.37,0,0,1,.26.12s0,.17-.06.24c-.2.33-.43.64-.61,1a2.6,2.6,0,0,0-.37,1.15c0,.12,0,.24,0,.35l.1,0a5,5,0,0,1,1.59-2.25l.1,0c0,.11,0,.21,0,.32a2.84,2.84,0,0,0,.53,2,2.17,2.17,0,0,0,.57.47.84.84,0,0,1,.4.59,4.92,4.92,0,0,1,.17,1.79,4.3,4.3,0,0,1-1.73,3,1.79,1.79,0,0,1-1.38.32,9.05,9.05,0,0,1-2.24-.67C102.35,117.25,102.34,117.1,102.57,117Zm2.25,4.9a9.76,9.76,0,0,1,1.84-2.35,5.13,5.13,0,0,0,.54-.6.82.82,0,0,1,.78-.41c.44,0,.44,0,.58.34a1.6,1.6,0,0,1,0,1.16c-.18.53-.48,1-.7,1.49-.13.28-.22.57-.36.84a9.65,9.65,0,0,0-.37,1.3,1.68,1.68,0,0,0-.07.5c0,.42,0,.84,0,1.26a1.14,1.14,0,0,0,.47,1,1.68,1.68,0,0,0,.5.29,6.26,6.26,0,0,1,2,1.22,3.06,3.06,0,0,1,.82,1.11,3,3,0,0,1,.13,1,.48.48,0,0,1-.29.43c-.13.07-.22,0-.27-.08a4,4,0,0,1-.24-.57A3.35,3.35,0,0,0,109,128a2.44,2.44,0,0,0-.68-.35,6.74,6.74,0,0,1-2.29-1.14,4.36,4.36,0,0,1-.91-.86,3.48,3.48,0,0,1-.25-3.82Zm11.74-19.43a4,4,0,0,1-.57,1.08c-.26.33-.51.66-.75,1a4.22,4.22,0,0,0-.54,1.46,2.09,2.09,0,0,1-.82,1.29.51.51,0,0,1-.45.09c0-.21,0-.37.07-.54.06-.49.13-1,.16-1.49a2.81,2.81,0,0,1,.62-1.51c.3-.41.58-.83.85-1.27a.38.38,0,0,1,.34-.22,1.65,1.65,0,0,0,.79-.16.31.31,0,0,1,.28,0S116.59,102.34,116.56,102.42Zm-2.06-.5-.78,1.67c-.2.42-.41.83-.6,1.25-.13.27-.23.56-.34.84l-.27.66c-.2.49-.41,1-.62,1.46-.1.25-.17.51-.29.75a2.63,2.63,0,0,1-.4.53c-.14.13-.23.1-.34,0a.77.77,0,0,1-.14-.64,10.46,10.46,0,0,0,.12-1.11,2.34,2.34,0,0,0-.12-.7,7.91,7.91,0,0,0-.3-.9,5.24,5.24,0,0,0-1.24-1.67,8.26,8.26,0,0,0-1.49-1,6.36,6.36,0,0,1-2.14-2,7.82,7.82,0,0,1-.84-1.59,2.48,2.48,0,0,1-.32-1.23.49.49,0,0,0,0-.2,3.11,3.11,0,0,1,0-2,1.94,1.94,0,0,1,.29-.53,3.49,3.49,0,0,1,1.45-1.09,3.62,3.62,0,0,1,1.3-.18c.12,0,.25,0,.37,0a.35.35,0,0,0,.3-.5,9.16,9.16,0,0,0-.43-1,1.67,1.67,0,0,0-1.17-.84l-1.06-.26a1,1,0,0,1-.46-.37.5.5,0,0,1,.53-.07,4.06,4.06,0,0,0,1.09.22,1.87,1.87,0,0,1,1.24.57,2.25,2.25,0,0,1,.38.63.85.85,0,0,0,.58.53.81.81,0,0,1,.22.07c.16.08.2.2.08.33a.35.35,0,0,0-.14.39.57.57,0,0,0,.33.41c.19-.2.36-.41.56-.59a1.78,1.78,0,0,1,.89-.46l.09,0A3.79,3.79,0,0,1,113,93a2.66,2.66,0,0,1,1.19.53,4.2,4.2,0,0,1,1.11,1.23,4.41,4.41,0,0,1,.35.8,6,6,0,0,1,.21,2.72,2.41,2.41,0,0,1-.1.43l-.13.52c0,.06,0,.11,0,.17-.15.41-.3.82-.48,1.22s-.26.52-.39.78S114.58,101.75,114.5,101.92Zm3.82-14.47a12.51,12.51,0,0,1-1.69,1.8,2.49,2.49,0,0,1-.5.35.25.25,0,0,1-.24,0,.25.25,0,0,1,0-.24c.09-.28.2-.57.32-.85s.27-.52.38-.79a3.58,3.58,0,0,1,1.29-1.58,2.13,2.13,0,0,1,1.09-.34,1.47,1.47,0,0,0,.65-.15,5.83,5.83,0,0,1,.81-.25.51.51,0,0,1,.52.31A1.36,1.36,0,0,1,121,86c0,.21,0,.33-.18.39a1.32,1.32,0,0,1-.38.13,1,1,0,0,1-.34,0A2,2,0,0,0,118.32,87.45Zm.92,4.31a1.56,1.56,0,0,1,.68.69l-.74-.26a.61.61,0,0,1-.16-.12.2.2,0,0,1,0-.28C119,91.68,119.15,91.7,119.24,91.76ZM116.29,87c-.16.31-.35.61-.52.91a.46.46,0,0,0-.08.19c-.06.37-.34.51-.64.67a4.58,4.58,0,0,1-1.23.37,4.52,4.52,0,0,1-2.25,0l-.3-.08-.2-.14a.43.43,0,0,1,0-.11,1.67,1.67,0,0,1,.31,0c.25,0,.5,0,.75,0s.52-.07.77-.11.22-.07.33-.08a1.91,1.91,0,0,0,1.24-.63c.23-.23.45-.48.69-.71a4.78,4.78,0,0,1,.61-.48.56.56,0,0,1,.21-.09c.12,0,.28-.07.33.07A.45.45,0,0,1,116.29,87Zm-3.8,3.64a.79.79,0,0,1,.12.13s-.09.1-.13.11a2.84,2.84,0,0,0-1.06.59,3.18,3.18,0,0,1-1.63.5c-.25,0-.5,0-.75,0s-.37,0-.56,0a1.38,1.38,0,0,1-.28,0,.57.57,0,0,1,.49-.37,4.26,4.26,0,0,0,2-.87A1.52,1.52,0,0,1,112.49,90.59Zm10.45,2.84a7,7,0,0,1-1-.45,7.28,7.28,0,0,1-2-1.14,3.64,3.64,0,0,0-.49-.36l-.26-.16c-.21-.13-.23-.35,0-.43a1.92,1.92,0,0,1,1-.27c.59.08,1.2.12,1.78.25a3.45,3.45,0,0,1,1.51.74q.48.4.93.84a4,4,0,0,0,1.49,1.06s.06,0,.11.1a.33.33,0,0,1-.39.19A17.53,17.53,0,0,1,122.94,93.43Zm2.14-.88-.84-.89a4.08,4.08,0,0,0-1.92-1.1,6.75,6.75,0,0,0-1.67-.25l-.17,0s0,0-.11-.08.11-.22.2-.26a3.16,3.16,0,0,1,.72-.28,4.93,4.93,0,0,1,2.06,0,2.89,2.89,0,0,1,2,1.24,4.89,4.89,0,0,0,1.79,1.59c.34.2.71.34,1.07.52a.39.39,0,0,1,.14.08c.12.09.09.21,0,.26a.71.71,0,0,1-.2,0,5,5,0,0,1-1.89-.17A2.36,2.36,0,0,1,125.08,92.55Zm-4.26-11.71c0,.15.1.32-.06.44a.39.39,0,0,1-.48,0,1,1,0,0,1-.52-.75,4.56,4.56,0,0,0-.37-1.64s0,0,0-.09c.28-.1.57,0,.86,0l.94-.12c-.06.16-.08.26-.12.35A2.38,2.38,0,0,0,120.82,80.84Zm3.43,4.41a.92.92,0,0,1-.88.41,1.85,1.85,0,0,1-1.26-.72,3,3,0,0,1-.32-.59.82.82,0,0,1,.22-.93,2.81,2.81,0,0,1,.95-.68,1.1,1.1,0,0,1,1.27.46,1.43,1.43,0,0,1,.26,1A1.36,1.36,0,0,1,124.25,85.25Zm4.07,7.43a6.77,6.77,0,0,1-1.91-1.11,5.71,5.71,0,0,1-.55-.55c-.27-.32-.51-.66-.79-1a.94.94,0,0,1,.27-.09,13.3,13.3,0,0,1,2,0,6.25,6.25,0,0,1,3,1.26c.53.41,1,.88,1.5,1.33,0,0,0,.06.07.13a.62.62,0,0,1-.21.08c-.69.06-1.38.1-2.07.18A2.54,2.54,0,0,1,128.32,92.68Zm-2.71-6.53a2,2,0,0,1,.84-1.63,1.35,1.35,0,0,1,1.41,0,2.7,2.7,0,0,1,.81.77,1.33,1.33,0,0,1,0,1.78,2.29,2.29,0,0,1-.87.79.81.81,0,0,1-.62.08,2.07,2.07,0,0,1-1.42-1.07A2.42,2.42,0,0,1,125.61,86.15ZM131,91a.29.29,0,0,1-.34-.06,8.37,8.37,0,0,0-1.9-1c-.26-.1-.27-.18-.11-.39a3,3,0,0,1,3.15-1,11.15,11.15,0,0,1,2.85,1.24c.6.35,1.21.68,1.81,1,.24.14.48.3.71.45l.19.19-.37.2a7.54,7.54,0,0,1-1.78.57,2.23,2.23,0,0,1-1.53-.32c-.42-.23-.82-.52-1.25-.74A1.44,1.44,0,0,0,131,91Zm4.63-1.13c-.49-.29-1-.56-1.51-.83-.29-.15-.59-.28-.89-.42a.45.45,0,0,1-.12-.06c-.07-.07-.13-.15-.19-.22a.91.91,0,0,1,.23-.17A7.08,7.08,0,0,1,135.4,88a6.91,6.91,0,0,1,1.62.36,14.52,14.52,0,0,1,2.36,1.11l.26.17s.07.08.14.15c-.21.21-.4.44-.24.7a2.76,2.76,0,0,0,.55.52c-.05,0-.11.1-.16.1l-1.61.26a1.07,1.07,0,0,1-.76-.21C136.94,90.69,136.29,90.3,135.63,89.91ZM139,80.18a1.17,1.17,0,0,1,.08-.37.82.82,0,0,1,.14-.26,1.28,1.28,0,0,1,1.32-.25,1.44,1.44,0,0,1,1,1.44,1,1,0,0,1-1,1,1.56,1.56,0,0,1-1.09-.38A1.4,1.4,0,0,1,139,80.18Zm-2.18-1.92.12-.49a.93.93,0,0,1,.74-.58,1,1,0,0,1,1.06.5,1.28,1.28,0,0,1,.14.67v.42a.64.64,0,0,1-.64.62,1.71,1.71,0,0,1-1.08-.31A.85.85,0,0,1,136.78,78.26Zm-.7,2.06c.49,0,1,0,1.49,0a.68.68,0,0,1,.33.16,2.23,2.23,0,0,1,.69.86,4.14,4.14,0,0,0,1,1.36,3.37,3.37,0,0,1,.86,1,1.65,1.65,0,0,1,.06,1,.22.22,0,0,1-.13.15,2.5,2.5,0,0,1-1.86.13.47.47,0,0,0-.57.12,3.23,3.23,0,0,1-.75.57,1.21,1.21,0,0,1-1.65-.39.85.85,0,0,1,0-.87c.1-.22.23-.42.33-.63a.44.44,0,0,0-.07-.51.62.62,0,0,1-.19-.45l.28-.11c.28-.1.32-.2.14-.45a5.71,5.71,0,0,0-.38-.48,1,1,0,0,1-.18-1.05A.67.67,0,0,1,136.08,80.32ZM132.41,79a7,7,0,0,1,.42-1.07,2.07,2.07,0,0,1,.55-.63,1,1,0,0,1,1,0,1.85,1.85,0,0,1,1,1,1.47,1.47,0,0,1-.11,1.39,2.45,2.45,0,0,1-1,.86,2.2,2.2,0,0,1-.55.12,1.64,1.64,0,0,1-.83-.17A1.38,1.38,0,0,1,132.41,79ZM132,82.08a3.52,3.52,0,0,1,.71-.73,1.22,1.22,0,0,1,1-.18,1.76,1.76,0,0,1,.87.54,1,1,0,0,1,.23.69,1.2,1.2,0,0,1-.79,1.06c-.11,0-.22.08-.33.1a1,1,0,0,1-.39,0,2,2,0,0,1-1.34-.91A.49.49,0,0,1,132,82.08Zm.65,2a6.36,6.36,0,0,1,.7.33,1.68,1.68,0,0,1,.77,1,1.43,1.43,0,0,0,.08.22,1.15,1.15,0,0,1,0,.89,1.41,1.41,0,0,1-.42.64,1.63,1.63,0,0,1-.49.29c-.42.13-.81.39-1.24.28-.69.1-1-.29-1.35-.8a2.31,2.31,0,0,1-.17-1.83,1.59,1.59,0,0,1,.78-1A1.37,1.37,0,0,1,132.61,84.06Zm-1.3-1.82a2.22,2.22,0,0,1-.73,1.08.72.72,0,0,1-1-.07.39.39,0,0,1-.08-.14c-.11-.41-.2-.81-.3-1.22a2.57,2.57,0,0,1,.28-1,.62.62,0,0,1,.53-.37A1.25,1.25,0,0,1,131.31,82.24Zm-2.93-5.09a2.14,2.14,0,0,1,.61-.76,1.18,1.18,0,0,1,1.24-.06,1.6,1.6,0,0,1,.75,1.44,1.08,1.08,0,0,1-.66,1.08,1.29,1.29,0,0,1-.6.09,1.5,1.5,0,0,1-1-.31A1.33,1.33,0,0,1,128.38,77.15Zm.17,3.29a1.24,1.24,0,0,1,.28,1,1.76,1.76,0,0,1,0,.23,1.21,1.21,0,0,1-.89,1.13,3.47,3.47,0,0,1-1.23.22,1.66,1.66,0,0,1-1.34-1.07,1.93,1.93,0,0,1,.59-2,1.61,1.61,0,0,1,1.06-.39A1.67,1.67,0,0,1,128.55,80.44Zm-3.63-4a1.23,1.23,0,0,1,1-.3,3.19,3.19,0,0,1,.75.08,1.16,1.16,0,0,1,1,1.42,2.47,2.47,0,0,1-.85,1.34,2,2,0,0,1-.63.33.94.94,0,0,1-1-.32,1.4,1.4,0,0,1-.52-.91,3.09,3.09,0,0,0-.18-.59A2.12,2.12,0,0,1,124.92,76.47Zm-2.84,1.59a1.84,1.84,0,0,1,1.35-.61,1.39,1.39,0,0,1,.93.44.33.33,0,0,1,.11.16,1.88,1.88,0,0,0,.53,1.07.54.54,0,0,1,.07.56,4.37,4.37,0,0,1-1.6,2,1.34,1.34,0,0,1-1.66-.08,1.7,1.7,0,0,1-.69-1.48,2.28,2.28,0,0,1,.2-.82A2.91,2.91,0,0,1,122.08,78.06Zm-4.44-4.47.82-1a3.86,3.86,0,0,0,.77-1.27s0-.07.11-.14l.18.15a8.22,8.22,0,0,1,1.34,1.82,9,9,0,0,1,.58,1.44c.16.47.19,1,.31,1.42a1.83,1.83,0,0,1,0,1,2.54,2.54,0,0,1-.19.61,1.24,1.24,0,0,1-1.23.62,3.31,3.31,0,0,1-.77-.09,3.25,3.25,0,0,1-.74-.32c-.36-.19-.69-.43-1-.62a.31.31,0,0,1-.19-.39.61.61,0,0,0-.19-.67,1.34,1.34,0,0,1-.31-.73A2.32,2.32,0,0,1,117.64,73.59Zm-6.52,6.67a8.7,8.7,0,0,1,.13-.87c0-.16,0-.32.07-.47l.15-.63.09-.32.15-.45.09-.29.15-.44c0-.07.06-.13.08-.19l.44-1.31a6.65,6.65,0,0,1,.32-.92,3.55,3.55,0,0,0,.28-1.35c0-.3.16-.36.41-.2a2.54,2.54,0,0,1,.74.92c.3.5.56,1,.88,1.52a8.92,8.92,0,0,0,1.72,1.91c.61.54,1.19,1.12,1.77,1.69a2.62,2.62,0,0,1,.6,1.2,1.12,1.12,0,0,1-.3,1,2.19,2.19,0,0,1-1.19.79,2,2,0,0,1-1.19,0c-.46-.14-.76.09-.8.57s0,.68,0,1a2,2,0,0,1-.3.82.29.29,0,0,1-.16.12c-.26.08-.52.16-.78.22a.25.25,0,0,1-.21-.07.24.24,0,0,1,0-.21,8.66,8.66,0,0,0,.53-.86,3.89,3.89,0,0,0,.34-1.34c0-.06,0-.11,0-.27l-.37.38a1.54,1.54,0,0,1-1,.5,7.36,7.36,0,0,1-1.15,0,1.35,1.35,0,0,1-1-.67A3.06,3.06,0,0,1,111.12,80.26Zm.19,4.72a.84.84,0,0,1-.19.12,1.87,1.87,0,0,0-1.19,2.12c0,.19.11.22.29.13.4-.21.81-.4,1.2-.63a.66.66,0,0,0,.3-.38c.1-.62.58-.82,1.06-1a17.87,17.87,0,0,1,2.39-.52c.77-.15,1.54-.3,2.29-.5a8.79,8.79,0,0,0,3-1.39l.38-.27a.37.37,0,0,1,.16,0,1.56,1.56,0,0,1,0,.31c0,.14-.06.29-.07.43a1.37,1.37,0,0,1-1,1.2,7.39,7.39,0,0,1-2.59.49.7.7,0,0,0-.32.09,6.67,6.67,0,0,1-1.71.64l-1.29.33-.09,0a4.71,4.71,0,0,0-1,.39c-.42.22-.85.42-1.28.61-.7.3-1.42.54-2.13.81l-1.61.61c-.32.12-.64.24-1,.34a1.41,1.41,0,0,0-.51.28l0,.09a3.79,3.79,0,0,0,1.21.15l2.08-.32c.13,0,.3-.1.35.08s-.12.2-.23.25a5.54,5.54,0,0,1-.83.37c-.36.12-.73.19-1.09.3s-.57.2-.86.3c-.48.17-.65.11-.89-.32l0-.06c-.23-.43-.23-.43-.7-.25l-.1,0c-.39.12-.39.12-.43.51s-.16.36-.41.22a.61.61,0,0,1-.16-.12.57.57,0,0,0-.75-.06,10.24,10.24,0,0,1-1.81.84c-.34.13-.69.21-1,.31s-.85.25-1.27.39a10.33,10.33,0,0,0-1,.34c-.3.12-.58.29-.87.44a.69.69,0,0,0-.17.17c-.15.19-.15.26,0,.46s.13.38-.18.48a1,1,0,0,1-.33.06,9.23,9.23,0,0,0-1.94.37,5.05,5.05,0,0,1-.56.12.3.3,0,0,1-.24-.07.48.48,0,0,1,0-.29.33.33,0,0,1,.12-.15c.31-.3.62-.6.94-.89A2.2,2.2,0,0,0,96,91.73a1.49,1.49,0,0,1,.14-.35,3.22,3.22,0,0,1,.31.26,4.59,4.59,0,0,1,.33.44c.15.2.26.25.49.15l1.8-.85,1.15-.52a1.21,1.21,0,0,0,.62-.73,6.11,6.11,0,0,1,.36-.87A3.6,3.6,0,0,1,102.6,88a2,2,0,0,1,.76-.28.3.3,0,0,1,.37.15,1.14,1.14,0,0,1-.16.15,2.4,2.4,0,0,0-1.19,1.42,1.34,1.34,0,0,0-.07.4.34.34,0,0,0,.41.4,1.47,1.47,0,0,0,.52-.13c1.07-.53,2.17-1,3.27-1.41.68-.28,1.34-.57,2-.86l.89-.36a4,4,0,0,1-.28-.45,1.3,1.3,0,0,1,.12-1.12,2,2,0,0,1,1.32-1.1A.65.65,0,0,1,111.31,85Zm-5.4-8.66a2.44,2.44,0,0,1-.18-.89,3.21,3.21,0,0,1,.25-1.25c.14-.3.23-.61.34-.92a2.55,2.55,0,0,0,.14-.35,3.4,3.4,0,0,0,.09-.46c0-.21.11-.26.29-.16.81.46,1.63.89,2.41,1.37a2.44,2.44,0,0,1,1,1.1,6.28,6.28,0,0,1,.42,1.63c0,.18-.09.43-.16.66a2.31,2.31,0,0,1-.3.79,4.46,4.46,0,0,0-.31.52c-.13.26-.26.52-.37.79s-.13.21-.27.12c-.45-.26-.89-.54-1.35-.77a4.77,4.77,0,0,1-1.1-.89A3.8,3.8,0,0,1,105.91,76.32Zm-4.83,5.58a2.33,2.33,0,0,1,.08-.36c0-.26.1-.51.14-.77,0,0,0-.09,0-.13l.33-1.45a1,1,0,0,0,.07-.23,7.2,7.2,0,0,0-.06-2.27c0-.18-.08-.37-.12-.56a2.21,2.21,0,0,0-.08-.37,1.82,1.82,0,0,1-.17-.89c0-.5.35-.71.8-.47a2.24,2.24,0,0,1,.44.32,8.48,8.48,0,0,1,1.17,1.36A11.19,11.19,0,0,0,105,77.74a4.46,4.46,0,0,0,1,.67c.22.11.43.24.66.35s.55.24.83.36.62.25.93.39a3.38,3.38,0,0,1,.62.34,1.26,1.26,0,0,1,.6,1,3.27,3.27,0,0,0,.36,1.23,6.24,6.24,0,0,1,.28.76,1,1,0,0,1-.3,1,1.86,1.86,0,0,1-.92.55,1.24,1.24,0,0,0-.32.12,1.4,1.4,0,0,1-1.47-.34c-.07-.08-.11-.22-.29-.17a.77.77,0,0,0,.08.56,3.28,3.28,0,0,1,.15.51c0,.11,0,.23.07.34a2.78,2.78,0,0,1,.14,1.31,3,3,0,0,1-.28,1,1,1,0,0,1-.48.4c-.55.26-1.11.47-1.72.72a.79.79,0,0,1,.24-.43,10.45,10.45,0,0,0,.82-.81,2.39,2.39,0,0,0,.51-1.71,4.43,4.43,0,0,0-.06-.51c0-.21-.17-.26-.33-.11a.93.93,0,0,0-.13.15,3.62,3.62,0,0,1-1.32,1,1.92,1.92,0,0,1-1.45.18l-.33-.08a2.32,2.32,0,0,1-1.46-1A3.43,3.43,0,0,1,101,83.5C101,83,101.05,82.44,101.08,81.9Zm-4.73-.1a2.15,2.15,0,0,1-1.21-1.14A3.31,3.31,0,0,1,95,78.4a5,5,0,0,0,.11-.56,1.2,1.2,0,0,1,0-.2c.16-.46.33-.92.5-1.37a.87.87,0,0,1,.19-.28.22.22,0,0,1,.19-.08,5.83,5.83,0,0,1,.7.25c.22.08.43.18.65.28a7.34,7.34,0,0,1,2.43,1.8,4.42,4.42,0,0,1,1,1.82,1.21,1.21,0,0,1-.34,1.26.74.74,0,0,0-.18.93,4.19,4.19,0,0,1,.11,1.62c0,.18-.14.26-.34.29,0-.23,0-.44.06-.65a1.07,1.07,0,0,0-.32-.8,2.6,2.6,0,0,0-.9-.64.52.52,0,0,0-.36,0,1.65,1.65,0,0,1-1.29,0Zm-8.26-1.75a.94.94,0,0,1,1-.45,2.24,2.24,0,0,1,.65.34c.64.41,1.26.85,1.91,1.24a11.43,11.43,0,0,0,1.28.59c.29.13.58.26.88.37s.66.22,1,.33.64.22,1,.33l1,.38a5.38,5.38,0,0,1,.66.27,7.36,7.36,0,0,1,1.87,1.15,4.14,4.14,0,0,1,.85,1.17c.16.35.19.72.32,1.07a.61.61,0,0,1,0,.3,5.29,5.29,0,0,1-.31,1.35c-.1.2-.19.4-.28.61a1.86,1.86,0,0,1-.89.94,2,2,0,0,1-1.73.18,1.43,1.43,0,0,0-.37-.09c-.35,0-.5.08-.57.42a.66.66,0,0,0,0,.14c0,.28,0,.28-.3.35-.13,0-.25.09-.43.15a1.19,1.19,0,0,1,0-.33c.1-.27.2-.53.31-.79,0-.11,0-.11,0-.29-.21.29-.41.55-.59.84a2.88,2.88,0,0,1-1.41,1.13,2.31,2.31,0,0,1-1.52.11,4.16,4.16,0,0,1-2.48-1.93,2,2,0,0,1-.33-1.09,2.42,2.42,0,0,0,0-.47,12.16,12.16,0,0,1-.08-2.89c0-.32,0-.64.07-1a4.85,4.85,0,0,0-.23-1.82,2.35,2.35,0,0,0-.6-1,3.52,3.52,0,0,1-.69-.84A.69.69,0,0,1,88.09,80.05ZM89,104c.26,0,.51-.12.76-.16a5.65,5.65,0,0,1,.58,0l.85,0a1,1,0,0,0,.23,0l.45-.15a3.22,3.22,0,0,0,0-1.31l-.23.3a2.92,2.92,0,0,0-1.59-.44,3.12,3.12,0,0,1-2.57-1.54,1.81,1.81,0,0,1-.34-1,.59.59,0,0,0,0-.19l-.26.14-.56-.53a.92.92,0,0,0,.11.79,2.06,2.06,0,0,0,.57.57s.09,0,.11.07.12.16.1.22-.17.1-.26,0a2.37,2.37,0,0,1-.88-.87.33.33,0,0,1,0-.14l-.09-1a.48.48,0,0,1,0-.24c0-.08.07-.19.13-.21a.29.29,0,0,1,.2.12c.2.25.37.52.56.77a1,1,0,0,0,.17.13,2,2,0,0,0,0-.29c0-.48.06-1,.1-1.45a6.32,6.32,0,0,1,.06-.75,4.75,4.75,0,0,1,.14-.63c.09-.36.21-.71.3-1.07a1.88,1.88,0,0,0-.3-1.4c-.22-.38-.49-.73-.72-1.11A11.38,11.38,0,0,1,86,91.23a9.2,9.2,0,0,1-.32-1.14,1.87,1.87,0,0,1,0-1.17,5.83,5.83,0,0,1,.25-.81,7.54,7.54,0,0,1,.88-1.29,3.37,3.37,0,0,0,.66-1.24,3.74,3.74,0,0,0,.22-1c0-.06,0-.11.11-.21.06.09.13.14.14.2a1.55,1.55,0,0,1,0,.48c-.1.44-.23.87-.36,1.3s-.24.73-.37,1.09c0,.06,0,.11-.09.2l-.24-.2a.16.16,0,0,0-.07.07.3.3,0,0,0,.08.31c.17.23.15.41,0,.69-.19-.18,0-.45-.17-.66-.05,0-.12.07-.14.12a3.9,3.9,0,0,0-.2,2.69,4.37,4.37,0,0,0,1.07,1.8c.21.24.43.46.65.69a1.37,1.37,0,0,1,.43,1,5.43,5.43,0,0,1-.19,1.44A5.62,5.62,0,0,0,88,98.05a3.74,3.74,0,0,0,2,3,7.22,7.22,0,0,0,.81.33l.41.17c.14.06.29.12.43,0-.26-.18-.5-.35-.74-.54a6,6,0,0,1-1.86-2.43,5.05,5.05,0,0,1-.42-1.7A4.09,4.09,0,0,1,89,95.27a3.91,3.91,0,0,0,.36-1.16,1.79,1.79,0,0,0-.67-1.56c-.29-.26-.62-.49-.92-.74a5.25,5.25,0,0,1-.4-.42l0-.06c.28.17.56.31.82.49a5.76,5.76,0,0,1,1.48,1.39,2,2,0,0,1,.37,1.48,4.32,4.32,0,0,1-.32.89,3.61,3.61,0,0,0-.4,1.83,1.47,1.47,0,0,0,.33.8,11.62,11.62,0,0,0,1.6,1.76c.34.28.69.54,1,.81.14-.12.11-.29.1-.44a1.61,1.61,0,0,1,.83-1.49,2.16,2.16,0,0,1,1-.39,3.16,3.16,0,0,0,.5-.1l.29-.07a1.17,1.17,0,0,1,1.32.38,1.31,1.31,0,0,0,.24.23c.22.17.36.12.41-.14a.35.35,0,0,0,0-.17,4.74,4.74,0,0,0-.21-1.34,1.58,1.58,0,0,0-.52-.77,2.18,2.18,0,0,0-.78-.38,7.1,7.1,0,0,0-2.2-.18,1.81,1.81,0,0,1-.4,0,.32.32,0,0,1-.3-.32c0-.16.14-.17.26-.22a2.44,2.44,0,0,1,1.16-.2l.67.12c.05,0,.1,0,.16.06a4.68,4.68,0,0,1,2,.89,1,1,0,0,0,.21.1c.33.1.59,0,.61-.38a1.06,1.06,0,0,1,.32-.66,2.42,2.42,0,0,1,1.1-.81,2.52,2.52,0,0,1-.23.44.87.87,0,0,0-.18.6.9.9,0,0,1-.49.87l-.67.46a.41.41,0,0,0-.2.4c0,.39,0,.77.06,1.16a.6.6,0,0,0,.13.21c.06-.06.14-.11.17-.18a2.44,2.44,0,0,1,1.2-1.29,3.43,3.43,0,0,1,1.11-.29,5.11,5.11,0,0,1,1.55.15,2.14,2.14,0,0,1,1.3.84c.16.21.25.45.39.67a1,1,0,0,0,.2.2h0c.1-.25.35-.26.56-.3,0,0,.16.1.18.17a.28.28,0,0,1-.07.23.33.33,0,0,1-.38.06l-.29-.16h0a1.46,1.46,0,0,0,.2.81.29.29,0,0,1,0,.1c.06.46.15.92.18,1.38a3.81,3.81,0,0,1-.08.74,2.75,2.75,0,0,1-.09.5,3.55,3.55,0,0,1-.29.79c-.33.59-.7,1.15-1,1.74s-.56,1-.83,1.47a8.17,8.17,0,0,0-.38.79c-.13.36-.22.74-.32,1.1,0,.12-.06.25-.08.37l-.15.76a3.5,3.5,0,0,1-.13.56,2.94,2.94,0,0,1-.35,1c-.12.16-.21.35-.33.51a.36.36,0,0,1-.61,0,18.61,18.61,0,0,0-3-3.28c-.78-.72-1.6-1.38-2.37-2.09a16.35,16.35,0,0,1-1.22-1.28,3.08,3.08,0,0,1-.33-.59,1.86,1.86,0,0,1-.1-.2c-.05,0-.08,0-.08,0-.14.34-.15.35-.52.25a2.82,2.82,0,0,0-1.9,0,.93.93,0,0,1-.75,0C88.85,104,88.93,104,89,104ZM87.23,91.05c-.17,0-.23,0-.21-.1s.06-.06.06-.06Zm-.44-.74c.21.11.21.11.09.41C86.74,90.58,86.7,90.46,86.79,90.31Zm-.11-.4a1.16,1.16,0,0,1,0-1.11A2.31,2.31,0,0,1,86.68,89.91Zm-13.87,17a1.66,1.66,0,0,1,.3-.89.25.25,0,0,1,.32-.1,6.25,6.25,0,0,0,.62.16l.46.12.23.07c.5.1,1,.19,1.49.31s1.14.29,1.71.44a.39.39,0,0,1,.28.53.75.75,0,0,1,0,.16c-.12.35-.31.39-.62.21a9.2,9.2,0,0,0-1.17-.6,8.6,8.6,0,0,0-1.12-.36,4.25,4.25,0,0,0-.61-.08,3.89,3.89,0,0,0-1.38.34c-.11,0-.28.09-.34,0A.47.47,0,0,1,72.81,106.93Zm5,1.58a8.65,8.65,0,0,1-.24.89c-.26-.25-.46-.47-.68-.66a2.51,2.51,0,0,0-2.08-.61,4.14,4.14,0,0,0-1,.31c-.26.12-.5.29-.76.44s-.25.05-.25-.13,0-.58,0-.88a.3.3,0,0,1,.31-.3,5.46,5.46,0,0,1,.57,0,8.8,8.8,0,0,1,1.26,0,8.3,8.3,0,0,1,1.78.38,3.15,3.15,0,0,1,.85.34C77.75,108.34,77.85,108.44,77.84,108.51ZM72.91,112c-.09.24-.16.49-.25.74a.67.67,0,0,1-.11.18c-.17,0-.15-.17-.17-.28s-.08-.51-.13-.77a1.9,1.9,0,0,1,0-1.13.56.56,0,0,0,.07-.19c0-.37.23-.66.3-1a.5.5,0,0,1,.33-.32,5.83,5.83,0,0,1,2.09-.43,3.5,3.5,0,0,1,2.24.65c.09.07.1.07.1.34-.32,0-.61-.09-.9-.15a2.3,2.3,0,0,0-1,0,2.44,2.44,0,0,0-.9.29c-.18.13-.39.23-.55.37A3.81,3.81,0,0,0,72.91,112Zm5.68-1.29a.53.53,0,0,1-.06.61L78,112c0-.12,0-.18,0-.25s0-.32,0-.48-.16-.3-.38-.19-.51.24-.75.39a2.7,2.7,0,0,0-1.3,1.75,2.6,2.6,0,0,0,1,3.07,2.28,2.28,0,0,0,.61.29,6.91,6.91,0,0,1,1.16.48,1.14,1.14,0,0,0,.33.07c.43,0,.55-.11.39-.52a3.86,3.86,0,0,0-.53-1A2.3,2.3,0,0,1,78,114c0-.31,0-.61,0-.92a1,1,0,0,1,.11-.26.57.57,0,0,1,.22.11,3.77,3.77,0,0,0,.78.6,2.07,2.07,0,0,1,.89,1,.46.46,0,0,0,.08.19.26.26,0,0,0,.16.09.21.21,0,0,0,.13-.13.86.86,0,0,0,0-.23,2.84,2.84,0,0,1,.46-1.22,1.46,1.46,0,0,0,.07-.19,2.4,2.4,0,0,1,.65-1.25.9.9,0,0,0,.29-.73,1.64,1.64,0,0,1,.52-1.2.88.88,0,0,1,1-.19c.13.07.15.17,0,.31s-.21.24-.29.37a3,3,0,0,0-.47,1.75c0,.27,0,.54,0,.81a2.92,2.92,0,0,1-.26,1.4,4.06,4.06,0,0,1-.63.92,7.12,7.12,0,0,0-.93,1.25,9.78,9.78,0,0,0-.5,1c-.06.13,0,.25.14.25a2.43,2.43,0,0,0,.77-.08,5.43,5.43,0,0,0,2.06-1.62,5.24,5.24,0,0,0,.91-1.85,38.79,38.79,0,0,0,.11-1,5.83,5.83,0,0,0-.2-1.5.66.66,0,0,1-.05-.53c.2,0,.22.09.25.2s.09.26.14.38a1.8,1.8,0,0,1,.06,1.1,1.11,1.11,0,0,0,.12.72,1.73,1.73,0,0,1-.19,1.85,2.9,2.9,0,0,1-.73.71,2,2,0,0,0-.8,1.06,1,1,0,0,1-.79.61,4.5,4.5,0,0,0-.9.25,1.41,1.41,0,0,1-.77.09,1.81,1.81,0,0,1-1-.23.52.52,0,0,0-.33,0,1.46,1.46,0,0,1-1.18-.39,1,1,0,0,0-.56-.22,2.09,2.09,0,0,1-1.1-.39,8.25,8.25,0,0,1-.81-.62,1.56,1.56,0,0,1-.55-.84c-.1-.38-.29-.74-.37-1.12a10.74,10.74,0,0,1-.15-1.39,2.86,2.86,0,0,1,.06-.77,2.3,2.3,0,0,1,1-1.46,3.69,3.69,0,0,1,2-.58A1.06,1.06,0,0,1,78.59,110.73Zm-1.19,4.93c-.17,0-.22-.08-.19-.21a.14.14,0,0,1,.08,0C77.42,115.43,77.42,115.53,77.4,115.66Zm-.36-.83a.31.31,0,0,1,.11.4C76.92,115.11,76.92,115.11,77,114.83Zm-.16-.2c-.17-.06-.16-.2-.18-.33a1.37,1.37,0,0,1,.14-1A2,2,0,0,1,76.88,114.63Zm1.44-7.83c-.07.09-.15,0-.23,0s-.42-.27-.64-.39a5.83,5.83,0,0,0-2.9-.69c-.3,0-.61,0-.92,0a2.08,2.08,0,0,1-.39-.08.44.44,0,0,1,.4-.46,5.29,5.29,0,0,1,2.06,0,4.53,4.53,0,0,1,1.75.78c.27.2.53.43.79.64C78.32,106.65,78.41,106.7,78.32,106.8Zm.58-.06c-.11.13-.19.12-.3,0-.24-.33-.47-.66-.73-1a3.63,3.63,0,0,0-1.71-1.17,2.42,2.42,0,0,0-.47-.07,8.68,8.68,0,0,0-1,0,4.25,4.25,0,0,0-.77.23l-.37.1a1.14,1.14,0,0,1,1.23-1,5.08,5.08,0,0,1,1.67.27A5.77,5.77,0,0,1,78.9,106,.53.53,0,0,1,78.9,106.74Zm2-1.36c-.12.06-.18,0-.22-.13s-.11-.29-.16-.43l.09-.07a3.68,3.68,0,0,1,.35.33A.19.19,0,0,1,80.93,105.38Zm2.12,1.2a3.65,3.65,0,0,1-1.26-1.48,2.05,2.05,0,0,1-.11-.6,2.23,2.23,0,0,0-.53-1.26,3.78,3.78,0,0,0-1.44-1.16c-.31-.14-.62-.28-.93-.4a2.54,2.54,0,0,0-.47-.07,1.6,1.6,0,0,1-.37-.12,1,1,0,0,1,.85-.1,2.56,2.56,0,0,0,.46.11,3.07,3.07,0,0,1,1.85.84,6.5,6.5,0,0,1,1.25,1.42,2.11,2.11,0,0,1,.26.52c.13.38.25.77.37,1.16,0,.2.09.4.13.6A.6.6,0,0,1,83.05,106.58Zm.67-.69c0,.12-.07.24-.09.36a2.9,2.9,0,0,0,0,.34.23.23,0,0,1-.14-.36,2.36,2.36,0,0,0,0-1.53,3.78,3.78,0,0,0-.33-1.18c-.23-.4-.42-.82-.64-1.23a2.89,2.89,0,0,0-.88-1,2.66,2.66,0,0,0-1.66-.6,1,1,0,0,1-.24,0,3.87,3.87,0,0,0-1.86.45l0,0a1.39,1.39,0,0,1-.29.26,1.15,1.15,0,0,1-.38,0c0,.14,0,.24,0,.37l-.25.06c-.29,0-.35.13-.19.36l.68,1a14.06,14.06,0,0,0,1.71,2.06,5.57,5.57,0,0,0,.59.5.45.45,0,0,1-.74,0c-.3-.39-.6-.79-.91-1.17a3.12,3.12,0,0,0-1.35-1,3,3,0,0,0-1.64-.17.6.6,0,0,1-.52,0c0-.07.07-.14.11-.2l1-1.38a3,3,0,0,1,1-.94c.31-.18.63-.32.94-.47l.06,0a10.37,10.37,0,0,1,1.84-.29c.5,0,1,0,1.5,0s.81.1,1.21.15l.44.07.47.14a1,1,0,0,0,.23.08,3.25,3.25,0,0,1,1,.46,1.06,1.06,0,0,1,.47.68c0,.18.11.35.16.52s.09.26-.07.4c-.19-.2-.15-.51-.37-.69s-.34-.43-.54-.61a5.22,5.22,0,0,0-.67-.45,1.2,1.2,0,0,0-.76-.23c-.26,0-.53-.1-.82.08.09.07.13.12.18.15a3.65,3.65,0,0,1,1.64,1.85,3.24,3.24,0,0,1,.32,1.41c0,.37,0,.73,0,1.09A3.61,3.61,0,0,1,83.72,105.89ZM86,109.1c0,.12,0,.25,0,.38h-.07l-.06-.16c0-.16-.09-.33-.14-.49s0-.06,0-.09c0-.38-.28-.56-.54-.79-.42-.35-.79-.74-1.18-1.12a.27.27,0,0,1-.06-.23,1.2,1.2,0,0,1,.13-.31c.26-.49.55-1,.76-1.48a5.78,5.78,0,0,0,.27-1.18c0-.31,0-.31.15-.5.15,0,.15.17.16.27.09.73.21,1.46.25,2.19s0,1.41,0,2.11c0,.15-.06.32.09.43l.08,0,.27-1c0-.22.1-.44.13-.66a5.31,5.31,0,0,0,.1-.68c0-.43,0-.86,0-1.29a5,5,0,0,0-.57-2.18c-.06-.12-.15-.23,0-.4a.87.87,0,0,1,.21.15c.39.43.78.86,1.15,1.3s.74,1,1.09,1.44.68,1,1,1.52a.92.92,0,0,1,.08.27c-.15.09-.23,0-.31,0a3.43,3.43,0,0,0-1.37-.56,1.6,1.6,0,0,0-.44,0c-.38,0-.42,0-.56.42A8.13,8.13,0,0,0,86,109.1Zm3.12,5c0,.1,0,.2,0,.29l-.09,0c-.11-.11-.23-.2-.34-.32a23.21,23.21,0,0,1-1.8-2.38,3.67,3.67,0,0,1-.5-1.85,10.19,10.19,0,0,1,.42-3.29c0-.15.12-.2.28-.23a2,2,0,0,1,1.57.39,4.6,4.6,0,0,1,1.63,1.65,2.76,2.76,0,0,1,.4,1.18,1,1,0,0,1-.21.73,3.36,3.36,0,0,0-.24.29,3.42,3.42,0,0,0-.76,1.43A7.27,7.27,0,0,0,89.09,114.13Zm6.15,5.38a4.54,4.54,0,0,1-.53-.12,8.47,8.47,0,0,0-.88-.12c-.19,0-.31.08-.41.28a2.07,2.07,0,0,0-.2,1.12.73.73,0,0,1-.29.65.33.33,0,0,1-.49,0,1.48,1.48,0,0,1-.29-.37,3.17,3.17,0,0,1-.41-1.07,2.29,2.29,0,0,0-.07-.36c-.06-.24-.1-.49-.17-.72a4.63,4.63,0,0,0-.32-.86c-.32-.57-.69-1.12-1-1.67-.21-.33-.44-.66-.63-1a.88.88,0,0,1-.11-.45,9.64,9.64,0,0,1,.48-3,3.31,3.31,0,0,1,.51-.87,3.1,3.1,0,0,0,.62-1,.24.24,0,0,1,.06-.08l.07,0a.3.3,0,0,1,.08,0,21.55,21.55,0,0,0,1.87,2.59,9.1,9.1,0,0,0,1.32,1.45c.48.37,1,.7,1.48,1,.72.47,1.43.94,2.17,1.38.51.31,1.05.57,1.59.83a13.35,13.35,0,0,0,1.39.62c.32.13.67.19,1,.29l.18.08c0,.23-.22.23-.33.33s-.28.09-.42,0a.33.33,0,0,0-.18-.07,11.28,11.28,0,0,0-2.09-.27,3.42,3.42,0,0,1-1.33-.36c-.35-.16-.67-.36-1-.53a3.67,3.67,0,0,1-1-.77,4.29,4.29,0,0,1-1.07-1.52c0-.1-.11-.2-.22-.16a.3.3,0,0,0-.15.2,8,8,0,0,0-.19,1.69,3.33,3.33,0,0,0,.64,1.93,2.58,2.58,0,0,0,.54.45.62.62,0,0,0,.62,0,.58.58,0,0,1,.45,0,2.22,2.22,0,0,0,.76.18,1.58,1.58,0,0,1,.61.12v.1a3.63,3.63,0,0,1-.56.09C96.62,119.55,95.93,119.54,95.24,119.51Zm3.29-.64a4.24,4.24,0,0,1-1.49-.19,2.88,2.88,0,0,0-.69-.26,1.27,1.27,0,0,0-.47.07,2.56,2.56,0,0,1-1-1.25.36.36,0,0,1,0-.2c0-.1,0-.26.1-.29s.16.11.23.19a4.46,4.46,0,0,0,.58.57,7.15,7.15,0,0,0,1.25.73,3.18,3.18,0,0,0,1.1.32C98.34,118.56,98.37,118.61,98.53,118.87Zm-.34,17.88c-.31.17-.66.23-1,.39a.88.88,0,0,1-.29.07c-.64.09-1.28.17-1.92.29a2.63,2.63,0,0,0-.76.26.65.65,0,0,0-.21,1.08c.37.41.78.8,1.15,1.21a14.44,14.44,0,0,1,1,1.3,4.64,4.64,0,0,1,.52,1.13,1,1,0,0,1-.53,1.23,4.45,4.45,0,0,1-1.22.39,2.76,2.76,0,0,0-.76.34,5.71,5.71,0,0,0-.48.38c-.13.12-.13.2,0,.28a.69.69,0,0,0,.13.05.35.35,0,0,1,.06.63,1.06,1.06,0,0,1-.66.25,1.39,1.39,0,0,0-.82.16c-.17.11-.3,0-.41-.14-.29-.31-.3-.31-.67-.1a.5.5,0,0,1-.55,0c.06-.21.22-.24.37-.26a.91.91,0,0,0,.63-.36c.13-.17.27-.34.39-.52a4.81,4.81,0,0,1,2.32-1.69,1.45,1.45,0,0,0,.9-.78,1.36,1.36,0,0,0,0-1.21,2.75,2.75,0,0,0-.52-.66c-.31-.31-.65-.58-1-.86a2.7,2.7,0,0,1-.85-1.12,1.14,1.14,0,0,1,.17-1.09,2.43,2.43,0,0,1,1.25-1l1.36-.49a.86.86,0,0,0,.46-1.22,2.6,2.6,0,0,0-.72-.79l-.42-.35a1.7,1.7,0,0,1-.51-.9.91.91,0,0,1,0-.43A2.43,2.43,0,0,1,95.6,131a7.46,7.46,0,0,1,1.23-.77A5.57,5.57,0,0,0,98.52,129a1,1,0,0,0-.52-1.6,10.07,10.07,0,0,0-1.08-.28,2.74,2.74,0,0,1-1.86-1.52c-.13-.29-.27-.57-.38-.86a.9.9,0,0,1-.07-.37c0-.48,0-1,0-1.46a1.91,1.91,0,0,1,.13-.45c0-.1.06-.19.1-.29a4.32,4.32,0,0,1,1.25-1.85s.08,0,.17,0,0,.23,0,.34a3.69,3.69,0,0,0,.2,1.17c.1.29.15.6.27.9a3.54,3.54,0,0,0,1.55,1.86c.49.26,1,.48,1.49.71a5.85,5.85,0,0,1,2.27,1.56,2.16,2.16,0,0,1,.49.92c0,.2.13.39.15.59a2.28,2.28,0,0,1-.35,1.32,3.47,3.47,0,0,1-1.44,1.4,3.11,3.11,0,0,1-1.6.44c-.5,0-1,0-1.5,0a1.94,1.94,0,0,0-1.16.42c-.13.11-.26.22-.38.34a1.69,1.69,0,0,0-.2.28l1.45.8a3.06,3.06,0,0,1,1.34,1.39A1.59,1.59,0,0,1,98.19,136.75Zm3,2.88c-.33-.1-.67-.17-1-.29a.89.89,0,0,1-.58-.5c.1,0,.14,0,.15,0a2.1,2.1,0,0,0,1.27.46.89.89,0,0,1,.58.32.58.58,0,0,1,.05.74c-.14.19-.19.44-.41.56a1.47,1.47,0,0,1-.23.12,1.39,1.39,0,0,1,.08-.23l.36-.4A.52.52,0,0,0,101.2,139.63ZM99.73,136l0-.06a3.11,3.11,0,0,1,1.12-1c-.06.28-.32.39-.49.57S99.92,135.78,99.73,136Zm-.15,2.76c-.19-.13-.22-.24-.07-.39A.29.29,0,0,1,99.58,138.71Zm-.28-.9c-.15-.2-.1-.4,0-.68A.78.78,0,0,1,99.3,137.81Zm4.92-2.87a.65.65,0,0,1-.15.36,3.13,3.13,0,0,1-1.61,1,7.08,7.08,0,0,1-1.2.24,1.08,1.08,0,0,0-.29.09c-.34.12-.41.28-.3.63a2.52,2.52,0,0,0,1.15,1.38c.42.24.85.45,1.26.72a2.93,2.93,0,0,1,1,1.07.86.86,0,0,1,0,.59,1.18,1.18,0,0,1-.73.75c-.38.13-.75.29-1.14.4s-.58.18-.87.28a4,4,0,0,0-1,.5c-.46.32-.48.82.12,1.14a3.07,3.07,0,0,1,1.14.94,3.18,3.18,0,0,1,.47,2.59c0,.2-.08.4-.12.6a1.55,1.55,0,0,1-.05.23c-.2.47-.41.93-.6,1.4a1.77,1.77,0,0,0-.08.46c0,.24,0,.48,0,.72a1.45,1.45,0,0,1-.11.22,1.36,1.36,0,0,1-.28-1.47c.07-.21.12-.41.17-.62a1.31,1.31,0,0,1,.06-.27,3.89,3.89,0,0,0,.13-2.08,2.26,2.26,0,0,0-1.13-1.69c-.34-.21-.67-.46-1-.7a.63.63,0,0,1-.23-.6c0-.23.06-.45.09-.7l.29.06a5.8,5.8,0,0,1,1.29-1.28,3.57,3.57,0,0,1,1.46-.62,1.66,1.66,0,0,0,.7-.32.63.63,0,0,0,.1-1,3.16,3.16,0,0,0-1.22-.89,2.82,2.82,0,0,1-1.32-1.09,1.59,1.59,0,0,1,.22-2,6.79,6.79,0,0,1,1.37-.94c.16-.1.33-.19.49-.31a.36.36,0,0,0-.08-.68,1.42,1.42,0,0,0-1.05-.14c-.22.08-.37-.15-.28-.37a2.49,2.49,0,0,1,.34-.74.87.87,0,0,1,.84-.4.47.47,0,0,1,.16,0A3.4,3.4,0,0,1,104,134,1.67,1.67,0,0,1,104.22,134.94Zm7.74,8.25a2.68,2.68,0,0,1-1.19,1.42,2.76,2.76,0,0,0-1,1,3.14,3.14,0,0,0-.33.81,1.55,1.55,0,0,0,.05.6,6.17,6.17,0,0,1,.15.84c0,.64,0,1.29,0,1.93a2,2,0,0,1-.16.83,2.33,2.33,0,0,1-.28.65c-.17.21-.33.43-.51.63,0,0-.13.06-.2.08a.86.86,0,0,1-.07-.21c0-.41,0-.82.09-1.22a5.77,5.77,0,0,0-.12-1.9c-.08-.31-.25-.6-.36-.91a2.21,2.21,0,0,1,0-1.78,3.37,3.37,0,0,1,1-1.11,1.51,1.51,0,0,0,.3-.36,1.62,1.62,0,0,0-.88.45,3.06,3.06,0,0,0-1,1.64c0,.09-.07.17-.08.25a.94.94,0,0,0,0,.4c.08.3.2.58.3.87s.29.71.41,1.07a5.28,5.28,0,0,1,.17,1.73,1,1,0,0,1-.36.66.2.2,0,0,1-.15-.26,2.25,2.25,0,0,0-.45-1.53c-.35-.54-.73-1.06-1.09-1.59a2,2,0,0,1-.36-1.51,1.82,1.82,0,0,1,.19-.43,5.45,5.45,0,0,1,2.19-2.17,2.59,2.59,0,0,0,.56-.37.38.38,0,0,0,0-.64,1,1,0,0,0-.74-.36.51.51,0,0,1-.24,0,6.63,6.63,0,0,1-1.54-.68,3.31,3.31,0,0,1-1.21-1.33,2.82,2.82,0,0,1-.15-1.54,1.49,1.49,0,0,1,.33-.68,2.63,2.63,0,0,1,.89-.73c.09-.06.21-.12.25-.21a2,2,0,0,1,.89-.76,1.39,1.39,0,0,0,.56-.51,1.09,1.09,0,0,0,1-1.39.77.77,0,0,0-.9-.68c-.4,0-.8,0-1.19,0a.56.56,0,0,1-.51-.29,1.64,1.64,0,0,0-.85-.64,3.61,3.61,0,0,1-1.3-.72,1.32,1.32,0,0,0-.26-.12,3.57,3.57,0,0,0,.22.47,4.15,4.15,0,0,0,1.65,1.43c.24.12.5.2.75.3a1.21,1.21,0,0,1,.23.16.52.52,0,0,1-.58.05,9.38,9.38,0,0,1-1.36-.81,3.6,3.6,0,0,1-1.11-1.25,2.68,2.68,0,0,1-.39-1.45,4.12,4.12,0,0,1,.29-1.08c.06-.16.25-.29.4-.41a5,5,0,0,1,1.52-.86.9.9,0,0,1,.4,0,4.29,4.29,0,0,1,.6.13c.38.11.78.23,1.16.36s.59.22.88.34l1,.41.28.11a.52.52,0,0,1,.18.1c.08.08.2.19.19.28s-.18.16-.3.15a4.25,4.25,0,0,1-.6-.12,1.43,1.43,0,0,0-.22-.08,16.89,16.89,0,0,0-2.56-.31,1.65,1.65,0,0,0-1.57,1.23c0,.18-.09.36-.14.57a.47.47,0,0,0,.39-.24,3.38,3.38,0,0,1,1.55-1,2.51,2.51,0,0,1,1.75,0c-.09.16-.22.14-.33.16a2,2,0,0,0-1.38.84,1,1,0,0,0,0,1,1.82,1.82,0,0,0,.79.81,1.24,1.24,0,0,0,1.08,0l1-.33a1.13,1.13,0,0,1,1,.26,2.34,2.34,0,0,1,.93,1.06,2,2,0,0,1,.14.55c0,.22,0,.43,0,.65a2,2,0,0,1-.79,1.55,3.27,3.27,0,0,0-.76.77c-.16.27-.32.26-.52,0l-.15-.17h-.08a2.67,2.67,0,0,0-1.1,1.29.7.7,0,0,0,.46.92c.42.14.84.32,1.27.44a5.8,5.8,0,0,1,1.14.5,1.39,1.39,0,0,1,.8.95,1.86,1.86,0,0,0,.1.25A1.13,1.13,0,0,1,112,143.19ZM106.83,135s0,0,.06-.09.06.07.07.11l-.06,0A.14.14,0,0,1,106.83,135Zm.3.13c.21.38.56.58.62,1A1.77,1.77,0,0,1,107.13,135.08Zm15.22,1.56a.34.34,0,0,1-.59.2c-.77-.61-1.55-1.21-2.31-1.84a47.8,47.8,0,0,1-3.77-3.48,30.3,30.3,0,0,1-2.82-3.28,14,14,0,0,1-1.47-2.47,6.29,6.29,0,0,1-.56-1.85c-.06-.57-.16-1.14-.24-1.71a1.33,1.33,0,0,1,0-.2l.08-.05a1.81,1.81,0,0,1,.19.29c.26.69.48,1.39.77,2.06a13.79,13.79,0,0,0,.8,1.46,27,27,0,0,0,5.88,6.64c1.17,1,2.3,2,3.45,3.08a5.23,5.23,0,0,1,.48.56A.69.69,0,0,1,122.35,136.64Zm2-37c-.38.12-.77.18-1.16.28s-.93.28-1.4.39-1,.17-1.44.25a5,5,0,0,0-.67.13c-.63.19-1.25.41-1.87.61s-1.12.37-1.69.52a7.24,7.24,0,0,1-1,.15,1,1,0,0,1-.23,0,.92.92,0,0,1,.13-.6.48.48,0,0,1,.47-.22c.43,0,.86,0,1.29,0a3.69,3.69,0,0,0,.74-.12l1.17-.35c.44-.14.88-.3,1.32-.45.1,0,.2-.08.18-.21s-.13-.16-.26-.15a.38.38,0,0,1-.19,0,.33.33,0,0,1-.14-.21.25.25,0,0,1,.17-.12,8,8,0,0,1,.85,0c.28,0,.31,0,.35-.24a1,1,0,0,1,.32-.58.57.57,0,0,1,.43-.17h1.13a.84.84,0,0,0,.69-.2s.15,0,.22,0,0,.19,0,.24a1.17,1.17,0,0,1-.88.51c-.29,0-.57,0-.85,0a1.19,1.19,0,0,0-.42.11.27.27,0,0,0-.15.34.23.23,0,0,0,.28.15l1.39-.15c.31,0,.63-.06.94-.11s.4-.07.6-.11a1,1,0,0,1,.23-.07,3.14,3.14,0,0,0,1.24-.3,3.68,3.68,0,0,0,1.72-1.26.83.83,0,0,0-.29,0,7.84,7.84,0,0,1-1.37.23.72.72,0,0,0-.36.23,1.08,1.08,0,0,1-1.1.19l-.45-.23c-.13-.07-.14-.19,0-.26a.59.59,0,0,1,.32-.09,2.43,2.43,0,0,0,1-.26c.34-.11.66-.24,1-.36a1.17,1.17,0,0,1,1,.08l.35.13c.23.11.28.32.1.49a.35.35,0,0,0-.11.42.35.35,0,0,0,.36.26,1.5,1.5,0,0,0,.37,0l1-.2.13,0c.18-.09.21-.18.1-.35l-.13-.15c.17-.55.17-.55-.42-.94.09-.14.24-.11.36-.13l2.46-.37a2.07,2.07,0,0,0,.71-.22c-.33-.23-.69-.1-1-.25a.35.35,0,0,1,.22-.35c.29-.19.6-.34.87-.54a3.05,3.05,0,0,0,.47-.48s0-.08,0-.12-.19-.07-.28,0a3.61,3.61,0,0,1-1.57.67,9.24,9.24,0,0,1-1.55.24h-.17a4.73,4.73,0,0,0-1.91.21,5.89,5.89,0,0,0-1,.33,1.39,1.39,0,0,1-1.13,0c.06,0,.12-.09.18-.09a2.41,2.41,0,0,0,1-.28,6.62,6.62,0,0,1,1.06-.36,23.53,23.53,0,0,1,2.8-.57c.7-.08,1.4-.25,2.1-.38a1,1,0,0,1,.54,0,.36.36,0,0,0,.22,0,3,3,0,0,1,.47-.18,11.22,11.22,0,0,0,1.62-.49A8.29,8.29,0,0,1,137,93c.46-.07.92-.13,1.38-.17.26,0,.52,0,.79,0l.39-.06a.58.58,0,0,1,.74.51,2.3,2.3,0,0,1,0,.37c0,1,0,2,0,3.07a1.59,1.59,0,0,1-.47,1.19c-.19.19-.32.19-.58,0a1.21,1.21,0,0,1,.16-.16,1.54,1.54,0,0,0,.47-1.26c0-.48,0-1,0-1.46s0-1,.06-1.43a.57.57,0,0,0-.44-.6c-.19,0-.29.06-.27.24.06.83.12,1.66.19,2.48,0,.38,0,.43-.39.46s-.52,0-.73.2c0,0-.17,0-.24,0a1,1,0,0,1-.29-.16,1.16,1.16,0,0,0-.47,1c0,.22.11.31.33.28a1.57,1.57,0,0,0,.29-.08c.12,0,.24-.07.37-.09s.38,0,.4.16a.48.48,0,0,1-.31.43.76.76,0,0,1-.3,0,10.13,10.13,0,0,0-2.75,0l-.48,0c-.92.11-1.85.19-2.77.32-.64.09-1.27.24-1.91.36s-1.35.26-2,.33c-.87.1-1.73.28-2.59.42a1.86,1.86,0,0,1-.34,0A2.61,2.61,0,0,0,124.37,99.62Zm3.8-2.62c.05-.06.08-.15.14-.16a1.82,1.82,0,0,1,.4,0c-.08.2-.2.29-.35.29S128.23,97.05,128.17,97Zm-2,7.36a1.56,1.56,0,0,1-1,0c0-.33.43-.41.43-.76l-.36.06a.17.17,0,0,1-.21-.12.57.57,0,0,1,.4-.78,1.79,1.79,0,0,1,1.1,0c.33.09.4.07.61-.19s.59-.72.87-1.08a1.57,1.57,0,0,1,.63-.51,5.45,5.45,0,0,0,.62-.35c.09,0,.18-.1.29,0q-.15.25-.33.51l.08.07,1.08-.61.28.33-.39.48a.47.47,0,0,0,.2,0l1.59-.37a1.62,1.62,0,0,1,.87.06c.46.15.94.24,1.4.39a7.63,7.63,0,0,1,1.83.63,2.11,2.11,0,0,0,2.31,0c.36-.22.53-.21.72.15a1.85,1.85,0,0,1,.21.68,5.16,5.16,0,0,0,.18,1.1.56.56,0,0,1,0,.49.84.84,0,0,1-.24.16,2.39,2.39,0,0,1-.13-.21c0-.11,0-.23-.06-.34a1.06,1.06,0,0,0-.85-.69l-1.44-.41-1.21-.33-1-.27a15.39,15.39,0,0,0-2.52-.33,4.72,4.72,0,0,0-1.76.1,1.53,1.53,0,0,0-.48.23,9.11,9.11,0,0,1-2.28,1.27Zm1.61,3.15c-.13,0-.28,0-.35-.1a.3.3,0,0,1,.1-.37l.44-.32a9.39,9.39,0,0,1,.93-.62,6.12,6.12,0,0,1,1.11-.4,2,2,0,0,0,.78-.39c.16-.11.3-.24.47-.34a1.88,1.88,0,0,1,.74-.31,4.07,4.07,0,0,0,.86-.32,2.18,2.18,0,0,1,1.13-.15.42.42,0,0,1,.32.67,2.12,2.12,0,0,1-.15.21l-3.67,1.36c-.68.28-1.35.57-2,.84C128.2,107.36,128,107.44,127.74,107.51Zm4.87,3.63a.59.59,0,0,1-.2-.08,7.11,7.11,0,0,0-1.72-.63,3.54,3.54,0,0,1-1.79-1.17c-.05-.06-.1-.18-.07-.23a.28.28,0,0,1,.24-.13,4.48,4.48,0,0,1,.71.22.73.73,0,0,1,.27.2.84.84,0,0,0,.59.21,2.67,2.67,0,0,1,2.1.93,1.73,1.73,0,0,1,.19.28C133,111,132.92,111.15,132.61,111.14Zm.52-1.39a4.34,4.34,0,0,1-1.13-.21,5.59,5.59,0,0,1-1.83-1,1.78,1.78,0,0,1-.52-.66.47.47,0,0,1,.06-.54,3.51,3.51,0,0,1,.44-.42c.17-.14.35-.26.53-.39l3.62-1.34c.26.09.35.21.3.48s-.11.49-.16.73-.11.53-.16.8c-.15.68-.29,1.37-.46,2A.59.59,0,0,1,133.13,109.75Zm3.73,17.3a.72.72,0,0,1-.56.34c-.27-.1-.56-.17-.82-.29A.62.62,0,0,0,135,127a1.72,1.72,0,0,1-1.59-.83.36.36,0,0,1,.06-.44,1,1,0,0,1,.36-.24,3.24,3.24,0,0,1,1.58-.09,2.23,2.23,0,0,1,1.25.87s.07.11.11.17A.52.52,0,0,1,136.86,127.05Zm-1-4.94a2,2,0,0,1,1.33.46,2.71,2.71,0,0,1,.35.41.29.29,0,0,1,0,.38.34.34,0,0,1-.37.1c-.24-.07-.48-.13-.71-.22a1.35,1.35,0,0,0-.77,0l-1,.26a.8.8,0,0,1-.3,0,.33.33,0,0,1-.23-.52A1.67,1.67,0,0,1,135.82,122.11Zm6.43-2.18a4.09,4.09,0,0,1-.68.7,1,1,0,0,1-1,0,5.12,5.12,0,0,1-1.77-1.29,1.19,1.19,0,0,0-.95-.36.48.48,0,0,0-.38.26,2.14,2.14,0,0,1-1.24.84,1.49,1.49,0,0,1-1.6-.5,2.42,2.42,0,0,1-.56-1.53,1.47,1.47,0,0,1,.89-1.38,2.61,2.61,0,0,1,1.08-.27,1.56,1.56,0,0,1,1.4,1,1.27,1.27,0,0,0,.92.82c.2.07.35-.07.51-.15a.75.75,0,0,0,.48-.73c.08-1.47.2-2.94.3-4.42,0-.14,0-.29,0-.47a4.87,4.87,0,0,0-.29-1.53,8.32,8.32,0,0,1-.32-1,3.74,3.74,0,0,1,.08-1.82,8.53,8.53,0,0,0,.09-2.2,1.66,1.66,0,0,0-.1-.29.26.26,0,0,1,.11-.35.25.25,0,0,1,.34,0,.63.63,0,0,1,.22.44c.08.54.13,1.09.26,1.61a25.06,25.06,0,0,1,.39,2.87c.13,1,.19,2,.3,3,.07.62.16,1.23.24,1.85l.33,2.43a.92.92,0,0,0,.35.63,3.25,3.25,0,0,1,.65.78A.87.87,0,0,1,142.25,119.93Z" transform="translate(-14.27 -20.9)"/><path class="cls-2" d="M100.49,103.11c-.17-.08-.31-.14-.43-.21l-.64-.32a.19.19,0,0,0-.18,0,.22.22,0,0,0,0,.18,11.38,11.38,0,0,0,.8,1.6,3.93,3.93,0,0,1,.45,1.13,1.11,1.11,0,0,1,0,.48,8.67,8.67,0,0,1-.33,1.1c-.16.42-.35.83-.55,1.23a6.8,6.8,0,0,1-.46.79c-.13.2-.25.21-.41,0-.44-.44-.88-.89-1.31-1.34a2.4,2.4,0,0,1-.54-1,.75.75,0,0,1,0-.3,5.69,5.69,0,0,1,.76-1.84,1,1,0,0,0,.15-.57c0-.22-.15-.29-.35-.2l-.54.28a.26.26,0,0,1-.34-.05,2.11,2.11,0,0,1-.46-.89c-.06-.16-.1-.32-.15-.48a2,2,0,0,1,0-1.11,2.69,2.69,0,0,1,.89-1.33,1,1,0,0,0,.17-.19.59.59,0,0,0-.82-.26,3.63,3.63,0,0,0-1,.68c-.18.15-.17.24-.07.45a.86.86,0,0,1,.13.41c0,.43,0,.86,0,1.29a1.09,1.09,0,0,0,.27.84,2.51,2.51,0,0,1,.36.64.75.75,0,0,1-.11.72c-.07.11-.17.11-.25,0a2.26,2.26,0,0,1-.16-.26,2.35,2.35,0,0,0-.3-.45,2.5,2.5,0,0,1-.71-1.35,1.86,1.86,0,0,0-.2-.43c-.1-.22-.1-.33,0-.47a.52.52,0,0,0,.13-.72,1.34,1.34,0,0,1,0-1.2,3.31,3.31,0,0,0,.12-.7c0-.09,0-.19,0-.27a.28.28,0,0,1,.13-.18.31.31,0,0,1,.2.07c.06,0,.08.11.12.17.16.23.27.24.44,0a1.8,1.8,0,0,1,.19-.2.35.35,0,0,1,.49,0c.33.22.65.46,1,.67s.56.16.74-.26a3,3,0,0,1,.45-.82.83.83,0,0,1,1.22-.09.84.84,0,0,1,.07,1l0,0c-.39.43-.35.43-.08.92a3.35,3.35,0,0,0,.54.7,1.76,1.76,0,0,1,.46,1c0,.28.1.56.14.84A1.12,1.12,0,0,1,100.49,103.11Z" transform="translate(-14.27 -20.9)"/><path class="cls-2" d="M92.06,101.89a.92.92,0,0,1,0-.73A.54.54,0,0,1,92.06,101.89Z" transform="translate(-14.27 -20.9)"/><path class="cls-2" d="M111.39,106.47a4.38,4.38,0,0,1-.2-1c0-.32,0-.64,0-1a3.53,3.53,0,0,0-.21-1.47.14.14,0,0,1,0-.06l-.3-1.6c-.05-.31-.12-.62-.16-.94a5.51,5.51,0,0,1-.08-.71c0-.25,0-.5,0-.75a3.25,3.25,0,0,0-.19-1.06,6.61,6.61,0,0,1-.26-1.25,4.73,4.73,0,0,0-.2-1.24c-.12-.26,0-.49.18-.69a2.55,2.55,0,0,1,.41-.46,1.19,1.19,0,0,1,.8-.32,1.56,1.56,0,0,1,1.07.26.87.87,0,0,1,.33.71.58.58,0,0,1-.3.46.51.51,0,0,0-.13.82,3.37,3.37,0,0,0,.28.38,2.85,2.85,0,0,1,.63,1.19c.08.36,0,.56-.43.6s-.53.29-.28.62a4.1,4.1,0,0,0,.5.52,1.26,1.26,0,0,1,.24,1.52,6.87,6.87,0,0,0-.63,1.92,10.93,10.93,0,0,1-.24,1.27,1.64,1.64,0,0,1-.26.55,1.66,1.66,0,0,0-.24.8,4.46,4.46,0,0,1-.18.72S111.49,106.38,111.39,106.47Z" transform="translate(-14.27 -20.9)"/><path class="cls-2" d="M108.67,138.24l-.26.28-.74.84a.76.76,0,0,0-.08.11c-.26.42-.17.65.3.82s.94.38,1.41.58c0,0,0,0,0,.07a.35.35,0,0,1-.4.06c-.48-.15-1-.29-1.45-.48a1.51,1.51,0,0,1-.74-.51.47.47,0,0,1,0-.59,3,3,0,0,1,1.06-1,3.42,3.42,0,0,1,.59-.26.84.84,0,0,1,.27,0S108.65,138.21,108.67,138.24Z" transform="translate(-14.27 -20.9)"/><path class="cls-2" d="M110.2,136.92a.63.63,0,0,1,0-.22,2.06,2.06,0,0,0-.77-1.89.89.89,0,0,1-.21-.26.28.28,0,0,1,0-.24.22.22,0,0,1,.23-.06.56.56,0,0,0,.64,0s.18,0,.23.07a1.75,1.75,0,0,1,.53,1.73A1.44,1.44,0,0,1,110.2,136.92Z" transform="translate(-14.27 -20.9)"/><path class="cls-2" d="M109.19,142.05c.1,0,.19-.06.24,0,.37.19.8.2,1.17.43a.49.49,0,0,1,.27.5.73.73,0,0,1-.38.6s-.21-.05-.21-.09c-.09-.62-.59-.9-1-1.27C109.25,142.16,109.24,142.12,109.19,142.05Z" transform="translate(-14.27 -20.9)"/><path class="cls-2" d="M90.16,86.72c0-.43,0-.86,0-1.29,0-.26.1-.52.12-.77a4.93,4.93,0,0,0,.06-1.08,2.4,2.4,0,0,0-.54-1.08,10,10,0,0,1-.56-1,.6.6,0,0,1,0-.42c.07-.18.25-.18.36,0s.21.32.33.47a1.66,1.66,0,0,0,1.31.62,4.26,4.26,0,0,1,2,.65l.59.36a1.17,1.17,0,0,1,.56.94c.09.67.16,1.34.3,2a5.69,5.69,0,0,0,1,2.31.48.48,0,0,1,.11.47.33.33,0,0,1-.18.22,4.69,4.69,0,0,0-1.38,1,6.82,6.82,0,0,1-1,.82,1.63,1.63,0,0,1-2.28-.46A3,3,0,0,1,90.31,89,14.81,14.81,0,0,1,90.16,86.72Z" transform="translate(-14.27 -20.9)"/><path class="cls-2" d="M98.59,88.57l.15-.29a1.59,1.59,0,0,0,.07-1.5,2.69,2.69,0,0,0-1.51-1.52,5.79,5.79,0,0,1-1.3-.79,2.84,2.84,0,0,0-1.06-.59s-.07,0-.13-.09a.49.49,0,0,1,.58-.05,4.44,4.44,0,0,1,.75.46,2.65,2.65,0,0,0,1,.47,4.5,4.5,0,0,1,1.18.59,2.45,2.45,0,0,1,.91.84,2,2,0,0,1,.25,1.44,1.59,1.59,0,0,1-.57,1C98.79,88.61,98.71,88.68,98.59,88.57Z" transform="translate(-14.27 -20.9)"/><path class="cls-2" d="M110,110.48a4,4,0,0,0,.35.23,1.69,1.69,0,0,0,.81.24.67.67,0,0,1,.52.21.28.28,0,0,1,0,.44.83.83,0,0,1-1.32,0,7.23,7.23,0,0,1-.42-.89S110,110.6,110,110.48Z" transform="translate(-14.27 -20.9)"/><path class="cls-2" d="M96,121.23c0,.14,0,.24.08.34.13.46.26.91.4,1.37a5.64,5.64,0,0,0,.55,1.23,4.27,4.27,0,0,0,1.56,1.57l1.65,1a4.05,4.05,0,0,1,1.44,1.41,1.51,1.51,0,0,1-.26,1.89,4.32,4.32,0,0,1-2,1,8.91,8.91,0,0,1-1.93.2,2.79,2.79,0,0,0-1.14.29.87.87,0,0,0-.38,1.34c.27.35.58.69.88,1a4.42,4.42,0,0,1,.56.67,1.29,1.29,0,0,1,0,1.3,2.09,2.09,0,0,1-1.17.89c-.45.16-.9.29-1.36.44a2.34,2.34,0,0,0-.94.51.45.45,0,0,1-.12.06h-.1c-.06-.14,0-.22.11-.29.37-.23.72-.47,1.1-.68a8.51,8.51,0,0,1,1-.45,1.23,1.23,0,0,0,.49-2.08c-.19-.22-.44-.39-.64-.6a5.68,5.68,0,0,1-.5-.6,1,1,0,0,1,0-1.09,2.06,2.06,0,0,1,1-.9c.36-.18.73-.31,1.08-.49.56-.28,1.11-.57,1.64-.89a3.71,3.71,0,0,0,.77-.6,1.33,1.33,0,0,0,.3-.56.81.81,0,0,0-.29-.76,6.69,6.69,0,0,0-1-.79c-.51-.34-1-.63-1.56-1a3.37,3.37,0,0,1-1.3-1.45,3.27,3.27,0,0,1-.3-1,12.51,12.51,0,0,1,0-1.62A1.06,1.06,0,0,1,96,121.23Z" transform="translate(-14.27 -20.9)"/><path class="cls-2" d="M102.1,75.91c.15.16.32.31.47.47a16.33,16.33,0,0,0,2.22,2.1,8.89,8.89,0,0,0,1.2.69,14.06,14.06,0,0,1,2.47,1.41,2,2,0,0,1,.36.35.39.39,0,0,1-.12.65c-.29.15-.6.26-.9.38a1.14,1.14,0,0,0-.78,1.11v.1c0,.92,0,.69-.63,1.14a11.58,11.58,0,0,1-1.13.67.78.78,0,0,1-.33.09,8,8,0,0,1-1,0,1.43,1.43,0,0,1-1.19-1,2.94,2.94,0,0,1-.16-1.17c0-.23.06-.45.1-.68.13-.82.29-1.65.39-2.48a4.4,4.4,0,0,0-.23-2,5.91,5.91,0,0,0-.77-1.5A.74.74,0,0,1,102,76,.27.27,0,0,1,102.1,75.91Zm1.64,2.9-.11.06c0,.11,0,.22,0,.32,0,.39,0,.77-.09,1.15s-.06.5-.09.74a1.45,1.45,0,0,1-.06.3,4,4,0,0,0-.2,1.71,1.29,1.29,0,0,0,.2.7,1.32,1.32,0,0,0,1.46.67.9.9,0,0,0,.54-.18,1.12,1.12,0,0,0,.35-1.2,7.61,7.61,0,0,0-.31-1c-.23-.44-.35-.93-.57-1.37s-.59-1.11-.9-1.66C103.91,78.93,103.81,78.88,103.74,78.81Z" transform="translate(-14.27 -20.9)"/><path class="cls-2" d="M92.56,120.34a5.78,5.78,0,0,1-.23-.91,4.36,4.36,0,0,0-.62-1.64c-.27-.51-.53-1-.79-1.53a2.64,2.64,0,0,1-.07-.3c0-.19-.09-.37-.14-.56,0,0,0,0,0-.06A11.42,11.42,0,0,1,90.4,113s0-.07,0-.1.1-.14.14-.21.14.09.17.15a4.55,4.55,0,0,0,.92,1.25,9.94,9.94,0,0,1,.88,1.17,2.73,2.73,0,0,1,.38,1.25,8,8,0,0,1-.14,2.34,5.06,5.06,0,0,0-.07.88l-.06.59Z" transform="translate(-14.27 -20.9)"/><path class="cls-2" d="M79.74,116.87a.3.3,0,0,1-.17-.36,2.12,2.12,0,0,0-.2-1,1.29,1.29,0,0,0-.28-.38,2.2,2.2,0,0,1-.72-1.38c0-.06,0-.16,0-.18a.28.28,0,0,1,.22,0,2.93,2.93,0,0,1,1.27,2.18A4.25,4.25,0,0,1,79.74,116.87Z" transform="translate(-14.27 -20.9)"/><path class="cls-2" d="M114.38,75c.06.17.11.34.18.5A3.39,3.39,0,0,0,115.9,77a13.15,13.15,0,0,1,1.25,1,1.1,1.1,0,0,1,.39.63.78.78,0,0,1-.26.88l-.38.29a.8.8,0,0,0-.35.95,2.56,2.56,0,0,1,0,.27c0,.3-.07.46-.37.49a1.61,1.61,0,0,1-1.15-.17c-.23-.17-.3-.13-.53.07s-.2.18-.3.27a1.25,1.25,0,0,1-1.15.3,1.7,1.7,0,0,1-.94-.64,1.72,1.72,0,0,1-.15-1.85,7.8,7.8,0,0,1,1.14-1.76,6.06,6.06,0,0,0,1-1.86,1.83,1.83,0,0,0,0-.47c0-.13,0-.25,0-.38Z" transform="translate(-14.27 -20.9)"/><path class="cls-2" d="M107.16,119.83a.25.25,0,0,1,.06.4,2.44,2.44,0,0,0-.46,1.43,3.78,3.78,0,0,1-.13.56c-.12.48-.25,1-.37,1.44a2,2,0,0,1,0,.24,2.38,2.38,0,0,0,.19,1.68.2.2,0,0,1,0,.09c-.05,0-.12,0-.15,0a3.43,3.43,0,0,1-1-.74,2.52,2.52,0,0,1-.37-2.14,2.62,2.62,0,0,1,.75-1.16c.31-.33.64-.64,1-1a.84.84,0,0,0,.15-.26A1.94,1.94,0,0,1,107.16,119.83Z" transform="translate(-14.27 -20.9)"/><path class="cls-2" d="M99,80.22c.15.17.31.32.46.49a1.17,1.17,0,0,1,.34,1c0,.23-.15.34-.36.27a3.44,3.44,0,0,1-.65-.28s-.07-.15-.07-.23,0-.32,0-.48-.14-.22-.3-.14-.26.14-.38.22a1.28,1.28,0,0,1-1.49,0c-.07,0-.1-.12-.15-.19l0-.07h.25l.55.06a.75.75,0,0,0,.61-.32.48.48,0,0,0,.1-.31A1.94,1.94,0,0,0,97.26,79s-.06,0-.12,0c-.13.2-.26.41-.41.6a2,2,0,0,1-.36.36c-.14.11-.22.08-.29-.07a1.6,1.6,0,0,1-.22-.78,4.07,4.07,0,0,1,.16-1.3,1.93,1.93,0,0,0,.08-.47c0-.19.07-.38.13-.57s.16-.28.37-.11c.55.45,1.1.87,1.64,1.32.33.28.64.58.94.88a1.25,1.25,0,0,1,.24.4.58.58,0,0,1-.21.77l-.19.15S99,80.16,99,80.22Z" transform="translate(-14.27 -20.9)"/><path class="cls-2" d="M88.44,112.68a1.67,1.67,0,0,1-.21-.33c-.19-.67-.37-1.35-.54-2a16,16,0,0,1-.45-2.39c0-.32-.13-.62-.19-.94a1.27,1.27,0,0,1,0-.2c0-.25.07-.28.32-.21a2.31,2.31,0,0,1,1.58,1.5.34.34,0,0,1,0,.26c-.06.24-.16.47-.23.7a2.64,2.64,0,0,0-.11.53,12.42,12.42,0,0,0-.07,2.92c0,.06,0,.11,0,.16Z" transform="translate(-14.27 -20.9)"/><path class="cls-2" d="M107.61,74a2,2,0,0,1,.74.66c.2.22.29.54.51.78.17-.16.11-.27,0-.4a9.26,9.26,0,0,0-1.07-1.42s0-.08,0-.12.06,0,.07,0A3.5,3.5,0,0,1,109.48,75a2.67,2.67,0,0,1,.39,1.27,1.09,1.09,0,0,1-.31.76,2.71,2.71,0,0,1-.52.43.25.25,0,0,1-.38-.08l0,0a.66.66,0,0,0-1-.23,1.62,1.62,0,0,1-.28.11c-.2,0-.28,0-.23-.24a.19.19,0,0,1,0-.07,2.35,2.35,0,0,0,0-1.69.32.32,0,0,1,0-.23A3.61,3.61,0,0,1,107.61,74Zm1.48,1.61-.09,0a1.33,1.33,0,0,1,0,.19h.07Z" transform="translate(-14.27 -20.9)"/><path class="cls-2" d="M120.73,77.57a.34.34,0,0,1-.41.08,3,3,0,0,1-2.16-1.84,3.51,3.51,0,0,1-.12-.87.57.57,0,0,1,.11-.27c.35-.52.71-1,1-1.55a2.81,2.81,0,0,0,.3-.71c.08-.2.22-.26.35-.09.28.36.54.74.81,1.12s.19.75-.2,1.08a1,1,0,0,0-.31,1.11.93.93,0,0,1,0,.52,1,1,0,0,0,.38,1.25Z" transform="translate(-14.27 -20.9)"/><path class="cls-2" d="M136.78,83a1.83,1.83,0,0,1,1.1.38,2.41,2.41,0,0,0,.68.29c.06,0,.16-.05.23-.07a.63.63,0,0,0-.1-.2,2.8,2.8,0,0,0-.35-.25L137,82.49c-.26-.12-.28-.21-.07-.39a1.32,1.32,0,0,0,.33-.51,1.51,1.51,0,0,1,.09-.18.29.29,0,0,1,.49,0,.86.86,0,0,1,.23.34,1.51,1.51,0,0,0,.67.78,4.77,4.77,0,0,1,1.1,1,2.82,2.82,0,0,1,.26.44.24.24,0,0,1-.17.39c-.37.09-.75.16-1.13.22a1.19,1.19,0,0,1-.84-.22,3,3,0,0,0-1.18-.48.56.56,0,0,1-.54-.59c0-.2.06-.26.27-.27Z" transform="translate(-14.27 -20.9)"/></g></svg>