<svg xmlns="http://www.w3.org/2000/svg" viewBox="0 0 441.83 92.09"><defs><style>.cls-1,.cls-2{fill:#fff;}.cls-2{fill-rule:evenodd;}</style></defs><g id="Calque_1" data-name="Calque 1"><path class="cls-1" d="M147.94,62.68a1.2,1.2,0,0,0-.39-.2.92.92,0,0,0-.29,0l-.07,0a3,3,0,0,1-1.33,2.23,7.26,7.26,0,0,1-4.4,1,41.42,41.42,0,0,1-8.62-1.19l-.16,0,.11-.12a25.68,25.68,0,0,0,2.76-4.13c.91-1.66,1.61-3,2.07-4.06s1.18-2.7,2.1-4.87c.08-.23.23-.58.42-1l0,0h.06a23.88,23.88,0,0,0,6.2-1.35,16.58,16.58,0,0,0,4.7-2.52A12.59,12.59,0,0,0,154,43.22,6.2,6.2,0,0,0,155,40a3.62,3.62,0,0,0-.93-2.52A4.91,4.91,0,0,0,152,36.06a7.41,7.41,0,0,0-2.4-.4,8.78,8.78,0,0,0-3.92.92,11.59,11.59,0,0,0-3.46,2.71,29.06,29.06,0,0,0-3,4,57.56,57.56,0,0,0-2.79,5.07l0,.06h-.06a17.9,17.9,0,0,1-4.85-.83,9.33,9.33,0,0,1-3.3-1.73,8,8,0,0,1-1.74-2.1,4.65,4.65,0,0,1-.58-2.17c0-.37-.17-.37-.24-.37a2.94,2.94,0,0,0-1.84,1,2.83,2.83,0,0,0-1,2.09c0,1.45,1.13,2.77,3.34,3.92a24,24,0,0,0,9.28,2.12h.14l-.06.13c-.14.3-.27.62-.42,1-.08.19-.31.7-.79,1.76l-.82,1.83c-.12.24-.37.79-.72,1.58s-.63,1.39-.79,1.7-.39.78-.72,1.42-.6,1.14-.81,1.49l-.74,1.2c-.29.47-.55.87-.81,1.24l0,0h-.07a25.24,25.24,0,0,0-5.19-.72,4.8,4.8,0,0,0-3.3,1,3.09,3.09,0,0,0-1.09,2.34,2.82,2.82,0,0,0,1,2.15,4,4,0,0,0,2.77.93,11.78,11.78,0,0,0,7.23-2.39l0,0,.05,0c1.71.61,3.16,1.1,4.29,1.46a43.64,43.64,0,0,0,4.25,1.06,23.83,23.83,0,0,0,4.72.53,4.7,4.7,0,0,0,2.33-.56,4.11,4.11,0,0,0,1.53-1.45,6.62,6.62,0,0,0,.77-1.84,8.31,8.31,0,0,0,.23-1.94,2.91,2.91,0,0,0-.14-1A1.17,1.17,0,0,0,147.94,62.68ZM141.12,48c.55-1.3,1-2.42,1.48-3.32a31.45,31.45,0,0,1,1.51-2.81,13.56,13.56,0,0,1,1.68-2.34,6.94,6.94,0,0,1,1.85-1.44,4.45,4.45,0,0,1,2.12-.56,1.32,1.32,0,0,1,1.11.5,1.7,1.7,0,0,1,.38,1.08,5.81,5.81,0,0,1-.66,2.52,11.12,11.12,0,0,1-5,5,15.65,15.65,0,0,1-4.33,1.52l-.18,0Zm-14.29,17.9a6.14,6.14,0,0,1-4,1.59c-1,0-1.58-.43-1.58-1.28a1.07,1.07,0,0,1,.5-.91,2.46,2.46,0,0,1,1.37-.33,13.48,13.48,0,0,1,3.67.77l.17.05Z" transform="translate(-25.9 -16.45)"/><path class="cls-1" d="M165.67,57.92l0,0A18.24,18.24,0,0,1,163,61.32a10.79,10.79,0,0,1-2.72,2,12.69,12.69,0,0,1-2.2.86,7.18,7.18,0,0,1-1.69.23,1.82,1.82,0,0,1-1.65-.82,3.74,3.74,0,0,1-.53-2.07,6.54,6.54,0,0,1,.18-1.5V60h.08a13.92,13.92,0,0,0,4-.84,11.38,11.38,0,0,0,3.86-2.31,4.55,4.55,0,0,0,1.71-3.4,2.3,2.3,0,0,0-1-2.06,5,5,0,0,0-2.8-.68,8,8,0,0,0-4.67,1.63,12.34,12.34,0,0,0-3.63,4.08,9.85,9.85,0,0,0-1.34,4.74,6.52,6.52,0,0,0,1.23,4.07,4.35,4.35,0,0,0,3.67,1.59,16.17,16.17,0,0,0,1.68-.08,10.06,10.06,0,0,0,2-.53,9.47,9.47,0,0,0,2.3-1.19,15.21,15.21,0,0,0,2.44-2.28,24.65,24.65,0,0,0,2.68-3.62.11.11,0,0,0,0-.15l-.84-1Zm-10.88.52A13.91,13.91,0,0,1,157.44,54c1.14-1.28,2.19-1.94,3.12-1.94a.65.65,0,0,1,.45.16c.4.5.25,1.3-.45,2.45a8.86,8.86,0,0,1-5.65,3.9l-.18,0Z" transform="translate(-25.9 -16.45)"/><path class="cls-1" d="M203.33,40.78s0-.05-.05-.22c-.15-.42-.53-.62-1.14-.62a7.43,7.43,0,0,0-5.22,2.57,29.34,29.34,0,0,0-5.19,8.38c-1.06,2.32-2.08,4.36-3,6.06a34.5,34.5,0,0,1-2.49,3.95,11.93,11.93,0,0,1-2.09,2.22,4.6,4.6,0,0,1-3.36,1.25,1,1,0,0,1-.62-.23l-.25-.2c-.08,0-.17.1-.25.29a2.07,2.07,0,0,0-.14.81,3.82,3.82,0,0,0,1.18,2.51,3.68,3.68,0,0,0,2.79,1.28A5.33,5.33,0,0,0,187,67.31a15,15,0,0,0,3.1-4c.9-1.64,1.8-3.48,2.66-5.46s1.72-4,2.5-6,1.62-3.86,2.39-5.47a16.64,16.64,0,0,1,2.62-4,4.09,4.09,0,0,1,2.93-1.58A.14.14,0,0,0,203.33,40.78Z" transform="translate(-25.9 -16.45)"/><path class="cls-1" d="M266,48.87a3,3,0,0,0,1.62-.88,3.15,3.15,0,0,0,.9-1.65,1.37,1.37,0,0,0-1.36-1.76l-.37,0a3,3,0,0,0-1.62.89,3.09,3.09,0,0,0-.9,1.64,1.42,1.42,0,0,0,.35,1.37A1.49,1.49,0,0,0,266,48.87Z" transform="translate(-25.9 -16.45)"/><path class="cls-1" d="M294.49,57.92l0,0a18.53,18.53,0,0,1-2.67,3.35,10.62,10.62,0,0,1-2.72,2,12.33,12.33,0,0,1-2.19.86,7.33,7.33,0,0,1-1.7.23,1.83,1.83,0,0,1-1.65-.82,3.74,3.74,0,0,1-.52-2.07,6.51,6.51,0,0,1,.17-1.5V60h.08a13.92,13.92,0,0,0,4-.84,11.52,11.52,0,0,0,3.87-2.31,4.54,4.54,0,0,0,1.7-3.4,2.29,2.29,0,0,0-1-2.06,5,5,0,0,0-2.81-.68,8,8,0,0,0-4.66,1.63,12.37,12.37,0,0,0-3.64,4.08,11.29,11.29,0,0,0-1.08,2.76v0c-.71,1.05-1.38,2-2,2.75a17.18,17.18,0,0,1-2,2.22,2.14,2.14,0,0,1-1.06.59c-.33,0-.73-.16-.73-.9,0-1.33,1.25-4.34,3.82-9.19a2.72,2.72,0,0,0,.33-1.19,2.14,2.14,0,0,0-.27-1,3.34,3.34,0,0,0-.88-1c-.43-.34-.79-.61-1.08-.8s-.74-.47-1.32-.8l-.46-.3,0-.07a1,1,0,0,0,.08-.35,1.52,1.52,0,0,0-.4-1.1,1.26,1.26,0,0,0-1-.41,1.52,1.52,0,0,0-1.16.5,1.92,1.92,0,0,0-.48,1.39,1.52,1.52,0,0,0,.68,1.11l.06,0,0,.07a70.08,70.08,0,0,1-3.85,7.3,33.5,33.5,0,0,1-3.52,4.67c-1.11,1.19-1.89,1.76-2.38,1.76-.31,0-.69-.15-.69-.86a10.44,10.44,0,0,1,.81-3.21c.54-1.41,1.9-4.44,4-9a.2.2,0,0,0,0-.15s0-.05-.1-.05h-3.39a.34.34,0,0,0-.34.2c-1.32,2.84-2.33,5.08-3,6.66a35.82,35.82,0,0,1-3.45,4.69c-1.07,1.17-1.82,1.74-2.27,1.74s-.69-.15-.69-.86a9.86,9.86,0,0,1,.74-3.08c.5-1.33,1.71-4.06,3.71-8.35a.14.14,0,0,0,0-.14.1.1,0,0,0-.1-.06h-3.39a.34.34,0,0,0-.34.2c-.13.33-.22.53-.25.59l-.1.21-.08-.22a2.84,2.84,0,0,0-3-1.88,6.94,6.94,0,0,0-3.68,1.11,10.25,10.25,0,0,0-3,2.79,16.23,16.23,0,0,0-1.93,3.6l0,.08,0,.08a29.19,29.19,0,0,1-3.71,4.81,6.41,6.41,0,0,1-4.17,1.89h-.29l.22-.19a13.2,13.2,0,0,0,3.4-4.47,11.78,11.78,0,0,0,1.31-5.07,5.18,5.18,0,0,0-1.06-3.34,3.57,3.57,0,0,0-2.91-1.3,5.39,5.39,0,0,0-3.37,1.38l-.35.28.58-1.17a.17.17,0,0,0,0-.14.12.12,0,0,0-.11-.05h-3.39a.32.32,0,0,0-.33.2l-3.5,7.52a17.89,17.89,0,0,1-2.05,2.48,10.79,10.79,0,0,1-2.72,2,12.33,12.33,0,0,1-2.19.86,7.33,7.33,0,0,1-1.7.23,1.83,1.83,0,0,1-1.65-.82,3.74,3.74,0,0,1-.52-2.07A6.51,6.51,0,0,1,213,60V60h.08a13.92,13.92,0,0,0,4-.84A11.52,11.52,0,0,0,221,56.79a4.54,4.54,0,0,0,1.7-3.4,2.32,2.32,0,0,0-1-2.06,5,5,0,0,0-2.81-.68,8,8,0,0,0-4.66,1.63,12.37,12.37,0,0,0-3.64,4.08,11.44,11.44,0,0,0-1,2.52v0a42.47,42.47,0,0,1-3.63,4.83c-1.61,1.85-2.84,2.75-3.76,2.75a.81.81,0,0,1-.81-.69,4.13,4.13,0,0,1,0-1.73c.11-.71.25-1.46.42-2.23s.34-1.61.49-2.49a14.24,14.24,0,0,0,.23-2.23,3.31,3.31,0,0,0-1.73-3.26l-.26-.13.29,0a13.46,13.46,0,0,0,6.73-3,7.43,7.43,0,0,0,2.59-5.77,8.21,8.21,0,0,0-3.83-7,16.81,16.81,0,0,0-9.71-2.65,27.08,27.08,0,0,0-7.44,1,20.9,20.9,0,0,0-5.93,2.61A21.28,21.28,0,0,0,179,42.46a15.41,15.41,0,0,0-2.68,4.19,11,11,0,0,0-.88,4.12,6.71,6.71,0,0,0,1.94,4.86,5.94,5.94,0,0,0,4.32,2,6.56,6.56,0,0,0,4.9-2.11,6.09,6.09,0,0,0,2-4.1,1.35,1.35,0,0,0-.75-1.31.7.7,0,0,0-.34-.14s-.07,0-.07.14A4.42,4.42,0,0,1,186,52.93a4.35,4.35,0,0,1-3.21,1.53,2.5,2.5,0,0,1-2.11-1,4.26,4.26,0,0,1-.74-2.62,10.39,10.39,0,0,1,.66-3.48,14.29,14.29,0,0,1,2.07-3.74A18.1,18.1,0,0,1,186,40.25a15.88,15.88,0,0,1,4.77-2.47,18.79,18.79,0,0,1,6.07-1c3,0,5.3.7,6.74,2.08a7.17,7.17,0,0,1,2.17,5.39,7.75,7.75,0,0,1-2.51,5.89,9.64,9.64,0,0,1-6.82,2.33c-.08,0-.11,0-.12.05s-.07.16,0,.5a1.14,1.14,0,0,0,1.13.87h.41c.67.18,1,.76,1,1.7a18.07,18.07,0,0,1-1.07,4.61,18.07,18.07,0,0,0-1.05,5c0,2.61,1.25,3.88,3.84,3.88,2.41,0,5.28-2.34,8.51-6.95l.14-.21,0,.25a6.06,6.06,0,0,0,1.16,3,4.36,4.36,0,0,0,3.67,1.59,16,16,0,0,0,1.68-.08,10.06,10.06,0,0,0,1.95-.53,9.3,9.3,0,0,0,2.3-1.19,10.31,10.31,0,0,0,.91-.74l.35-.31L215.7,76c-.06.09,0,.13,0,.15a.12.12,0,0,0,.11,0h3.39a.32.32,0,0,0,.33-.2l7.75-16.68a20.31,20.31,0,0,1,3.43-5.26,4.4,4.4,0,0,1,2.68-1.57c.71,0,1.07.56,1.07,1.66a13.52,13.52,0,0,1-1.37,5.34A14.27,14.27,0,0,1,230,64.18l0,0-.06,0a4.08,4.08,0,0,0-1.69-.58,2.1,2.1,0,0,0-1.42.48,1.62,1.62,0,0,0-.56,1.29,1.58,1.58,0,0,0,.39,1.13,1.74,1.74,0,0,0,.91.53,4.62,4.62,0,0,0,1.2,0,6.69,6.69,0,0,0,.93-.13,1.63,1.63,0,0,0,.41-.14h.05a23.91,23.91,0,0,0,2.57.17,16.85,16.85,0,0,0,2.07-.12,5.2,5.2,0,0,0,1.76-.57,10.91,10.91,0,0,0,1.54-1,9.09,9.09,0,0,0,1.48-1.53c.33-.42.65-.86,1-1.29l.28-.39v.28a5,5,0,0,0,.93,2.82,3.16,3.16,0,0,0,2.67,1.23c1.63,0,3.25-1.11,4.84-3.3l.17-.25v.39a3.14,3.14,0,0,0,.88,2.26,3,3,0,0,0,2.2.9,5.45,5.45,0,0,0,1.56-.19,5.2,5.2,0,0,0,1.58-.87,10.77,10.77,0,0,0,2.07-2.21v0l.18-.08v.22a3.14,3.14,0,0,0,.88,2.26,2.91,2.91,0,0,0,2.16.9,5.66,5.66,0,0,0,1.6-.19,5.82,5.82,0,0,0,1.62-.87,10.16,10.16,0,0,0,2.14-2.22c.57-.75,1.22-1.71,1.95-2.84l0,0a95,95,0,0,0,5-8.7l.05-.1.09.06c.75.51,1.11,1,1.11,1.44a2.08,2.08,0,0,1-.27.93,55.92,55.92,0,0,0-3,6.3,10.31,10.31,0,0,0-.74,3.4,3.19,3.19,0,0,0,.84,2.26,2.77,2.77,0,0,0,2.11.9,4.48,4.48,0,0,0,1.56-.25,6.31,6.31,0,0,0,1.64-1,11.71,11.71,0,0,0,2.15-2.33l.6-.85.14-.2,0,.24a5.88,5.88,0,0,0,1.13,2.78,4.36,4.36,0,0,0,3.67,1.59,16,16,0,0,0,1.68-.08,10.06,10.06,0,0,0,1.95-.53A9.54,9.54,0,0,0,290.24,65a15.64,15.64,0,0,0,2.43-2.28,24.65,24.65,0,0,0,2.68-3.62.12.12,0,0,0,0-.15l-.84-1Zm-10.88.52A14.28,14.28,0,0,1,286.26,54c1.14-1.28,2.19-1.94,3.12-1.94a.61.61,0,0,1,.45.16c.41.5.26,1.3-.45,2.45a8.86,8.86,0,0,1-5.65,3.9l-.18,0Zm-70.17,0A14.28,14.28,0,0,1,216.09,54c1.14-1.28,2.19-1.94,3.12-1.94a.61.61,0,0,1,.45.16c.41.5.26,1.3-.45,2.45a8.86,8.86,0,0,1-5.65,3.9l-.18,0ZM252,55.52v0c-.54,1.15-1,2.15-1.27,3-2.16,3.63-3.85,5.39-5.17,5.39a1.06,1.06,0,0,1-.87-.48,2.16,2.16,0,0,1-.33-1.26,11.58,11.58,0,0,1,.9-4A14.84,14.84,0,0,1,247.55,54a4,4,0,0,1,2.83-1.82,1.41,1.41,0,0,1,1.27,1A4.68,4.68,0,0,1,252,55.52Z" transform="translate(-25.9 -16.45)"/><path class="cls-1" d="M334.59,57.92l0,0a18.27,18.27,0,0,1-2.67,3.36,10.76,10.76,0,0,1-2.71,2,12.69,12.69,0,0,1-2.2.86,7.19,7.19,0,0,1-1.7.23,1.83,1.83,0,0,1-1.65-.82,3.83,3.83,0,0,1-.52-2.07,7,7,0,0,1,.17-1.5l0-.07h.07a14,14,0,0,0,4-.84,11.38,11.38,0,0,0,3.86-2.31,4.54,4.54,0,0,0,1.7-3.4,2.33,2.33,0,0,0-1-2.06,5,5,0,0,0-2.8-.68,8,8,0,0,0-4.67,1.63,12.23,12.23,0,0,0-3.63,4.08,10.74,10.74,0,0,0-1.16,3.1l0,0a29.45,29.45,0,0,1-2.37,3.12A3.58,3.58,0,0,1,315,64.08c-.34,0-.74-.15-.74-.86a12.8,12.8,0,0,1,1.26-4.36c.84-2,3.39-7.51,7.82-17a.1.1,0,0,0,0-.1.11.11,0,0,0-.11-.06h-3.34a.35.35,0,0,0-.34.21C317,47.28,315.22,51,314.41,52.8l-.11.23-.07-.25a2.79,2.79,0,0,0-3-2,6.94,6.94,0,0,0-3.68,1.11,10.25,10.25,0,0,0-3,2.79,16.23,16.23,0,0,0-1.93,3.6,9.94,9.94,0,0,0-.74,3.54,5.33,5.33,0,0,0,1,3.33,3.16,3.16,0,0,0,2.67,1.23c1.68,0,3.38-1.2,5-3.56l.17-.25V63a3.65,3.65,0,0,0,.89,2.44,2.75,2.75,0,0,0,2.15,1,6.05,6.05,0,0,0,1.69-.19,4.92,4.92,0,0,0,1.55-.89,11.19,11.19,0,0,0,2-2.2l.46-.66.14-.2,0,.24a6.09,6.09,0,0,0,1.1,2.65,4.38,4.38,0,0,0,3.67,1.59,15.89,15.89,0,0,0,1.68-.08,9.88,9.88,0,0,0,1.95-.53A9.54,9.54,0,0,0,330.34,65a16.1,16.1,0,0,0,2.44-2.28,26.18,26.18,0,0,0,2.68-3.62.14.14,0,0,0,0-.15l-.84-1Zm-10.87.52A14.07,14.07,0,0,1,326.36,54c1.14-1.28,2.2-1.94,3.12-1.94a.66.66,0,0,1,.46.16c.4.5.25,1.3-.46,2.45a8.86,8.86,0,0,1-5.65,3.9l-.18,0Zm-10.61-2.75v0c-.42.89-.76,1.67-1,2.32a26.22,26.22,0,0,1-2.94,4.24,3.81,3.81,0,0,1-2.48,1.63,1.06,1.06,0,0,1-.87-.49,2.16,2.16,0,0,1-.33-1.26,11.77,11.77,0,0,1,.89-4A15.11,15.11,0,0,1,308.7,54a4,4,0,0,1,2.83-1.82,1.42,1.42,0,0,1,1.31,1A4.87,4.87,0,0,1,313.11,55.69Z" transform="translate(-25.9 -16.45)"/><path class="cls-1" d="M377.35,39.5a11.23,11.23,0,0,0-4.94-3.23,21,21,0,0,0-6.93-1.08,27.15,27.15,0,0,0-7.45,1,20.84,20.84,0,0,0-5.92,2.61,21.34,21.34,0,0,0-4.24,3.66,14.81,14.81,0,0,0-2.65,4.19,11.07,11.07,0,0,0-.86,4.12,6.77,6.77,0,0,0,1.92,4.86,5.86,5.86,0,0,0,4.29,2,6.6,6.6,0,0,0,4.91-2.11,6.12,6.12,0,0,0,2-4.1,1.34,1.34,0,0,0-.75-1.31.68.68,0,0,0-.33-.14s-.08,0-.08.14a4.37,4.37,0,0,1-1.42,2.84,4.31,4.31,0,0,1-3.2,1.53,2.48,2.48,0,0,1-2.11-1,4.2,4.2,0,0,1-.74-2.62,10.35,10.35,0,0,1,.66-3.48,14,14,0,0,1,2.07-3.74,17.8,17.8,0,0,1,3.34-3.38,15.88,15.88,0,0,1,4.77-2.47,18.79,18.79,0,0,1,6.07-1c3.05,0,5.36.66,6.84,2A6.58,6.58,0,0,1,374.85,44a7.47,7.47,0,0,1-2.36,5.76,9.26,9.26,0,0,1-6.5,2.17.22.22,0,0,0-.15,0,.56.56,0,0,0,0,.42,1.23,1.23,0,0,0,1.38.94c.29,0,.62,0,1,0h0A4.64,4.64,0,0,1,370.89,55,5.84,5.84,0,0,1,372,58.68a10.22,10.22,0,0,1-.77,4,7,7,0,0,1-2.57,3.05A7.67,7.67,0,0,1,364.25,67a6.6,6.6,0,0,1-1.91-.25,4,4,0,0,1-1.26-.59c-.28-.22-.5-.41-.69-.58s-.28-.23-.29-.23-.15.07-.23.19a.94.94,0,0,0-.14.52c0,.67.53,1.36,1.57,2.06a7.46,7.46,0,0,0,4.18,1.06,13.83,13.83,0,0,0,4.81-.78,8.57,8.57,0,0,0,3.38-2.11,9.68,9.68,0,0,0,1.92-3,9,9,0,0,0,.67-3.47,7.32,7.32,0,0,0-1.18-4.12,7.79,7.79,0,0,0-3.33-2.74l-.25-.12.26-.06a11,11,0,0,0,5.44-3,7.35,7.35,0,0,0,2-5.18A7.57,7.57,0,0,0,377.35,39.5Z" transform="translate(-25.9 -16.45)"/><path class="cls-1" d="M369.24,42.38a4.09,4.09,0,0,1,2.93-1.58c.05,0,.08,0,.08,0s0-.05,0-.23c-.16-.41-.53-.61-1.14-.61a7.47,7.47,0,0,0-5.23,2.57,29.35,29.35,0,0,0-5.18,8.38c-1.07,2.33-2.09,4.37-3,6.06a35.58,35.58,0,0,1-2.48,3.95,12.26,12.26,0,0,1-2.09,2.22,5.92,5.92,0,0,1-1.77,1,5.84,5.84,0,0,1-1.6.21,1,1,0,0,1-.61-.23,1.73,1.73,0,0,0-.26-.2c-.07,0-.16.1-.25.29a2.07,2.07,0,0,0-.14.81,3.79,3.79,0,0,0,1.19,2.51,3.68,3.68,0,0,0,2.78,1.28A5.35,5.35,0,0,0,356,67.31a15.14,15.14,0,0,0,3.09-4c.91-1.64,1.81-3.48,2.67-5.46s1.7-4,2.49-6,1.62-3.85,2.4-5.47A16.45,16.45,0,0,1,369.24,42.38Z" transform="translate(-25.9 -16.45)"/><path class="cls-1" d="M467.09,50.88a2.26,2.26,0,0,0-1.54-.57,3.1,3.1,0,0,0-2.8,1.56c-1.5,2.46-2.78,4.49-3.81,6l0,0h0c-.15.26-.31.5-.48.75l-.15.23-.63.88,0,0a1.06,1.06,0,0,0-.56.84l0,0a24.7,24.7,0,0,1-1.59,2c-1.07,1.17-1.81,1.74-2.27,1.74-.31,0-.69-.15-.69-.86a10.56,10.56,0,0,1,.79-3.21c.52-1.41,1.83-4.36,4-9a.2.2,0,0,0,0-.15.12.12,0,0,0-.11-.05h-3.34a.34.34,0,0,0-.34.23c-1.32,2.82-2.32,5-3,6.61A30.62,30.62,0,0,1,447,62.69c-1.09,1.16-1.91,1.72-2.51,1.72-.31,0-.69-.15-.69-.86a10.56,10.56,0,0,1,.79-3.21c.52-1.42,1.83-4.37,4-9a.2.2,0,0,0,0-.15.12.12,0,0,0-.11-.05h-3.34a.33.33,0,0,0-.34.2c-1.38,3-2.4,5.26-3.05,6.87,0,.1-.07.18-.1.27l-.08.19a25.6,25.6,0,0,1-3,3.83c-1.26,1.3-2.16,1.93-2.76,1.93-.32,0-.69-.15-.69-.86a7,7,0,0,1,.64-2.26c.42-1,1.22-2.78,2.37-5.23a6.47,6.47,0,0,0,.5-2.37,2.58,2.58,0,0,0-.81-1.9,3.07,3.07,0,0,0-2.22-.8,11.6,11.6,0,0,0-1.32.06,5.71,5.71,0,0,0-1.42.44,6.05,6.05,0,0,0-1.73,1.13l-.35.32.2-.44,4.95-10.63a.17.17,0,0,0,0-.14.13.13,0,0,0-.11-.06h-3.35a.35.35,0,0,0-.33.24l-7.67,16.42a19.84,19.84,0,0,1-2.34,3,11,11,0,0,1-2.59,2,13,13,0,0,1-2.09.91,5.35,5.35,0,0,1-1.66.28,1.79,1.79,0,0,1-1.63-.91,4.09,4.09,0,0,1-.54-2.15,9.76,9.76,0,0,1,1.09-4.23,13.37,13.37,0,0,1,2.58-3.74A4.24,4.24,0,0,1,420,52.06a.91.91,0,0,1,1,.76c.2,1-.29,2.1-1.44,3.4,0,.11.07.33.66.33a2.82,2.82,0,0,0,1.95-1,3.08,3.08,0,0,0,1-2.18c0-1.84-1.13-2.74-3.46-2.74A8,8,0,0,0,415,52.28a12.37,12.37,0,0,0-3.64,4.08,11,11,0,0,0-1.09,2.8l0,0a19.3,19.3,0,0,1-1.74,2.14,11,11,0,0,1-2.59,2,12.63,12.63,0,0,1-2.09.91,5.35,5.35,0,0,1-1.66.28,1.79,1.79,0,0,1-1.63-.91,4.06,4.06,0,0,1-.54-2.15,9.91,9.91,0,0,1,1.09-4.23,13.37,13.37,0,0,1,2.58-3.74,4.23,4.23,0,0,1,2.7-1.49.89.89,0,0,1,1,.76c.2,1-.28,2.1-1.44,3.4,0,.11.07.33.67.33a2.8,2.8,0,0,0,1.94-1,3.09,3.09,0,0,0,1-2.18c0-1.84-1.14-2.74-3.46-2.74a8,8,0,0,0-4.67,1.63,12.23,12.23,0,0,0-3.63,4.08,10.94,10.94,0,0,0-1.09,2.76v0a32.43,32.43,0,0,1-2.68,3.52c-1.08,1.17-1.82,1.74-2.28,1.74-.31,0-.69-.15-.69-.86a9.66,9.66,0,0,1,.75-3.08c.49-1.32,1.74-4.13,3.71-8.35a.18.18,0,0,0,0-.14.11.11,0,0,0-.11-.06h-3.38a.33.33,0,0,0-.34.2l0,.06c-.13.31-.21.48-.24.53l-.1.21-.07-.22a2.87,2.87,0,0,0-3.05-1.88,6.91,6.91,0,0,0-3.67,1.11,10,10,0,0,0-3,2.79,16.27,16.27,0,0,0-1.94,3.6,9.87,9.87,0,0,0-.73,3.54,5.39,5.39,0,0,0,.95,3.33,3.19,3.19,0,0,0,2.68,1.23c1.62,0,3.25-1.11,4.83-3.3l.18-.25v.39a3.1,3.1,0,0,0,.88,2.26,2.93,2.93,0,0,0,2.19.9,5.53,5.53,0,0,0,1.57-.19,5.29,5.29,0,0,0,1.57-.87,10.6,10.6,0,0,0,2.08-2.22l.6-.84.14-.2,0,.24a6,6,0,0,0,1.13,2.83,4.38,4.38,0,0,0,3.67,1.59,15.34,15.34,0,0,0,1.66-.08,9.06,9.06,0,0,0,1.87-.53A9.4,9.4,0,0,0,407,65a16.07,16.07,0,0,0,2.37-2.28c.18-.19.36-.41.53-.62l.15-.18,0,.23a6.16,6.16,0,0,0,1.16,3.06,4.36,4.36,0,0,0,3.67,1.59,15.48,15.48,0,0,0,1.66-.08A10.18,10.18,0,0,0,420.62,65a11.4,11.4,0,0,0,.91-.76l.36-.34-1.1,2.36a.17.17,0,0,0,0,.14.13.13,0,0,0,.11.06h3.39a.3.3,0,0,0,.29-.2L428.87,57a13.28,13.28,0,0,1,2.8-3.33A4.14,4.14,0,0,1,434,52.53a.66.66,0,0,1,.51.34c.37.67,0,2.28-1.14,4.92a37,37,0,0,0-1.5,3.57,6.74,6.74,0,0,0-.32,2.07,3.13,3.13,0,0,0,.74,2.2,2.63,2.63,0,0,0,2,.79,6.91,6.91,0,0,0,1.72-.19,6.59,6.59,0,0,0,1.81-.85,10.18,10.18,0,0,0,2.35-2.25l.24-.3v.43a3.19,3.19,0,0,0,.82,2.28,2.71,2.71,0,0,0,2.09.88c1.76,0,3.63-1.23,5.55-3.65l.17-.22v.71a3.23,3.23,0,0,0,.81,2.28,2.67,2.67,0,0,0,2.1.88,5.41,5.41,0,0,0,1.56-.19,5.2,5.2,0,0,0,1.58-.87,10.54,10.54,0,0,0,2-2.16l.11-.15.06.18a1.6,1.6,0,0,1,0,.21,3.18,3.18,0,0,0,.1.33A5.22,5.22,0,0,0,459.09,66a4.3,4.3,0,0,0,2.73.93,9.4,9.4,0,0,0,2.26-.25c1.26-.09,2.44-1.77,2.77-3.28a17.57,17.57,0,0,0,.1-3c0-1.11-.12-2.19-.25-3.19a11.08,11.08,0,0,1,0-3,3.78,3.78,0,0,1,1-2.25A1.63,1.63,0,0,0,467.09,50.88ZM390,55.52v0c-.53,1.15-1,2.14-1.27,3-2.16,3.63-3.85,5.4-5.17,5.4a1,1,0,0,1-.86-.49,2.16,2.16,0,0,1-.34-1.26,11.81,11.81,0,0,1,.9-4A15.35,15.35,0,0,1,385.6,54c1-1.21,1.93-1.82,2.83-1.82a1.41,1.41,0,0,1,1.28,1A4.58,4.58,0,0,1,390,55.52Zm73,6.21a6.4,6.4,0,0,1-.32,1.18,1.73,1.73,0,0,1-.68.87,1.93,1.93,0,0,1-1.11.3,1.84,1.84,0,0,1-1.74-1,4,4,0,0,1-.35-2.35l0,0,.07-.11c1-1.32,2.24-3.16,3.78-5.5l.18-.27v.32c0,.47,0,1,.07,1.73s.07,1.27.1,1.78.05,1,.07,1.64A8.45,8.45,0,0,1,463,61.73Z" transform="translate(-25.9 -16.45)"/><path class="cls-1" d="M119.56,90.7h1.93l3,7.62,3-7.62h1.89l-4.11,10h-1.55Z" transform="translate(-25.9 -16.45)"/><path class="cls-1" d="M135.64,95.69v0a5.19,5.19,0,0,1,10.38,0v0a5.09,5.09,0,0,1-5.21,5.13A5,5,0,0,1,135.64,95.69Zm8.55,0v0a3.4,3.4,0,0,0-3.38-3.53,3.35,3.35,0,0,0-3.34,3.5v0a3.38,3.38,0,0,0,3.37,3.51A3.34,3.34,0,0,0,144.19,95.69Z" transform="translate(-25.9 -16.45)"/><path class="cls-1" d="M155.69,92.31h-3.15V90.7h8.06v1.61h-3.15v8.31h-1.76Z" transform="translate(-25.9 -16.45)"/><path class="cls-1" d="M168.1,90.7h4.42a4,4,0,0,1,2.87,1,3,3,0,0,1,.82,2.14v0a3,3,0,0,1-2.35,3l2.68,3.76h-2.07L172,97.16h-2.19v3.46H168.1Zm4.3,4.92c1.24,0,2-.66,2-1.66v0c0-1.06-.77-1.64-2.06-1.64h-2.54v3.33Z" transform="translate(-25.9 -16.45)"/><path class="cls-1" d="M184,90.7h7.36v1.56h-5.61v2.58h5v1.55h-5v2.67h5.68v1.56H184Z" transform="translate(-25.9 -16.45)"/><path class="cls-1" d="M208.65,95.69v0a5,5,0,0,1,5.12-5.13,5.15,5.15,0,0,1,3.88,1.54l-1.12,1.29a4,4,0,0,0-2.78-1.23,3.34,3.34,0,0,0-3.27,3.5v0a3.34,3.34,0,0,0,3.27,3.51,3.88,3.88,0,0,0,2.85-1.27L217.72,99a5.1,5.1,0,0,1-4,1.76A5,5,0,0,1,208.65,95.69Z" transform="translate(-25.9 -16.45)"/><path class="cls-1" d="M228.73,90.63h1.62l4.36,10h-1.84l-1-2.4h-4.69l-1,2.4h-1.79Zm2.49,6.05-1.71-4-1.7,4Z" transform="translate(-25.9 -16.45)"/><path class="cls-1" d="M239.81,90.7h1.93l3,7.62,3-7.62h1.89l-4.11,10h-1.55Z" transform="translate(-25.9 -16.45)"/><path class="cls-1" d="M257.05,90.7h1.74v9.92h-1.74Z" transform="translate(-25.9 -16.45)"/><path class="cls-1" d="M266.44,99.17l1.05-1.24a4.62,4.62,0,0,0,3.14,1.29c1.07,0,1.75-.51,1.75-1.25v0c0-.71-.39-1.09-2.24-1.52-2.11-.51-3.3-1.13-3.3-3v0c0-1.7,1.42-2.88,3.39-2.88a5.49,5.49,0,0,1,3.6,1.25l-.93,1.32a4.57,4.57,0,0,0-2.7-1c-1,0-1.61.53-1.61,1.18v0c0,.77.45,1.11,2.36,1.57,2.1.51,3.18,1.26,3.18,2.9v0c0,1.86-1.46,3-3.55,3A6.11,6.11,0,0,1,266.44,99.17Z" transform="translate(-25.9 -16.45)"/><path class="cls-1" d="M284.07,92.31h-3.14V90.7H289v1.61h-3.15v8.31h-1.76Z" transform="translate(-25.9 -16.45)"/><path class="cls-1" d="M296.48,90.7h7.36v1.56h-5.61v2.58h5v1.55h-5v2.67h5.68v1.56h-7.43Z" transform="translate(-25.9 -16.45)"/><path class="cls-1" d="M321.56,90.7h3.7a4.94,4.94,0,0,1,5.27,4.93v0a5,5,0,0,1-5.27,5h-3.7Zm1.74,1.59V99h2a3.24,3.24,0,0,0,3.45-3.34v0a3.26,3.26,0,0,0-3.45-3.37Z" transform="translate(-25.9 -16.45)"/><path class="cls-1" d="M338.31,90.7h7.36v1.56h-5.62v2.58h5v1.55h-5v2.67h5.69v1.56h-7.43Z" transform="translate(-25.9 -16.45)"/><path class="cls-1" d="M353.47,90.7h3.91c2.33,0,3.77,1.32,3.77,3.31v0c0,2.23-1.78,3.39-4,3.39h-2v3.19h-1.74Zm3.77,5.16c1.32,0,2.14-.74,2.14-1.78v0c0-1.17-.84-1.77-2.14-1.77h-2v3.57Z" transform="translate(-25.9 -16.45)"/><path class="cls-1" d="M368.45,96.41V90.7h1.74v5.64c0,1.84.95,2.82,2.51,2.82s2.49-.92,2.49-2.75V90.7h1.75v5.62c0,3-1.68,4.46-4.27,4.46S368.45,99.29,368.45,96.41Z" transform="translate(-25.9 -16.45)"/><path class="cls-1" d="M385.09,90.7h1.75v9.92h-1.75Z" transform="translate(-25.9 -16.45)"/><path class="cls-1" d="M394.49,99.17l1.05-1.24a4.6,4.6,0,0,0,3.13,1.29c1.08,0,1.76-.51,1.76-1.25v0c0-.71-.4-1.09-2.24-1.52-2.12-.51-3.31-1.13-3.31-3v0c0-1.7,1.42-2.88,3.39-2.88a5.47,5.47,0,0,1,3.6,1.25l-.93,1.32a4.57,4.57,0,0,0-2.7-1c-1,0-1.61.53-1.61,1.18v0c0,.77.45,1.11,2.36,1.57,2.1.51,3.18,1.26,3.18,2.9v0c0,1.86-1.46,3-3.54,3A6.08,6.08,0,0,1,394.49,99.17Z" transform="translate(-25.9 -16.45)"/><path class="cls-1" d="M421.05,92.4l-1.78.49-.37-1.41,2.68-.85h1.2v10h-1.73Z" transform="translate(-25.9 -16.45)"/><path class="cls-1" d="M436.5,96.07a2.88,2.88,0,0,1-2.34,1.06c-2.11,0-3.52-1.23-3.52-3.14v0a3.46,3.46,0,0,1,3.7-3.43,3.6,3.6,0,0,1,2.77,1,5,5,0,0,1,1.19,3.78v0c0,3.19-1.57,5.4-4.25,5.4a4.74,4.74,0,0,1-3.18-1.19l.95-1.33a3.39,3.39,0,0,0,2.27.93C435.85,99.2,436.49,97.39,436.5,96.07Zm-.07-2.18v0A1.87,1.87,0,0,0,434.36,92a1.82,1.82,0,0,0-2,1.84v0a1.81,1.81,0,0,0,2,1.77A1.83,1.83,0,0,0,436.43,93.89Z" transform="translate(-25.9 -16.45)"/><path class="cls-1" d="M445.45,97.91v0a2.51,2.51,0,0,1,1.79-2.41,2.37,2.37,0,0,1-1.45-2.21v0c0-1.51,1.46-2.68,3.45-2.68s3.44,1.15,3.44,2.68v0a2.37,2.37,0,0,1-1.45,2.21A2.55,2.55,0,0,1,453,97.86v0c0,1.78-1.62,2.88-3.78,2.88S445.45,99.63,445.45,97.91Zm5.87-.1v0c0-.91-.91-1.51-2.08-1.51s-2.07.6-2.07,1.51v0c0,.81.76,1.49,2.07,1.49S451.32,98.63,451.32,97.81ZM451,93.43v0c0-.76-.71-1.38-1.77-1.38s-1.78.62-1.78,1.37v0a1.81,1.81,0,0,0,3.55,0Z" transform="translate(-25.9 -16.45)"/><path class="cls-1" d="M460,99.05l1.22-1.14a3.24,3.24,0,0,0,2.61,1.31,1.56,1.56,0,0,0,1.72-1.51v0c0-1-.9-1.54-2.29-1.54h-.8l-.29-1.09,2.68-2.85h-4.29V90.7h6.56V92l-2.76,2.84c1.5.18,2.92,1,2.92,2.78v0a3.19,3.19,0,0,1-3.48,3.15A4.71,4.71,0,0,1,460,99.05Z" transform="translate(-25.9 -16.45)"/></g><g id="Mode_Isolation" data-name="Mode Isolation"><path class="cls-1" d="M100.71,67.82c-.17-.27-.37-.53-.55-.79a1.74,1.74,0,0,1-.35-.77c-.07-.71-.14-1.41-.23-2.11-.12-1-.25-1.94-.37-2.91-.07-.58-.14-1.16-.17-1.74a15.89,15.89,0,0,0-.24-2.85,13.41,13.41,0,0,0-.36-1.42,3.14,3.14,0,0,1-.21-1.08c0-.22,0-.43,0-.64,0-.62-.09-1.24-.12-1.86a6.33,6.33,0,0,1,.33-2.33,3.31,3.31,0,0,0,.18-1.16A6,6,0,0,0,98,46a.38.38,0,0,1,0-.36,2.77,2.77,0,0,0,.38-1.26.78.78,0,0,1,0-.14,6.94,6.94,0,0,0,.1-1.82c0-.57-.1-1.14-.16-1.71,0-.28-.09-.56-.12-.85,0-.12,0-.29,0-.37.37-.42.58-1.07,1.32-1l.07,0a.36.36,0,0,0,.26-.47.66.66,0,0,0-.14-.29.73.73,0,0,1-.18-.75,1.25,1.25,0,0,0-.21-1.06c-.15-.18-.3-.37-.46-.55L98.56,35a.4.4,0,0,1-.06-.54,1.49,1.49,0,0,0,.16-1.08c-.1-.51-.19-1-.28-1.55a1,1,0,0,1,.13-.78,1.31,1.31,0,0,0,.21-1.19,6.67,6.67,0,0,0-.35-.71c0-.07-.07-.15-.12-.25l.2-.08a1.48,1.48,0,0,0,1-1.95,2.22,2.22,0,0,0-2.25-1.58c-.24.05-.28,0-.33-.26a1.69,1.69,0,0,0-.26-.74,2.86,2.86,0,0,0-1.07-.91,1,1,0,0,0-1.34.25,2,2,0,0,0-.27.53c-.07.18-.13.35-.35.37a.51.51,0,0,1-.48-.25,2.13,2.13,0,0,0-.25-.34,2.36,2.36,0,0,0-2.36-.68.82.82,0,0,0-.25.12,2.06,2.06,0,0,0-.84,1,.44.44,0,0,1-.59.31c-.38-.09-.4-.09-.49-.46a1.7,1.7,0,0,1-.06-.31,2.22,2.22,0,0,0-.58-1.29,1.13,1.13,0,0,0-.48-.35,1.69,1.69,0,0,0-2,.66l-.16.21-.28-.32a1.94,1.94,0,0,0-.77-.56A3.33,3.33,0,0,0,82.22,22a2.22,2.22,0,0,0-.41.1,1.68,1.68,0,0,0-1.08,1.32c-.07.27-.1.29-.37.25a1.75,1.75,0,0,0-1.45.45,1.32,1.32,0,0,1-.32.2c0-.46.08-.88.1-1.31a13,13,0,0,0-.2-2.06,3.5,3.5,0,0,0-.95-2,6.24,6.24,0,0,1-.61-.75c-.36-.51-.7-1-1.05-1.57a.35.35,0,0,0-.38-.19,1.38,1.38,0,0,0-.08.29,3.34,3.34,0,0,1-.42,1.1,5.12,5.12,0,0,1-1.13,1.33,2.89,2.89,0,0,0-1,2.76,5.35,5.35,0,0,1,.07.56.31.31,0,0,1-.2.38c-.19-.26-.41-.52-.58-.8a19.22,19.22,0,0,0-2-2.74c-.27-.31-.58-.58-.91-.9a1.64,1.64,0,0,0-.38.69,2.77,2.77,0,0,1-.12.41c-.13.36-.26.72-.4,1.07s-.36.85-.56,1.27c-.05.12-.17.2-.3.34-.08-.18-.12-.3-.18-.41a6.22,6.22,0,0,0-2.57-2.56l-1.58-.92-.94-.55a1.88,1.88,0,0,0-.12.15c-.25.86-.51,1.71-.75,2.57a8.75,8.75,0,0,0-.2,1,1.38,1.38,0,0,0,0,.35,3.74,3.74,0,0,0,.49,1.85,5.48,5.48,0,0,0,.35.49c.08.1.17.2.1.34a2.09,2.09,0,0,1-1.45-.94,14.54,14.54,0,0,0-2.3-2.77,3.24,3.24,0,0,0-1.09-.74.68.68,0,0,0-.92.52,2.57,2.57,0,0,0,.1,1.1,15,15,0,0,1,.38,1.74,14.72,14.72,0,0,1,.1,1.76c0,.36,0,.73-.07,1.1a1.09,1.09,0,0,1-.12.26,1.27,1.27,0,0,1-.1-.25,2.5,2.5,0,0,0-.47-1.11,10,10,0,0,0-1-1.11,11.71,11.71,0,0,0-3.33-2.25c-.47-.19-.81-.1-1,.36s-.34.88-.5,1.32a2.34,2.34,0,0,0-.09.24c0,.14-.1.29-.14.44a1.86,1.86,0,0,1-.07.34,2.22,2.22,0,0,0-.17,1A3.61,3.61,0,0,0,50,27.26a4.08,4.08,0,0,0,.42.77c.39.44.82.83,1.24,1.24l.11.16c-.11.14-.2.07-.3,0l-.38-.19c-.45-.2-.91-.42-1.37-.61a9,9,0,0,0-1.6-.68c-.29-.06-.58-.14-.87-.23a5.89,5.89,0,0,1-.83-.31,3.34,3.34,0,0,1-1.26-1c-.06-.07-.14-.13-.21-.2a1.64,1.64,0,0,0-1.59-.5,2.1,2.1,0,0,0-.87.4,1.11,1.11,0,0,0-.32,1.41,6.74,6.74,0,0,0,.46.68.58.58,0,0,1,.11.69l-.22.45c-.33.84-.66,1.68-1,2.53-.26.7-.51,1.41-.77,2.11-.1.29-.21.58-.32.87s-.28.71-.41,1.06a1.65,1.65,0,0,0-.06.32c0,.39,0,.79,0,1.18a3.22,3.22,0,0,0,.41,1.36c.29.54.63,1.06.93,1.6a1.31,1.31,0,0,1,.2.56c0,.62,0,1.24,0,1.86a4.57,4.57,0,0,1-.61,2,.46.46,0,0,1-.2.19.38.38,0,0,0-.23.4c0,.17,0,.34,0,.5,0,.45,0,.88,0,1.33a.8.8,0,0,0,.07.2,2.49,2.49,0,0,0,.57.76c.33.28.64.58,1,.86a4.8,4.8,0,0,0,2.1,1.11,3.65,3.65,0,0,1,.64.2.57.57,0,0,1,.36.38.94.94,0,0,1-.61.34l-.85.11a.79.79,0,0,0-.76.6c-.05.21-.23.24-.37.07s-.47-.59-.69-.9a.53.53,0,0,1-.09-.3c0-.44-.05-.49-.46-.65a1.57,1.57,0,0,1-.52-.25A17.75,17.75,0,0,1,39,48.23a1.82,1.82,0,0,0-1.36-.69l-2.25-.11a6.74,6.74,0,0,0-2.78.41.32.32,0,0,1-.14,0,2.49,2.49,0,0,0-1.08.34,3.27,3.27,0,0,0-1.3.91,5.77,5.77,0,0,0-1,1.24,1.21,1.21,0,0,1-.56.62.77.77,0,0,0-.29.35.65.65,0,0,1-.31.36,1.44,1.44,0,0,0-.73,1.05,6.88,6.88,0,0,1-.32,1,.13.13,0,0,1,0,.06,1.35,1.35,0,0,0-.21,1,3,3,0,0,1-.1,1.65.39.39,0,0,0,0,.14A6,6,0,0,1,26.08,58a4.29,4.29,0,0,0,0,2.46,1.42,1.42,0,0,1,.05.36,1.34,1.34,0,0,0,.05.35c.22.4.2.87.42,1.28a9.43,9.43,0,0,0,.81,1.5,2.44,2.44,0,0,0,1.45,1,1.44,1.44,0,0,1,.79.41,2.86,2.86,0,0,0,2,.89.52.52,0,0,1,.29.09c.15.09.27.21.41.29a2,2,0,0,0,1.18.34,1.22,1.22,0,0,1,.6.08,2.47,2.47,0,0,0,1.61.07l.42-.1a2.83,2.83,0,0,0,2-1.24,3.64,3.64,0,0,1,.7-.76,2.44,2.44,0,0,0,.29-.27A2.68,2.68,0,0,0,39.91,62c-.16-.58-.19-1.18-.37-1.75a4.86,4.86,0,0,0-.47-1.1,1.74,1.74,0,0,1-.37-1,1.62,1.62,0,0,0-.11-.53.59.59,0,0,0-.82-.41,2.33,2.33,0,0,0-1.36,1.32,2.16,2.16,0,0,0-.23.85.52.52,0,0,1-.1.23c-.18.28-.38.54-.56.83a4,4,0,0,0-.86,1.93s0,.08-.07.15c-.2-.21-.36-.4-.55-.58a.6.6,0,0,1-.17-.55,4.82,4.82,0,0,0,0-1,2.25,2.25,0,0,0-.46-1.33A1.61,1.61,0,0,1,33,57.87a2,2,0,0,0-.31-1.12c-.15-.24-.12-.27.07-.49a7.21,7.21,0,0,0,.47-.62c.05,0,.08-.13.13-.16a1,1,0,0,0,.43-.72.47.47,0,0,1,.19-.28c.12-.09.26-.16.39-.24a1.64,1.64,0,0,1,.46-.26,1.41,1.41,0,0,0,.69-.42l.33-.36a.72.72,0,0,1,.36.41,3.08,3.08,0,0,0,.88,1.11,1.18,1.18,0,0,1,.28.31.82.82,0,0,0,.6.42.5.5,0,0,1,.39.28,1.68,1.68,0,0,0,1.06.84.5.5,0,0,1,.33.3c.11.25.26.48.39.72a3.23,3.23,0,0,1,.32.68,8.75,8.75,0,0,0,.48,1.66,7.09,7.09,0,0,0,.92,1.69c.66.88,1.35,1.73,2,2.6s1.18,1.56,1.74,2.35a3.53,3.53,0,0,1,.66,1.76,4.44,4.44,0,0,0,.48,1.74.93.93,0,0,0,1.46.25,2.31,2.31,0,0,0,.55-1.21c.09-.35.13-.4.48-.29l1.21.44a.17.17,0,0,1,.12.25.78.78,0,0,1-.12.22,6.36,6.36,0,0,0-.87,1.89,1.36,1.36,0,0,0-.07.35c0,.53-.11,1-.13,1.57A3.06,3.06,0,0,0,50,75.76a2.82,2.82,0,0,0,2,1.1,3.47,3.47,0,0,0,.72,0,.88.88,0,0,1,.71.25.49.49,0,0,1,.16.58,6.36,6.36,0,0,1-.53.72.48.48,0,0,1-.31.15,1.69,1.69,0,0,0-1.13.62,1.64,1.64,0,0,1-.4.34c-.19.12-.41.2-.6.31a2,2,0,0,0-1.08,2.06,2.19,2.19,0,0,0,.58,1.27c.32.36.65.71,1,1.06A.66.66,0,0,1,51,85.26a2.82,2.82,0,0,1-.72.3,4.35,4.35,0,0,0-1.61.8A1.74,1.74,0,0,0,48,88.17a1.72,1.72,0,0,0,.49.93c.43.46.9.89,1.36,1.32a2.35,2.35,0,0,1,.65,1.09.9.9,0,0,1-.09.66,1.76,1.76,0,0,1-.89.68c-.46.22-.92.43-1.37.67a4.36,4.36,0,0,0-1.35,1.32.65.65,0,0,1-.59.32.88.88,0,0,0-.36,0c-.36.1-.71.25-.8.67a1.09,1.09,0,0,0,.34,1,.7.7,0,0,0,.95.12,1.88,1.88,0,0,0,.24-.14.39.39,0,0,1,.4,0,4.46,4.46,0,0,0,.8.2,1.13,1.13,0,0,0,.82-.19,1.05,1.05,0,0,1,.66-.22,2,2,0,0,0,.6-.08.89.89,0,0,0,.67-1,1,1,0,0,0,0-.25.7.7,0,0,1,.75-.91,2.16,2.16,0,0,0,.36,0,1.28,1.28,0,0,0,.94-.45s.09-.13.14-.17a2.36,2.36,0,0,1,.28-.12c0,.08.1.17.1.25a2.34,2.34,0,0,0,.58,1.42,8.19,8.19,0,0,1,.48.72,4.06,4.06,0,0,0,1.27,1.43,3.37,3.37,0,0,1,.54.46,1,1,0,0,1,.24,1.45l-.27.46a1,1,0,0,0-.12,1.08,3.51,3.51,0,0,1,.13.66,4.69,4.69,0,0,0,.19.76.63.63,0,0,0,.55.41.39.39,0,0,0,.5-.38c0-.29,0-.59.07-.89s.07-.81.13-1.2a1.74,1.74,0,0,1,.2-.49c.19-.35.42-.67.59-1a5.34,5.34,0,0,0,.53-2,1.22,1.22,0,0,1,.22-.56c.14-.23.37-.21.5,0a1.14,1.14,0,0,1,.18.39,1.38,1.38,0,0,0,.57.92,7.77,7.77,0,0,1,1.39,1.58,4.4,4.4,0,0,1,.85,1.94,3.07,3.07,0,0,0,1.28,2.23,2,2,0,0,0,.77.34,1.28,1.28,0,0,0,1.47-1.06,5.64,5.64,0,0,0,.14-2.17,6.15,6.15,0,0,1-.07-.75.36.36,0,0,1,.21-.38c.17-.07.29.07.41.16a.28.28,0,0,1,.1.14c.07.24.14.48.2.72s.08.45.16.66a2.92,2.92,0,0,0,1.26,1.47,24.29,24.29,0,0,0,2.44,1.24c.55.28,1.12.54,1.65.86s1.14.73,1.68,1.14c.81.61,1.58,1.26,2.37,1.89.33.26.64.54,1,.78a1.23,1.23,0,0,0,1.34-.1,1,1,0,0,0,.36-.9,4.69,4.69,0,0,0-.19-1.12,13.41,13.41,0,0,1-.53-1.74c-.15-.79-.31-1.57-.4-2.36a15.7,15.7,0,0,1,0-1.94,3.82,3.82,0,0,1,.13-.88c.1-.45.22-.9.34-1.35s.24-.85.35-1.28.3-1.1.4-1.66c.14-.71.23-1.42.34-2.12.15-.9.27-1.8.45-2.69a7.41,7.41,0,0,1,.43-1.58c.27-.58.51-.7,1.16-.64A12.68,12.68,0,0,0,85.3,88l1.61-.31c.47-.1.93-.22,1.39-.34a4.69,4.69,0,0,0,.75-.24,12,12,0,0,0,1.43-.72,3.94,3.94,0,0,0,2-3.17,4.5,4.5,0,0,0-.59-2.54,5.19,5.19,0,0,1-.53-1.35,1.4,1.4,0,0,1,0-.61c.09-.5.24-.61.74-.65.2,0,.41,0,.61,0s.54-.08.81-.13a1.07,1.07,0,0,0,.73-.54,2.52,2.52,0,0,0,.14-2.62c-.11-.21-.06-.3.16-.36a.85.85,0,0,0,.48-.22,1.83,1.83,0,0,0,.4-1.9,2.28,2.28,0,0,0-1.59-1.51,5.12,5.12,0,0,1-.77-.3.53.53,0,0,1-.28-.33c0-.19.23-.17.35-.24h0a3,3,0,0,0,1.58-1,3.89,3.89,0,0,1,.36-.34.59.59,0,0,1,.67,0,2.69,2.69,0,0,1,.75.55,6.55,6.55,0,0,0,1.19,1,1.65,1.65,0,0,0,1.94-.06,4.38,4.38,0,0,0,1.07-1.28A.77.77,0,0,0,100.71,67.82ZM98.83,36.18c0,.07.07.13.1.19a.79.79,0,0,1,0,.76c-.12.24-.11.27.09.45a1.67,1.67,0,0,1,.23.23c.11.14.06.25-.11.27a.74.74,0,0,1-.21,0l-1.12-.25a.62.62,0,0,1-.45-.39l.31-.16.17,0c.25-.12.27-.29,0-.46a5.64,5.64,0,0,0-.67-.4c-.57-.3-1.13-.6-1.72-.88-.36-.17-.75-.29-1.13-.44l-.25-.12a2.44,2.44,0,0,1,.39-.23,2.68,2.68,0,0,1,.63-.11,8.82,8.82,0,0,1,1.36,0A2.83,2.83,0,0,1,98.83,36.18ZM79.08,41.87c-.91,0-1.81,0-2.72,0a2.59,2.59,0,0,1-.53-.1l-.62-.14a1.57,1.57,0,0,1-.31-.08c-.37-.13-.74-.27-1.09-.42s-.73-.35-1.08-.55a11.66,11.66,0,0,1-1.13-.68,3.21,3.21,0,0,1-1.09-1c-.16-.26-.13-.44.14-.59l.29-.15a.85.85,0,0,1,.82,0,1.44,1.44,0,0,0,.54.14c.31,0,.42-.08.37-.4a.81.81,0,0,1,.19-.66c.16-.19.29-.24.49-.12a4.05,4.05,0,0,1,.68.46,3,3,0,0,0,.75.47.45.45,0,0,1,.2.21,3.31,3.31,0,0,1,.12.45c-.24.27-.38.28-.64.05s-.37-.35-.57-.5a5.6,5.6,0,0,0-.58-.34,1.18,1.18,0,0,1-.83.72c-.2.09-.37.2-.37.43a.56.56,0,0,0,.33.48,2.41,2.41,0,0,0,.93.33.54.54,0,0,0,.48-.08.52.52,0,0,1,.74.07,3.13,3.13,0,0,0,1.58.69,8.24,8.24,0,0,1,.81.35,6.13,6.13,0,0,0,.92.29.45.45,0,0,0,.48-.24.25.25,0,0,1,.34-.09l.93.37.2.08c.1.08.11.22,0,.27A2.5,2.5,0,0,1,79.08,41.87Zm.7,1.3v.1c-.24,0-.47.08-.71.09a18.43,18.43,0,0,0-3.14.46c-.52.12-1,.22-1.57.33-.19.05-.37.13-.55.18a.63.63,0,0,1-.7-.11.4.4,0,0,0-.43-.1c-.11,0-.21,0-.26-.09a.29.29,0,0,1,.13-.37.94.94,0,0,1,.24-.06,13.28,13.28,0,0,1,2.09-.27,36,36,0,0,1,3.75-.25,6.77,6.77,0,0,1,.78,0C79.53,43.11,79.65,43.15,79.78,43.17Zm-3.61,6.14c0-.44.08-.58.53-.62l.46,0a.25.25,0,0,1,.29.25c0,.27.07.54.07.82A6.48,6.48,0,0,1,76.73,53,12.26,12.26,0,0,0,76,54.36a4.11,4.11,0,0,0-.19,2.93c.05.12.16.28,0,.38s-.26-.07-.36-.16A1.87,1.87,0,0,1,75,56.42c0-.28-.06-.57-.09-1s.11-.8.23-1.25a4.08,4.08,0,0,1,.33-.74,7.14,7.14,0,0,0,.76-2.82A11.66,11.66,0,0,0,76.17,49.31Zm-.66,2.95c-.08.26-.2.51-.28.77a1.76,1.76,0,0,1-.43.65,4.9,4.9,0,0,0-1.19,2.16c-.07.29-.16.57-.23.86s-.25.3-.39.14a1.16,1.16,0,0,1-.32-.54,2.33,2.33,0,0,1,.06-.91,7.15,7.15,0,0,1,.77-1.69,6.48,6.48,0,0,0,.93-3c0-.34,0-.67,0-1a.37.37,0,0,1,.23-.4,8.45,8.45,0,0,1,.81-.26c.17,0,.24.09.26.23l.11.89A8.44,8.44,0,0,1,75.51,52.26Zm-1.69-.32a6.13,6.13,0,0,1-.73,1.5c-.31.5-.62,1-.94,1.51-.13.21-.23.27-.43.22a.41.41,0,0,1-.34-.44,2.4,2.4,0,0,1,.05-.46c.16-.56.3-1.13.5-1.67a3,3,0,0,1,.52-.81,4.22,4.22,0,0,0,.85-1.64c.13-.49.17-.51.74-.56a1.45,1.45,0,0,1,.07.26A7.75,7.75,0,0,1,73.82,51.94ZM66.45,62a4.92,4.92,0,0,0,.23.6c.09.23.17.47.28.69a2.74,2.74,0,0,1,.2,1.26A1.72,1.72,0,0,1,66,66.23a8.63,8.63,0,0,1-3.38.5s-.1,0-.21-.09c.12-.15.21-.28.32-.4a5.13,5.13,0,0,0,1.37-2.4,4,4,0,0,0,.11-.92,5.26,5.26,0,0,0-.28-2,.89.89,0,0,0-.33-.41,4.22,4.22,0,0,1-.69-.56,2.08,2.08,0,0,1-.45-1.26,4.32,4.32,0,0,1,1.44-3.59,1,1,0,0,1,.4-.23c.18-.06.3,0,.31.23a.92.92,0,0,1,0,.28c-.18.46-.41.92-.55,1.39A7.36,7.36,0,0,0,63.75,58a.34.34,0,0,0,.18.27c.13.07.22,0,.27-.16.14-.3.27-.61.41-.91s.32-.64.48-1l.06-.14a.3.3,0,0,1,.19.34c0,.3,0,.6-.06.89s0,.33.26.42c.45.15.91.3,1.35.48a2.34,2.34,0,0,1,.7.41A1.72,1.72,0,0,0,70.14,58a1.74,1.74,0,0,1,.1-.19c.3-.48.13-.84-.34-1.13-.2-.11-.41-.18-.62-.28a.63.63,0,0,1-.15-.11c.05,0,.07-.1.11-.12.47-.23.94-.47,1.41-.68a1.06,1.06,0,0,1,1.5.67,2.86,2.86,0,0,1,.2,1.33,8,8,0,0,1-.47,2.34,3.32,3.32,0,0,1-1.32,1.57,3.64,3.64,0,0,1-2.8.55A3.94,3.94,0,0,1,67,61.7l-.16-.08c-.13-.06-.28-.08-.35.05A.5.5,0,0,0,66.45,62ZM45.08,53.11a.76.76,0,0,1,.26,0,7.57,7.57,0,0,1,2.86,1.57s.07.1.13.18a1.89,1.89,0,0,1-.21.1c-.34.09-.47.25-.37.59a4.22,4.22,0,0,0,.37.88c.43.86.9,1.71,1.32,2.57a8.75,8.75,0,0,1,.35,1c.07.2.14.4.2.61a1.35,1.35,0,0,1,0,.29L50,61a1.59,1.59,0,0,1-.21-.15,19.27,19.27,0,0,1-1.69-2.13,31.74,31.74,0,0,1-2.48-4.26c-.17-.34-.33-.69-.48-1A1.14,1.14,0,0,1,45.08,53.11ZM47.14,58a18.37,18.37,0,0,0,2.2,2.91c.28.28.58.54.86.81a.67.67,0,0,1,.12.16.41.41,0,0,0,0,.09,1.4,1.4,0,0,1-.31-.09,5.67,5.67,0,0,1-1.81-1.6c-.65-.88-1.28-1.78-1.9-2.68-.4-.58-.77-1.18-1.12-1.79a11,11,0,0,1-.62-1.24c-.12-.26-.21-.53-.31-.8-.05-.11-.14-.24,0-.34a.45.45,0,0,1,.47.09A3.59,3.59,0,0,1,45,54,30.47,30.47,0,0,0,47.14,58Zm3,1.7a12.54,12.54,0,0,0-1-2.19l-.9-1.7a3,3,0,0,1-.11-.32.54.54,0,0,1,.55,0,11.86,11.86,0,0,1,1.39.79c1,.72,2,1.47,3,2.23a3.73,3.73,0,0,1,1.36,2.09.86.86,0,0,1,0,.35,5.47,5.47,0,0,1-.56,1.62,5.18,5.18,0,0,1-.44.51.44.44,0,0,1-.52.1,4,4,0,0,1-2.29-2A9.24,9.24,0,0,1,50.12,59.71Zm3.73,3.57a3.09,3.09,0,0,0,.72-1.3,10.86,10.86,0,0,1,.73-2l.25-.39a4.59,4.59,0,0,1,1-1.24,1.44,1.44,0,0,0,.27-.33A2.61,2.61,0,0,1,59.53,57l.17,0a.18.18,0,0,1,.12.28c-.06.1-.14.19-.2.29a4.13,4.13,0,0,0-.5,1.52,2.36,2.36,0,0,0,.08,1,6.17,6.17,0,0,1,0,3.22,4.82,4.82,0,0,1-.59,1.33,2,2,0,0,1-.93.76,2.46,2.46,0,0,1-.27.08h-.14c-.35-.11-.71-.21-1.05-.33a16.77,16.77,0,0,1-1.74-.89,2.55,2.55,0,0,1-.6-.45A.29.29,0,0,1,53.85,63.28ZM57.48,41.8a5.66,5.66,0,0,1-1.74-.45.3.3,0,0,1-.19-.34c0-.16.16-.16.28-.17.72-.08,1.44-.2,2.17-.22a1.27,1.27,0,0,0,1-.68,5,5,0,0,0,.31-.56A1.11,1.11,0,0,1,60.69,39c.16.09.22.22.13.36a5.51,5.51,0,0,1-1.67,1.92A3.58,3.58,0,0,1,57.48,41.8Zm.46,1s-.07.08-.11.09c-.35.1-.71.18-1.06.29a4.13,4.13,0,0,0-.75.32,5.43,5.43,0,0,0-.51.32.45.45,0,0,1-.56,0,.48.48,0,0,1-.05-.54,1.2,1.2,0,0,1,1-.64,16.26,16.26,0,0,1,1.71,0C57.75,42.59,57.89,42.59,57.94,42.77Zm3.69-2.55c.26-.19.51-.39.77-.57s.33-.12.53.1c-.16.1-.31.22-.47.31a6.7,6.7,0,0,0-1.37,1.13,2.92,2.92,0,0,1-.38.32.57.57,0,0,1-.22.11c-.3.06-.46,0-.5-.3s.09-.44.38-.48A2.63,2.63,0,0,0,61.63,40.22Zm.47,14.27a1.9,1.9,0,0,0,.11.27c.06-.12.11-.19.14-.26.17-.47.31-.94.5-1.41a3.12,3.12,0,0,1,.72-1c.11-.1.22-.19.38-.14s.14.19.17.32a3.73,3.73,0,0,0,1.64,2.46.9.9,0,0,1,.39.52,5.6,5.6,0,0,1,.26,1.62c0,.13,0,.26.06.39s0,.24-.22.23a.69.69,0,0,1-.24,0c-.27-.07-.32-.14-.32-.43s0-.67,0-1a1.18,1.18,0,0,0-.08-.31c-.1-.24-.23-.29-.48-.19l-.18.07c0-.15,0-.26,0-.37,0-.28,0-.56-.21-.71a.79.79,0,0,0-.87.08,3.84,3.84,0,0,0-1,1,3.34,3.34,0,0,0-.55,1.12.63.63,0,0,1-.08.17.37.37,0,0,1-.14-.32c-.09-.48-.15-1-.26-1.44s-.21-.61-.3-.92a1.58,1.58,0,0,1-.07-.53,3.26,3.26,0,0,1,.38-1.55,1.27,1.27,0,0,1,.65-.58,1.68,1.68,0,0,1,.42,0,1.82,1.82,0,0,1-.11.46,6.58,6.58,0,0,0-.59,1.33A2.91,2.91,0,0,0,62.1,54.49ZM62,50.11a2.46,2.46,0,0,1-.29.07l-1.82.09c-.25,0-.31-.05-.33-.27s0-.33.28-.36l1.46-.16a.28.28,0,0,1,.2.05c.18.15.35.32.52.47C62,50,62,50.07,62,50.11Zm-.84,1.44.21,0c.18.05.23.16.14.32a3.24,3.24,0,0,0-.45,1.85,2.22,2.22,0,0,0,.18.87,6.74,6.74,0,0,1,.43,1.94c0,.22-.06.29-.28.22a2.17,2.17,0,0,0-.84-.05,2.28,2.28,0,0,1-.74-.08A3,3,0,0,0,58,56.7a7.18,7.18,0,0,0-.72.39l-.36.23a4,4,0,0,1,0-.42c.06-.3.12-.61.19-.9a6,6,0,0,1,1.23-2.59,4.42,4.42,0,0,0,.46-.67A2.5,2.5,0,0,1,61.18,51.55Zm-3,14a2.69,2.69,0,0,0,1-1.21,7.12,7.12,0,0,0,.31-.76,5.81,5.81,0,0,0,.19-3.25,3.34,3.34,0,0,1-.07-1.66,2.77,2.77,0,0,1,.71-1.34.89.89,0,0,1,.59-.24.4.4,0,0,1,.27.12c0,.05,0,.18-.06.25-.21.35-.45.68-.64,1a2.78,2.78,0,0,0-.39,1.22,2.46,2.46,0,0,0,0,.37l.11,0a5.13,5.13,0,0,1,1.67-2.37l.11,0c0,.12,0,.22,0,.33a3,3,0,0,0,.56,2.07,2.39,2.39,0,0,0,.6.49.89.89,0,0,1,.42.63,5,5,0,0,1,.18,1.88A4.51,4.51,0,0,1,62,66.35a1.85,1.85,0,0,1-1.46.34A9.66,9.66,0,0,1,58.14,66C57.91,65.88,57.9,65.73,58.14,65.57Zm2.37,5.14a10.49,10.49,0,0,1,1.93-2.46,5.88,5.88,0,0,0,.58-.64.84.84,0,0,1,.82-.42c.46,0,.45,0,.6.35a1.66,1.66,0,0,1,0,1.22c-.19.55-.5,1-.74,1.57-.13.29-.23.6-.37.88A10.72,10.72,0,0,0,63,72.58a2.34,2.34,0,0,0-.08.53c0,.44,0,.88,0,1.32a1.18,1.18,0,0,0,.5,1,1.6,1.6,0,0,0,.52.3A6.67,6.67,0,0,1,66,77a3.1,3.1,0,0,1,.86,1.17A3,3,0,0,1,67,79.26a.51.51,0,0,1-.3.45q-.21.12-.3-.09a4.29,4.29,0,0,1-.24-.59,3.55,3.55,0,0,0-1.26-1.82,2.51,2.51,0,0,0-.73-.37,7.41,7.41,0,0,1-2.4-1.2,4.56,4.56,0,0,1-1-.9A3.72,3.72,0,0,1,60,72.33,3.84,3.84,0,0,1,60.51,70.71ZM72.85,50.28a4.06,4.06,0,0,1-.59,1.13c-.27.35-.54.7-.79,1.06A4,4,0,0,0,70.91,54,2.24,2.24,0,0,1,70,55.35a.58.58,0,0,1-.48.11c0-.22.06-.4.08-.57.06-.52.13-1,.16-1.57a3,3,0,0,1,.66-1.59c.31-.43.61-.88.89-1.33a.38.38,0,0,1,.36-.23,1.77,1.77,0,0,0,.84-.18.36.36,0,0,1,.29,0S72.88,50.19,72.85,50.28Zm-2.16-.53c-.27.59-.54,1.18-.82,1.76s-.43.87-.63,1.31-.24.59-.36.89-.18.46-.28.69c-.22.51-.44,1-.65,1.54-.11.26-.18.54-.31.78a2.62,2.62,0,0,1-.42.57c-.14.14-.24.1-.36,0a.91.91,0,0,1-.15-.68,9.3,9.3,0,0,0,.13-1.17,2.35,2.35,0,0,0-.13-.74,8.6,8.6,0,0,0-.31-.94A5.66,5.66,0,0,0,65.09,52a8.7,8.7,0,0,0-1.56-1.05,6.77,6.77,0,0,1-2.26-2.13,8,8,0,0,1-.87-1.66,2.81,2.81,0,0,1-.35-1.3.53.53,0,0,0,0-.21,3.25,3.25,0,0,1,.06-2.11,1.71,1.71,0,0,1,.31-.56,3.62,3.62,0,0,1,1.52-1.14,3.73,3.73,0,0,1,1.36-.19,2.67,2.67,0,0,0,.4,0,.37.37,0,0,0,.31-.52A8,8,0,0,0,63.52,40a1.75,1.75,0,0,0-1.23-.89c-.37-.07-.74-.17-1.1-.27a.94.94,0,0,1-.49-.38.51.51,0,0,1,.56-.07,4.42,4.42,0,0,0,1.15.22,2,2,0,0,1,1.3.6,2.77,2.77,0,0,1,.4.66.88.88,0,0,0,.61.56.9.9,0,0,1,.23.08c.17.09.21.21.08.34a.41.41,0,0,0-.15.41.65.65,0,0,0,.35.44,7,7,0,0,1,.59-.62,1.79,1.79,0,0,1,.93-.49l.11,0a4,4,0,0,1,2.28-.17,2.85,2.85,0,0,1,1.26.56,4.64,4.64,0,0,1,1.17,1.29,5.81,5.81,0,0,1,.58,3.7,2.42,2.42,0,0,1-.1.45c0,.19-.1.37-.14.56s0,.11,0,.17c-.16.43-.32.87-.5,1.29s-.28.54-.42.81Zm4-15.22a13.32,13.32,0,0,1-1.78,1.9,3.25,3.25,0,0,1-.52.37.2.2,0,0,1-.3-.26c.1-.3.21-.6.34-.89s.28-.55.4-.83a3.69,3.69,0,0,1,1.36-1.66,2,2,0,0,1,1.14-.36,1.7,1.7,0,0,0,.69-.16,4.92,4.92,0,0,1,.85-.26.53.53,0,0,1,.54.32,1.67,1.67,0,0,1,.07.29.36.36,0,0,1-.19.41,1.9,1.9,0,0,1-.4.14,1.45,1.45,0,0,1-.36,0A2.08,2.08,0,0,0,74.71,34.53Zm1,4.54a1.61,1.61,0,0,1,.72.72l-.78-.27a1,1,0,0,1-.17-.13.22.22,0,0,1,0-.29A.18.18,0,0,1,75.67,39.07ZM72.57,34c-.17.33-.36.64-.55,1a.84.84,0,0,0-.08.2c-.06.4-.35.54-.67.71a5,5,0,0,1-1.29.39,4.76,4.76,0,0,1-2.37-.06,2.33,2.33,0,0,1-.31-.08,1.7,1.7,0,0,1-.22-.15s0-.07,0-.11l.33-.06c.26,0,.53,0,.79,0s.54-.08.81-.13.23-.06.35-.07a2.06,2.06,0,0,0,1.3-.67c.24-.24.47-.51.72-.74a6.22,6.22,0,0,1,.64-.51.67.67,0,0,1,.23-.1c.13,0,.29-.06.35.08A.46.46,0,0,1,72.57,34Zm-4,3.82s.07.08.13.14-.1.11-.14.12a3.16,3.16,0,0,0-1.12.62,3.2,3.2,0,0,1-1.71.52c-.26,0-.53,0-.79,0s-.4,0-.6,0h-.29a.63.63,0,0,1,.53-.4,4.41,4.41,0,0,0,2.09-.91A1.61,1.61,0,0,1,68.58,37.83Zm11,3a7.85,7.85,0,0,1-1.08-.47,7.56,7.56,0,0,1-2-1.2c-.16-.14-.35-.25-.52-.38l-.27-.17c-.23-.13-.25-.36,0-.45a2.16,2.16,0,0,1,1.06-.29c.62.09,1.26.13,1.87.27a3.6,3.6,0,0,1,1.59.78c.33.28.66.58,1,.89a4,4,0,0,0,1.56,1.1s.06.06.11.11a.34.34,0,0,1-.4.21A18,18,0,0,1,79.57,40.82Zm2.25-.92L80.94,39a4.25,4.25,0,0,0-2-1.16,6.59,6.59,0,0,0-1.76-.27l-.18,0a.51.51,0,0,1-.12-.09c.07-.09.12-.23.21-.27a3.21,3.21,0,0,1,.76-.29,5.12,5.12,0,0,1,2.17,0,3,3,0,0,1,2.06,1.31A5.13,5.13,0,0,0,84,39.84c.35.21.74.37,1.12.55l.15.08c.12.1.1.23,0,.27a.49.49,0,0,1-.21,0,5.28,5.28,0,0,1-2-.18A2.47,2.47,0,0,1,81.82,39.9ZM77.33,27.58c0,.15.11.34-.06.46a.44.44,0,0,1-.5,0,1,1,0,0,1-.54-.8,4.7,4.7,0,0,0-.4-1.73l0-.09c.29-.1.6,0,.9,0l1-.12a2.69,2.69,0,0,1-.13.36A2.58,2.58,0,0,0,77.33,27.58Zm3.61,4.64a.94.94,0,0,1-.91.43,2,2,0,0,1-1.33-.76,2.47,2.47,0,0,1-.34-.62.87.87,0,0,1,.23-1,2.85,2.85,0,0,1,1-.71,1.13,1.13,0,0,1,1.32.49,1.48,1.48,0,0,1,.28,1.09A1.42,1.42,0,0,1,80.94,32.22ZM85.22,40a7.3,7.3,0,0,1-2-1.16,5.29,5.29,0,0,1-.58-.58c-.28-.34-.53-.7-.83-1.08a.87.87,0,0,1,.28-.1,14.84,14.84,0,0,1,2.11,0,6.64,6.64,0,0,1,3.12,1.33c.56.43,1.06.93,1.58,1.4,0,0,0,.06.07.14a1.52,1.52,0,0,1-.22.08c-.72.06-1.45.11-2.17.19A2.75,2.75,0,0,1,85.22,40Zm-2.84-6.87a2,2,0,0,1,.88-1.71,1.41,1.41,0,0,1,1.48,0,2.74,2.74,0,0,1,.85.81,1.39,1.39,0,0,1,0,1.87,2.45,2.45,0,0,1-.92.83.86.86,0,0,1-.66.09,2.24,2.24,0,0,1-1.49-1.12A2.76,2.76,0,0,1,82.38,33.16Zm5.67,5.14a.29.29,0,0,1-.36,0,8.67,8.67,0,0,0-2-1.11c-.27-.11-.29-.19-.11-.41a3.11,3.11,0,0,1,3.31-1,11.63,11.63,0,0,1,3,1.31l1.9,1.07c.25.14.5.31.75.48a1.85,1.85,0,0,1,.2.2l-.4.21a8.06,8.06,0,0,1-1.86.59,2.4,2.4,0,0,1-1.61-.34c-.45-.24-.87-.54-1.32-.77A1.5,1.5,0,0,0,88.05,38.3Zm4.87-1.18c-.52-.31-1.06-.59-1.59-.87-.31-.16-.63-.3-.94-.45a.75.75,0,0,1-.13-.06,2.11,2.11,0,0,1-.19-.23c.08-.06.14-.15.23-.17a7.3,7.3,0,0,1,2.37-.27,7.06,7.06,0,0,1,1.71.38,15.17,15.17,0,0,1,2.48,1.17,1.78,1.78,0,0,1,.27.17c.05,0,.08.09.16.16-.23.23-.43.47-.26.74a3.07,3.07,0,0,0,.58.55c-.06,0-.11.1-.17.11l-1.69.26a1.12,1.12,0,0,1-.8-.22C94.29,37.94,93.61,37.53,92.92,37.12Zm3.49-10.24a1.62,1.62,0,0,1,.09-.38.94.94,0,0,1,.15-.28A1.34,1.34,0,0,1,98,26a1.52,1.52,0,0,1,1,1.52A1.07,1.07,0,0,1,98,28.57a1.64,1.64,0,0,1-1.15-.41A1.52,1.52,0,0,1,96.41,26.88Zm-2.29-2c0-.18.09-.35.14-.52a1,1,0,0,1,.77-.61,1.09,1.09,0,0,1,1.12.53,1.38,1.38,0,0,1,.14.7c0,.21,0,.33,0,.44a.67.67,0,0,1-.67.65,1.77,1.77,0,0,1-1.14-.32A.93.93,0,0,1,94.12,24.87ZM93.39,27c.52,0,1,0,1.57,0a.78.78,0,0,1,.34.17,2.32,2.32,0,0,1,.73.91,4.32,4.32,0,0,0,1,1.43,3.21,3.21,0,0,1,.9,1.1,1.66,1.66,0,0,1,.07,1,.27.27,0,0,1-.14.16,2.64,2.64,0,0,1-2,.13.5.5,0,0,0-.6.13,3,3,0,0,1-.8.6,1.26,1.26,0,0,1-1.73-.41.87.87,0,0,1,0-.92c.1-.22.23-.43.34-.66a.46.46,0,0,0-.08-.53.7.7,0,0,1-.19-.48l.29-.11c.29-.1.33-.22.15-.47a6.4,6.4,0,0,0-.4-.51,1.13,1.13,0,0,1-.19-1.11A.7.7,0,0,1,93.39,27Zm-3.86-1.44A8.4,8.4,0,0,1,90,24.47a2.32,2.32,0,0,1,.58-.67,1,1,0,0,1,1.09,0,1.9,1.9,0,0,1,1.06,1.06,1.54,1.54,0,0,1-.11,1.47,2.55,2.55,0,0,1-1.08.9,2.58,2.58,0,0,1-.58.13,1.67,1.67,0,0,1-.87-.18A1.45,1.45,0,0,1,89.53,25.59Zm-.47,3.29a3.56,3.56,0,0,1,.74-.76,1.27,1.27,0,0,1,1.08-.19,1.85,1.85,0,0,1,.93.57,1,1,0,0,1,.24.72,1.29,1.29,0,0,1-.84,1.12,3.37,3.37,0,0,1-.34.1,1.19,1.19,0,0,1-.42,0,2.07,2.07,0,0,1-1.4-.95A.52.52,0,0,1,89.06,28.88ZM89.74,31a5.5,5.5,0,0,1,.73.36,1.73,1.73,0,0,1,.82,1.07,1,1,0,0,0,.08.24,1.23,1.23,0,0,1,0,.94,1.46,1.46,0,0,1-.44.67,1.6,1.6,0,0,1-.52.3c-.44.13-.85.42-1.31.3-.72.1-1.08-.31-1.41-.84a2.42,2.42,0,0,1-.18-1.93,1.72,1.72,0,0,1,.82-1A1.46,1.46,0,0,1,89.74,31Zm-1.36-1.9a2.39,2.39,0,0,1-.77,1.13.76.76,0,0,1-1-.07.4.4,0,0,1-.09-.15c-.11-.43-.21-.86-.31-1.28a2.7,2.7,0,0,1,.29-1.05.69.69,0,0,1,.56-.39A1.32,1.32,0,0,1,88.38,29.06ZM85.29,23.7a2.36,2.36,0,0,1,.64-.8,1.22,1.22,0,0,1,1.31-.06A1.64,1.64,0,0,1,88,24.35a1.13,1.13,0,0,1-.69,1.14,1.37,1.37,0,0,1-.62.09,1.58,1.58,0,0,1-1.07-.32A1.4,1.4,0,0,1,85.29,23.7Zm.19,3.46a1.38,1.38,0,0,1,.29,1v.25a1.28,1.28,0,0,1-.94,1.19,3.81,3.81,0,0,1-1.29.23,1.74,1.74,0,0,1-1.42-1.13,2,2,0,0,1,.63-2.06,1.69,1.69,0,0,1,1.11-.41A1.78,1.78,0,0,1,85.48,27.16ZM81.65,23a1.34,1.34,0,0,1,1.06-.33,4.15,4.15,0,0,1,.78.09,1.21,1.21,0,0,1,1,1.5,2.6,2.6,0,0,1-.89,1.41A2.43,2.43,0,0,1,83,26a1,1,0,0,1-1-.33,1.47,1.47,0,0,1-.55-1,3.41,3.41,0,0,0-.19-.62A2.29,2.29,0,0,1,81.65,23Zm-3,1.67A2,2,0,0,1,80.08,24a1.51,1.51,0,0,1,1,.46.32.32,0,0,1,.11.18,2.06,2.06,0,0,0,.56,1.12.55.55,0,0,1,.08.59,4.58,4.58,0,0,1-1.68,2.13,1.43,1.43,0,0,1-1.75-.09,1.79,1.79,0,0,1-.72-1.55,2.3,2.3,0,0,1,.21-.87A3,3,0,0,1,78.67,24.66ZM74,20l.86-1.05a4.08,4.08,0,0,0,.81-1.34s0-.07.11-.14.14.1.19.15a8.79,8.79,0,0,1,1.41,1.92A10.37,10.37,0,0,1,78,21c.17.5.2,1,.32,1.5a1.91,1.91,0,0,1,0,1.06,3.4,3.4,0,0,1-.2.64,1.28,1.28,0,0,1-1.29.65,3.68,3.68,0,0,1-.82-.09,3.36,3.36,0,0,1-.78-.34c-.37-.2-.73-.44-1.1-.65a.32.32,0,0,1-.2-.4.66.66,0,0,0-.2-.71,1.38,1.38,0,0,1-.33-.78A2.41,2.41,0,0,1,74,20Zm-6.86,7c0-.31.08-.61.13-.92a4.17,4.17,0,0,1,.08-.49c.05-.22.1-.44.16-.66l.09-.34.15-.47.1-.3c.06-.16.11-.32.16-.47s.06-.14.08-.2l.47-1.38a6.56,6.56,0,0,1,.34-1,3.68,3.68,0,0,0,.29-1.42c0-.31.16-.37.43-.2a2.66,2.66,0,0,1,.77,1c.32.53.6,1.08.93,1.6a9.61,9.61,0,0,0,1.81,2c.64.57,1.25,1.18,1.86,1.78a2.6,2.6,0,0,1,.63,1.26,1.16,1.16,0,0,1-.31,1,2.35,2.35,0,0,1-1.25.83,2.08,2.08,0,0,1-1.26,0c-.48-.14-.79.1-.84.6s0,.72,0,1.08a2.17,2.17,0,0,1-.31.86.31.31,0,0,1-.17.12,7.84,7.84,0,0,1-.83.23.23.23,0,0,1-.21-.07.26.26,0,0,1,0-.22,6.47,6.47,0,0,0,.55-.91,4,4,0,0,0,.36-1.4,1.78,1.78,0,0,0,0-.29l-.39.4a1.6,1.6,0,0,1-1.09.53,8.13,8.13,0,0,1-1.21,0,1.45,1.45,0,0,1-1-.71A3.24,3.24,0,0,1,67.14,27Zm.2,5a1,1,0,0,1-.21.13,2,2,0,0,0-1.25,2.23c0,.2.12.23.31.14.42-.22.85-.43,1.26-.67a.66.66,0,0,0,.32-.4c.11-.65.61-.85,1.12-1a17.8,17.8,0,0,1,2.51-.54c.81-.16,1.62-.31,2.41-.53A9.11,9.11,0,0,0,77,29.8l.4-.28a.65.65,0,0,1,.17,0,1.72,1.72,0,0,1,0,.33c0,.15-.06.3-.08.46a1.42,1.42,0,0,1-1,1.25,7.64,7.64,0,0,1-2.72.52.65.65,0,0,0-.34.1,6.83,6.83,0,0,1-1.8.66c-.45.13-.9.24-1.35.35l-.1,0a4.49,4.49,0,0,0-1,.41c-.44.23-.89.44-1.35.64-.73.31-1.49.56-2.24.85l-1.69.65c-.34.12-.67.24-1,.35a1.48,1.48,0,0,0-.54.29l.06.1a4.18,4.18,0,0,0,1.27.16l2.19-.34c.13,0,.31-.1.37.09s-.14.21-.25.26a6.79,6.79,0,0,1-.87.39c-.38.12-.77.2-1.14.31s-.61.21-.91.32c-.5.18-.69.11-.94-.34l0-.07c-.25-.44-.25-.44-.74-.25l-.1,0c-.41.13-.41.13-.45.54s-.17.38-.43.24a1.09,1.09,0,0,1-.17-.13.58.58,0,0,0-.79-.06,11,11,0,0,1-1.91.88c-.35.14-.72.22-1.09.33l-1.33.4c-.37.11-.73.22-1.09.36s-.61.31-.91.47a.59.59,0,0,0-.18.17c-.16.2-.16.28,0,.48s.14.41-.19.52a1.35,1.35,0,0,1-.35.06,9.46,9.46,0,0,0-2,.39c-.2,0-.39.1-.59.13a.33.33,0,0,1-.25-.08.44.44,0,0,1,0-.3c0-.06.08-.12.13-.17.32-.31.65-.63,1-.93A2.26,2.26,0,0,0,51.23,39a1.43,1.43,0,0,1,.15-.37,3.87,3.87,0,0,1,.33.28c.12.15.23.3.34.46a.35.35,0,0,0,.51.16l1.91-.9,1.2-.55a1.23,1.23,0,0,0,.65-.76,6.14,6.14,0,0,1,.38-.92,3.83,3.83,0,0,1,1.48-1.37,2.12,2.12,0,0,1,.79-.3c.15,0,.29,0,.39.16a.75.75,0,0,1-.16.15,2.56,2.56,0,0,0-1.26,1.5,2.07,2.07,0,0,0-.08.42.37.37,0,0,0,.44.43,1.71,1.71,0,0,0,.55-.14c1.12-.56,2.28-1,3.44-1.49.71-.29,1.4-.6,2.1-.9l.93-.37c-.11-.19-.22-.33-.29-.48a1.39,1.39,0,0,1,.13-1.18,2.09,2.09,0,0,1,1.38-1.16A.7.7,0,0,1,67.34,31.93Zm-5.68-9.1a2.54,2.54,0,0,1-.19-.94,3.21,3.21,0,0,1,.26-1.32c.15-.31.24-.64.36-1,0-.13.11-.24.14-.37a4.1,4.1,0,0,0,.1-.48c0-.23.11-.28.31-.17.84.48,1.7.93,2.53,1.44a2.46,2.46,0,0,1,1,1.16,5.73,5.73,0,0,1,.45,1.71,7,7,0,0,1-.17.7,2.21,2.21,0,0,1-.31.82,3,3,0,0,0-.32.55c-.14.27-.28.55-.4.83s-.13.22-.28.13c-.48-.27-.94-.57-1.42-.81a5,5,0,0,1-1.16-.94A3.91,3.91,0,0,1,61.66,22.83ZM56.58,28.7a2.7,2.7,0,0,1,.08-.39l.15-.8c0-.05,0-.1,0-.14l.36-1.53a1.09,1.09,0,0,0,.07-.24,7.32,7.32,0,0,0-.07-2.38c0-.2-.08-.4-.12-.6a1.51,1.51,0,0,0-.09-.38,2,2,0,0,1-.17-.94c0-.52.36-.75.83-.5a2.55,2.55,0,0,1,.47.34,8.44,8.44,0,0,1,1.23,1.43,10.81,10.81,0,0,0,1.41,1.75,4.77,4.77,0,0,0,1.11.71c.23.11.45.25.69.36s.58.26.87.38.66.26,1,.41a2.93,2.93,0,0,1,.65.36,1.31,1.31,0,0,1,.63,1.06,3.55,3.55,0,0,0,.38,1.29,6,6,0,0,1,.3.8A1.11,1.11,0,0,1,66,30.77a1.92,1.92,0,0,1-1,.57,1.62,1.62,0,0,0-.33.13,1.48,1.48,0,0,1-1.55-.36c-.08-.08-.11-.22-.31-.18a.92.92,0,0,0,.09.59,5,5,0,0,1,.16.55c0,.11,0,.24.07.35a2.78,2.78,0,0,1,.14,1.37,3.11,3.11,0,0,1-.29,1,1,1,0,0,1-.5.42c-.58.26-1.17.49-1.81.75a.8.8,0,0,1,.25-.45,7.68,7.68,0,0,0,.86-.85,2.54,2.54,0,0,0,.54-1.8,5,5,0,0,0-.06-.54c0-.22-.18-.26-.35-.11s-.09.11-.14.16a3.72,3.72,0,0,1-1.39,1.1,2,2,0,0,1-1.52.2,2.25,2.25,0,0,0-.35-.09,2.43,2.43,0,0,1-1.53-1,3.52,3.52,0,0,1-.55-2.21C56.5,29.82,56.54,29.26,56.58,28.7Zm-5-.11a2.27,2.27,0,0,1-1.27-1.2A3.45,3.45,0,0,1,50.16,25c.05-.2.08-.4.11-.6a1.55,1.55,0,0,1,0-.21c.17-.48.34-1,.52-1.44a.72.72,0,0,1,.2-.29c0-.05.15-.11.21-.09.25.07.49.17.73.26s.45.2.68.3a7.75,7.75,0,0,1,2.56,1.9,4.51,4.51,0,0,1,1.06,1.91,1.25,1.25,0,0,1-.36,1.32.77.77,0,0,0-.19,1,4.23,4.23,0,0,1,.11,1.7c0,.2-.14.28-.34.31,0-.24,0-.46,0-.68a1.13,1.13,0,0,0-.33-.85,2.62,2.62,0,0,0-1-.66.51.51,0,0,0-.38,0,1.71,1.71,0,0,1-1.35,0C52.22,28.83,51.91,28.71,51.6,28.59Zm-8.69-1.84A1,1,0,0,1,44,26.28a2.48,2.48,0,0,1,.68.36c.67.43,1.32.89,2,1.3a12.86,12.86,0,0,0,1.36.62c.3.14.6.27.91.39l1,.34,1,.35,1.11.4c.23.09.47.17.69.28a7.46,7.46,0,0,1,2,1.21,4.17,4.17,0,0,1,.89,1.23A9.7,9.7,0,0,1,56,33.89a.57.57,0,0,1,0,.32,5.78,5.78,0,0,1-.33,1.41c-.11.21-.2.43-.29.65a2,2,0,0,1-.94,1,2.1,2.1,0,0,1-1.83.19,1,1,0,0,0-.37-.09c-.37,0-.53.07-.61.44a.71.71,0,0,1,0,.14c0,.3,0,.29-.31.37a3.67,3.67,0,0,0-.46.16,1,1,0,0,1,0-.35c.09-.28.21-.56.32-.83,0-.12,0-.12,0-.31-.21.31-.43.59-.62.88A2.92,2.92,0,0,1,49,39.05a2.41,2.41,0,0,1-1.6.13,4.44,4.44,0,0,1-2.61-2A2.25,2.25,0,0,1,44.49,36a2.74,2.74,0,0,0,0-.5,12.9,12.9,0,0,1-.09-3c0-.34,0-.67.07-1a5.1,5.1,0,0,0-.23-1.91,2.48,2.48,0,0,0-.64-1.06,3.65,3.65,0,0,1-.72-.89A.72.72,0,0,1,42.91,26.75Zm1,25.15.8-.17c.2,0,.41,0,.61,0l.89,0a1.14,1.14,0,0,0,.25-.06l.47-.15a3.38,3.38,0,0,0,0-1.38l-.25.31A3.09,3.09,0,0,0,45,49.91a3.28,3.28,0,0,1-2.7-1.62,1.91,1.91,0,0,1-.36-1.07.58.58,0,0,0,0-.2l-.28.15L41,46.61a1,1,0,0,0,.11.83,2.28,2.28,0,0,0,.6.6s.1,0,.12.07.12.18.1.23-.18.11-.27,0a2.7,2.7,0,0,1-.93-.91.57.57,0,0,1,0-.14c0-.36-.07-.71-.09-1.07a.7.7,0,0,1,0-.25c0-.08.08-.2.14-.22s.17.06.22.13c.2.26.39.54.59.81a1.45,1.45,0,0,0,.18.13c0-.13,0-.21,0-.3,0-.51.06-1,.1-1.53,0-.27,0-.53.06-.79s.09-.44.15-.66c.1-.38.23-.75.32-1.13A2,2,0,0,0,42.13,41c-.23-.4-.51-.77-.76-1.16s-.47-.87-.68-1.32a10.16,10.16,0,0,1-.33-1.2,1.92,1.92,0,0,1,0-1.23,6.36,6.36,0,0,1,.25-.85,8,8,0,0,1,.93-1.36,3.53,3.53,0,0,0,.7-1.31,3.65,3.65,0,0,0,.23-1c0-.05,0-.11.11-.22.07.1.14.15.15.22a1.4,1.4,0,0,1,0,.5c-.11.46-.23.91-.37,1.37s-.26.76-.39,1.14c0,.06-.06.12-.1.21l-.25-.21s-.06,0-.07.08a.32.32,0,0,0,.08.32c.18.24.16.43,0,.73-.19-.2,0-.47-.17-.7-.06,0-.13.08-.15.13a4.13,4.13,0,0,0-.21,2.83,4.56,4.56,0,0,0,1.12,1.89c.22.25.46.49.69.73a1.49,1.49,0,0,1,.46,1.09,6.12,6.12,0,0,1-.21,1.52,6,6,0,0,0-.29,2.53,4,4,0,0,0,2.07,3.12,7,7,0,0,0,.86.34l.43.18c.15.06.31.12.46,0-.27-.19-.53-.37-.78-.57a6.22,6.22,0,0,1-2-2.55,5.35,5.35,0,0,1-.44-1.79,4.1,4.1,0,0,1,.39-1.62,4.68,4.68,0,0,0,.38-1.22,1.89,1.89,0,0,0-.71-1.64c-.31-.28-.65-.51-1-.78a4.57,4.57,0,0,1-.43-.45l.05-.05c.29.17.59.32.86.51a5.71,5.71,0,0,1,1.55,1.47A2,2,0,0,1,45,42.14a3.89,3.89,0,0,1-.33.94A3.65,3.65,0,0,0,44.25,45a1.55,1.55,0,0,0,.35.85,11.33,11.33,0,0,0,1.68,1.85l1.1.86c.15-.14.11-.32.11-.47a1.71,1.71,0,0,1,.87-1.57,2.27,2.27,0,0,1,1.06-.41,3,3,0,0,0,.52-.1l.32-.07a1.22,1.22,0,0,1,1.38.39,1.24,1.24,0,0,0,.26.25c.22.18.37.12.43-.16a.88.88,0,0,0,0-.17,5.19,5.19,0,0,0-.22-1.41,1.75,1.75,0,0,0-.55-.81,2.22,2.22,0,0,0-.82-.39,7.22,7.22,0,0,0-2.31-.2,2.09,2.09,0,0,1-.43,0,.33.33,0,0,1-.31-.33c0-.18.14-.19.27-.23a2.57,2.57,0,0,1,1.22-.22c.24,0,.47.09.7.13.06,0,.11,0,.17.06a5.19,5.19,0,0,1,2.09.93.65.65,0,0,0,.22.11.44.44,0,0,0,.64-.4,1.15,1.15,0,0,1,.33-.69,2.65,2.65,0,0,1,1.16-.85,2.45,2.45,0,0,1-.24.46.85.85,0,0,0-.18.63,1,1,0,0,1-.52.91l-.71.49a.43.43,0,0,0-.21.42c0,.41,0,.81.07,1.22,0,.07.08.14.13.22s.15-.11.18-.18a2.53,2.53,0,0,1,1.26-1.37,3.8,3.8,0,0,1,1.17-.3,5.35,5.35,0,0,1,1.63.16,2.27,2.27,0,0,1,1.37.88c.17.22.26.48.41.71a1,1,0,0,0,.2.21h0c.11-.27.37-.27.59-.32,0,0,.17.1.19.18a.33.33,0,0,1-.07.25.35.35,0,0,1-.4.05l-.31-.16h0a1.7,1.7,0,0,0,.21.85.21.21,0,0,1,0,.1c.07.48.16,1,.19,1.45a3.46,3.46,0,0,1-.09.78,3.09,3.09,0,0,1-.09.53,4.83,4.83,0,0,1-.3.83c-.35.62-.74,1.21-1.1,1.83s-.58,1-.87,1.55a7.93,7.93,0,0,0-.4.83c-.14.38-.23.77-.34,1.16,0,.13-.06.25-.08.38s-.11.54-.16.81-.07.4-.13.59a3.36,3.36,0,0,1-.37,1c-.13.16-.22.36-.35.53a.38.38,0,0,1-.64,0,20.66,20.66,0,0,0-3.21-3.46c-.82-.75-1.68-1.45-2.5-2.19a16.33,16.33,0,0,1-1.28-1.35,3.08,3.08,0,0,1-.34-.62l-.12-.21s-.07,0-.08,0c-.15.35-.15.36-.54.25a3.05,3.05,0,0,0-2,.06.93.93,0,0,1-.78,0C43.71,52,43.8,51.93,43.91,51.9ZM42,38.32c-.18.06-.23,0-.22-.11s.07-.06.07-.06Zm-.46-.78c.23.11.23.11.1.43C41.49,37.82,41.45,37.7,41.54,37.54Zm-.11-.42a1.23,1.23,0,0,1,0-1.17A2.56,2.56,0,0,1,41.43,37.12ZM26.84,55a1.69,1.69,0,0,1,.32-.94.25.25,0,0,1,.33-.1c.21.07.44.12.65.17l.49.12.24.08c.52.11,1.05.2,1.57.33s1.2.3,1.79.46a.41.41,0,0,1,.3.56,1.09,1.09,0,0,1-.05.17c-.13.36-.33.41-.65.22a10.27,10.27,0,0,0-1.23-.64,9.69,9.69,0,0,0-1.19-.38c-.2,0-.42,0-.63-.08a4.07,4.07,0,0,0-1.46.36c-.11,0-.29.1-.35,0A.51.51,0,0,1,26.84,55Zm5.29,1.66c-.06.3-.15.59-.25,1-.28-.28-.49-.5-.72-.7A2.65,2.65,0,0,0,29,56.28a4.19,4.19,0,0,0-1,.33,9.12,9.12,0,0,0-.79.47c-.16.09-.27,0-.27-.14s0-.62,0-.93a.32.32,0,0,1,.33-.31c.2,0,.4-.05.6-.05a8.29,8.29,0,0,1,1.32,0,8.75,8.75,0,0,1,1.88.4,3.14,3.14,0,0,1,.89.36C32,56.51,32.14,56.62,32.13,56.68Zm-5.19,3.7c-.09.25-.16.52-.25.77a1.37,1.37,0,0,1-.13.2c-.18-.05-.15-.19-.17-.3-.05-.27-.09-.54-.15-.81a1.94,1.94,0,0,1,.07-1.19c0-.07.07-.14.06-.2,0-.39.25-.69.32-1.05a.52.52,0,0,1,.35-.34A5.75,5.75,0,0,1,29.23,57a3.59,3.59,0,0,1,2.36.68c.1.07.1.07.11.35-.34,0-.65-.09-.95-.15a2.24,2.24,0,0,0-1.06,0,2.41,2.41,0,0,0-.94.3,6,6,0,0,0-.59.39A4.07,4.07,0,0,0,26.94,60.38Zm6-1.36a.56.56,0,0,1-.06.64l-.53.65a2.24,2.24,0,0,1,0-.26c0-.17,0-.34,0-.5s-.16-.32-.4-.2-.53.25-.79.4a2.89,2.89,0,0,0-1.36,1.85,2.67,2.67,0,0,0-.16,1,2.82,2.82,0,0,0,1.26,2.22,2.66,2.66,0,0,0,.64.3,8.21,8.21,0,0,1,1.22.5,1.05,1.05,0,0,0,.35.08c.45,0,.58-.11.41-.54a3.6,3.6,0,0,0-.56-1,2.48,2.48,0,0,1-.51-1.63c0-.32,0-.64,0-1a1,1,0,0,1,.11-.27c.08,0,.19.06.24.12a3.54,3.54,0,0,0,.82.62,2.24,2.24,0,0,1,.93,1.06,1.19,1.19,0,0,0,.08.2.23.23,0,0,0,.18.09s.11-.07.13-.13a.49.49,0,0,0,0-.24,3.17,3.17,0,0,1,.49-1.29,1.18,1.18,0,0,0,.07-.2,2.55,2.55,0,0,1,.68-1.31.89.89,0,0,0,.31-.77A1.75,1.75,0,0,1,37,58.14.93.93,0,0,1,38,58c.15.07.17.17.06.32s-.22.25-.31.39a3.14,3.14,0,0,0-.48,1.84c0,.29,0,.58,0,.86A3.12,3.12,0,0,1,37,62.82a3.82,3.82,0,0,1-.67,1,8.36,8.36,0,0,0-1,1.32c-.19.35-.36.72-.52,1.09a.17.17,0,0,0,.15.26,2.4,2.4,0,0,0,.81-.09,5.89,5.89,0,0,0,2.17-1.7,5.57,5.57,0,0,0,1-1.94,2.42,2.42,0,0,0,0-.47,2.74,2.74,0,0,0,.06-.63,6,6,0,0,0-.2-1.58.68.68,0,0,1,0-.56c.21,0,.23.1.26.22a3.12,3.12,0,0,0,.15.39,1.85,1.85,0,0,1,.06,1.16,1.13,1.13,0,0,0,.12.75,1.8,1.8,0,0,1-.2,2,2.85,2.85,0,0,1-.76.75,2,2,0,0,0-.84,1.11,1.06,1.06,0,0,1-.83.65,4.8,4.8,0,0,0-1,.26,1.56,1.56,0,0,1-.81.09,1.8,1.8,0,0,1-1.06-.24.57.57,0,0,0-.35,0,1.6,1.6,0,0,1-1.25-.4.94.94,0,0,0-.58-.24,2.32,2.32,0,0,1-1.16-.41,10.77,10.77,0,0,1-.86-.65,1.76,1.76,0,0,1-.57-.88c-.1-.41-.3-.78-.38-1.19a8.81,8.81,0,0,1-.16-1.45,2.81,2.81,0,0,1,.06-.82,2.42,2.42,0,0,1,1-1.53,3.81,3.81,0,0,1,2.13-.61A1.12,1.12,0,0,1,32.92,59Zm-1.25,5.19c-.18,0-.23-.09-.2-.22s.06-.06.08-.05S31.68,64.07,31.67,64.21Zm-.38-.88c.18.13.15.27.11.43C31.16,63.63,31.16,63.63,31.29,63.33Zm-.17-.21c-.18-.06-.17-.21-.19-.35a1.46,1.46,0,0,1,.15-1A2.06,2.06,0,0,1,31.12,63.12Zm1.52-8.23c-.08.09-.17,0-.25,0s-.44-.28-.67-.4a6.11,6.11,0,0,0-3-.73h-1a3.68,3.68,0,0,1-.41-.08c0-.33.17-.44.42-.49a5.65,5.65,0,0,1,2.17,0,4.85,4.85,0,0,1,1.84.82c.29.21.55.45.83.67C32.63,54.73,32.73,54.78,32.64,54.89Zm.6-.07c-.11.14-.19.13-.31,0-.25-.34-.49-.7-.77-1a3.7,3.7,0,0,0-1.8-1.23,1.67,1.67,0,0,0-.49-.08,7.62,7.62,0,0,0-1.07,0,4,4,0,0,0-.82.24l-.39.11a1.2,1.2,0,0,1,1.3-1.05,5,5,0,0,1,1.75.28A6.16,6.16,0,0,1,33.25,54,.55.55,0,0,1,33.24,54.82Zm2.14-1.43c-.12.06-.19,0-.23-.14S35,53,35,52.81l.1-.08a4,4,0,0,1,.36.35A.2.2,0,0,1,35.38,53.39Zm2.23,1.26a3.77,3.77,0,0,1-1.32-1.55,2,2,0,0,1-.12-.64,2.31,2.31,0,0,0-.56-1.32,4,4,0,0,0-1.52-1.22c-.32-.15-.65-.3-1-.42a3.58,3.58,0,0,0-.49-.08,1.46,1.46,0,0,1-.39-.12,1,1,0,0,1,.9-.1,4.15,4.15,0,0,0,.48.11,3.15,3.15,0,0,1,1.94.89,6.74,6.74,0,0,1,1.33,1.49,3,3,0,0,1,.27.54c.14.41.26.82.38,1.23.06.2.1.42.15.62A.63.63,0,0,1,37.61,54.65Zm.7-.72-.09.38c0,.11,0,.22,0,.36a.25.25,0,0,1-.14-.38,2.57,2.57,0,0,0,0-1.62,3.67,3.67,0,0,0-.35-1.23c-.24-.42-.43-.87-.67-1.3a3,3,0,0,0-.92-1.07,2.8,2.8,0,0,0-1.75-.63h-.25a4.2,4.2,0,0,0-2,.47l0,0a1.31,1.31,0,0,1-.31.27,1.19,1.19,0,0,1-.39,0c0,.14,0,.25.05.39a2.61,2.61,0,0,1-.27.06c-.3,0-.36.13-.19.38l.71,1a16.2,16.2,0,0,0,1.8,2.17c.19.19.41.35.62.53a.47.47,0,0,1-.77,0c-.32-.42-.64-.84-1-1.24a3.14,3.14,0,0,0-1.42-1,3.07,3.07,0,0,0-1.72-.19.63.63,0,0,1-.55,0,1.32,1.32,0,0,1,.12-.2c.34-.49.69-1,1-1.46a3.23,3.23,0,0,1,1.06-1c.32-.19.66-.33,1-.49l.06,0a10.58,10.58,0,0,1,1.94-.3c.52,0,1,0,1.57,0s.85.11,1.28.16l.46.07c.17,0,.33.1.5.15a2.18,2.18,0,0,0,.23.09,3.39,3.39,0,0,1,1.06.48,1.16,1.16,0,0,1,.5.72c0,.18.11.36.17.54s.09.27-.08.42c-.2-.21-.16-.54-.39-.73s-.36-.44-.57-.63a4.42,4.42,0,0,0-.71-.48,1.31,1.31,0,0,0-.8-.24c-.26,0-.55-.11-.85.08a1.06,1.06,0,0,0,.19.16,3.87,3.87,0,0,1,1.72,1.94,3.31,3.31,0,0,1,.33,1.49c0,.39,0,.77,0,1.15A3.22,3.22,0,0,1,38.31,53.93Zm2.37,3.37c0,.14,0,.27,0,.41h-.08l-.06-.18-.15-.5s0-.07,0-.1c0-.4-.29-.6-.57-.83s-.83-.78-1.23-1.18a.29.29,0,0,1-.07-.25,1,1,0,0,1,.14-.32c.27-.52.57-1,.79-1.55a5.83,5.83,0,0,0,.29-1.25c.05-.32,0-.32.16-.52.15,0,.15.17.17.28.09.77.22,1.53.26,2.31s0,1.48,0,2.22c0,.15-.06.33.09.45l.08,0c.1-.35.2-.7.29-1.06s.1-.46.14-.7a4.24,4.24,0,0,0,.11-.7c0-.46,0-.91,0-1.36a5.29,5.29,0,0,0-.61-2.3c-.06-.12-.15-.24,0-.42a2.29,2.29,0,0,1,.23.16c.4.45.82.9,1.2,1.37s.78,1,1.14,1.51.72,1.07,1.07,1.6a1.8,1.8,0,0,1,.09.28c-.16.1-.24,0-.33-.05A3.72,3.72,0,0,0,42.27,54a2.37,2.37,0,0,0-.46,0c-.4,0-.44,0-.59.44A8.66,8.66,0,0,0,40.68,57.3ZM44,62.6a1.54,1.54,0,0,1,0,.3l-.1,0c-.11-.11-.24-.21-.35-.33a23.2,23.2,0,0,1-1.89-2.51,3.8,3.8,0,0,1-.53-1.94,10.65,10.65,0,0,1,.44-3.46c0-.16.13-.21.3-.25a2.12,2.12,0,0,1,1.65.42,4.81,4.81,0,0,1,1.71,1.73,2.91,2.91,0,0,1,.42,1.24,1,1,0,0,1-.22.77l-.25.3a3.64,3.64,0,0,0-.8,1.5A7.81,7.81,0,0,0,44,62.6Zm6.47,5.66a3.78,3.78,0,0,1-.56-.13c-.3,0-.61-.1-.92-.13s-.33.09-.43.3a2.19,2.19,0,0,0-.22,1.18.75.75,0,0,1-.3.68.34.34,0,0,1-.51,0,1.44,1.44,0,0,1-.31-.39,3.18,3.18,0,0,1-.43-1.12,2.33,2.33,0,0,0-.08-.38,6,6,0,0,0-.18-.76,3.87,3.87,0,0,0-.33-.9c-.34-.6-.72-1.18-1.09-1.76-.22-.35-.45-.7-.66-1.06a1,1,0,0,1-.11-.47,9.74,9.74,0,0,1,.51-3.17,3.39,3.39,0,0,1,.53-.92A3.32,3.32,0,0,0,46,58.19s0-.06,0-.08l.08,0s.06,0,.08,0a22.66,22.66,0,0,0,2,2.72,9.2,9.2,0,0,0,1.39,1.53c.5.38,1,.73,1.56,1.08.75.49,1.5,1,2.28,1.45.54.33,1.1.6,1.67.88s1,.46,1.46.65c.34.13.7.2,1.06.3l.18.08c0,.25-.22.25-.34.35s-.3.1-.44,0a.41.41,0,0,0-.19-.08,12.61,12.61,0,0,0-2.2-.28,3.56,3.56,0,0,1-1.4-.38c-.37-.16-.71-.38-1.08-.55a3.88,3.88,0,0,1-1-.82A4.38,4.38,0,0,1,50,63.42c0-.11-.11-.21-.23-.17a.27.27,0,0,0-.15.21,7.58,7.58,0,0,0-.21,1.77,3.6,3.6,0,0,0,.67,2,3,3,0,0,0,.58.47.61.61,0,0,0,.64,0,.66.66,0,0,1,.48,0,2.18,2.18,0,0,0,.79.19,1.79,1.79,0,0,1,.65.13v.11a4,4,0,0,1-.59.08C51.88,68.3,51.15,68.29,50.43,68.26Zm3.46-.68a4.46,4.46,0,0,1-1.57-.2,4.48,4.48,0,0,0-.72-.28,1.41,1.41,0,0,0-.49.08,2.62,2.62,0,0,1-1.06-1.31.39.39,0,0,1,0-.21c0-.11,0-.27.11-.31s.17.12.24.2a3.84,3.84,0,0,0,.61.6,7.88,7.88,0,0,0,1.31.77,3.31,3.31,0,0,0,1.16.34C53.69,67.26,53.72,67.3,53.89,67.58Zm-.35,18.81c-.33.18-.7.24-1,.41a.83.83,0,0,1-.32.07c-.67.1-1.34.18-2,.3a3.17,3.17,0,0,0-.8.28.69.69,0,0,0-.22,1.14c.39.43.82.84,1.21,1.28a14.11,14.11,0,0,1,1.09,1.36A5.15,5.15,0,0,1,52,92.42a1.07,1.07,0,0,1-.56,1.29,4.93,4.93,0,0,1-1.28.42,2.41,2.41,0,0,0-.8.35,4.87,4.87,0,0,0-.5.4c-.15.12-.14.21,0,.3l.14,0a.38.38,0,0,1,.07.67,1.18,1.18,0,0,1-.7.26,1.44,1.44,0,0,0-.86.17c-.18.12-.32,0-.43-.14-.31-.34-.32-.34-.71-.11a.5.5,0,0,1-.57,0,.39.39,0,0,1,.39-.28.94.94,0,0,0,.66-.37c.14-.18.28-.36.41-.55a4.8,4.8,0,0,1,1.26-1.2,4.56,4.56,0,0,1,1.17-.58,1.55,1.55,0,0,0,1-.81,1.44,1.44,0,0,0,0-1.28,3.09,3.09,0,0,0-.55-.7c-.32-.32-.67-.6-1-.9a2.85,2.85,0,0,1-.9-1.18,1.18,1.18,0,0,1,.19-1.15,2.5,2.5,0,0,1,1.3-1q.72-.24,1.44-.51a.91.91,0,0,0,.48-1.28,2.78,2.78,0,0,0-.76-.84l-.44-.36a1.85,1.85,0,0,1-.54-1,1,1,0,0,1,0-.45,2.49,2.49,0,0,1,.93-1.32,6.41,6.41,0,0,1,1.29-.82,6.11,6.11,0,0,0,1.77-1.29c.59-.73.19-1.41-.55-1.69-.37-.13-.76-.19-1.13-.29a2.86,2.86,0,0,1-2-1.6c-.14-.3-.29-.6-.41-.9a1,1,0,0,1-.07-.39c0-.51,0-1,0-1.54a2.21,2.21,0,0,1,.13-.47c0-.1.07-.2.11-.3a4.43,4.43,0,0,1,1.32-1.95s.08,0,.17-.06c0,.14,0,.25,0,.36a4,4,0,0,0,.2,1.23c.12.31.16.64.29.95a3.74,3.74,0,0,0,1.63,2c.51.28,1,.5,1.57.74A6.09,6.09,0,0,1,57.63,76a2.24,2.24,0,0,1,.51,1c0,.21.14.41.16.62a2.42,2.42,0,0,1-.37,1.39,3.57,3.57,0,0,1-1.51,1.47,3.24,3.24,0,0,1-1.69.47c-.53,0-1,0-1.58,0a2,2,0,0,0-1.21.45,3.42,3.42,0,0,0-.4.36,1.67,1.67,0,0,0-.21.29c.55.31,1,.58,1.52.84a3.31,3.31,0,0,1,1.41,1.46A1.68,1.68,0,0,1,53.54,86.39Zm3.16,3c-.35-.11-.7-.18-1.05-.3a1,1,0,0,1-.6-.53c.11,0,.14,0,.16,0a2.31,2.31,0,0,0,1.33.49.91.91,0,0,1,.61.33.59.59,0,0,1,.05.78c-.14.19-.2.45-.43.59l-.23.12a.93.93,0,0,1,.08-.24l.37-.42A.54.54,0,0,0,56.7,89.42Zm-1.55-3.87a.18.18,0,0,1,0-.07,3.23,3.23,0,0,1,1.18-1.08c-.07.29-.33.41-.52.6A8,8,0,0,1,55.15,85.55ZM55,88.46c-.2-.14-.23-.26-.06-.42C55.06,88.16,55.07,88.27,55,88.46Zm-.29-.95a.78.78,0,0,1,0-.72A.83.83,0,0,1,54.7,87.51Zm5.17-3a.75.75,0,0,1-.15.38,3.24,3.24,0,0,1-1.7,1,6.61,6.61,0,0,1-1.25.26,1.11,1.11,0,0,0-.31.09c-.36.13-.43.3-.31.66a2.58,2.58,0,0,0,1.2,1.45c.44.26.9.49,1.32.77a2.93,2.93,0,0,1,1.09,1.12.89.89,0,0,1,.05.62,1.22,1.22,0,0,1-.76.79c-.41.13-.8.31-1.2.42l-.92.29a4.18,4.18,0,0,0-1,.53c-.49.34-.52.86.12,1.21a3.17,3.17,0,0,1,1.2,1,3.34,3.34,0,0,1,.49,2.73c-.05.21-.08.42-.13.63a.69.69,0,0,1,0,.24c-.2.49-.43,1-.63,1.47a1.57,1.57,0,0,0-.08.49c0,.25,0,.5,0,.75,0,.06,0,.12-.11.23a1.43,1.43,0,0,1-.29-1.55c.07-.21.12-.43.17-.65s0-.19.06-.28A4.09,4.09,0,0,0,56.77,97a2.45,2.45,0,0,0-1.19-1.78c-.37-.22-.71-.48-1-.73a.66.66,0,0,1-.25-.64c0-.23.06-.47.1-.72a2.27,2.27,0,0,1,.3.06A5.62,5.62,0,0,1,56,91.81a3.59,3.59,0,0,1,1.53-.65,1.93,1.93,0,0,0,.74-.34.66.66,0,0,0,.1-1,3.31,3.31,0,0,0-1.28-.94,3,3,0,0,1-1.39-1.14A1.67,1.67,0,0,1,56,85.6a7.44,7.44,0,0,1,1.43-1,4.52,4.52,0,0,0,.52-.32c.32-.24.28-.57-.09-.71a1.45,1.45,0,0,0-1.1-.16c-.23.09-.39-.15-.29-.39a2.68,2.68,0,0,1,.35-.77.94.94,0,0,1,.89-.43.48.48,0,0,1,.17,0,3.53,3.53,0,0,1,1.79,1.62A1.66,1.66,0,0,1,59.87,84.49ZM68,93.16a2.8,2.8,0,0,1-1.25,1.5,2.8,2.8,0,0,0-1,1,3.38,3.38,0,0,0-.35.86,1.54,1.54,0,0,0,.06.63,8.79,8.79,0,0,1,.15.87c0,.68,0,1.36,0,2a2,2,0,0,1-.18.87,3.17,3.17,0,0,1-.29.69c-.18.21-.35.44-.53.66,0,0-.14,0-.21.08a.74.74,0,0,1-.08-.22c0-.43.05-.86.09-1.28a5.83,5.83,0,0,0-.13-2,8.63,8.63,0,0,0-.37-1A2.3,2.3,0,0,1,64,96.08a3.58,3.58,0,0,1,1-1.17,1.43,1.43,0,0,0,.31-.38,1.84,1.84,0,0,0-.92.47,3.23,3.23,0,0,0-1.08,1.73c0,.09-.08.18-.09.27a1,1,0,0,0,0,.42c.09.31.21.61.32.91s.31.75.43,1.13a5.81,5.81,0,0,1,.18,1.81,1,1,0,0,1-.38.7.22.22,0,0,1-.16-.28,2.28,2.28,0,0,0-.47-1.6c-.37-.57-.77-1.12-1.15-1.68a2,2,0,0,1-.38-1.58,1.46,1.46,0,0,1,.21-.46,5.65,5.65,0,0,1,2.29-2.28,2.94,2.94,0,0,0,.6-.39.42.42,0,0,0,0-.68,1.12,1.12,0,0,0-.79-.37.64.64,0,0,1-.24-.05A7.36,7.36,0,0,1,62,91.9a3.6,3.6,0,0,1-1.27-1.41,3,3,0,0,1-.16-1.61,1.61,1.61,0,0,1,.35-.72,2.79,2.79,0,0,1,.93-.78.58.58,0,0,0,.27-.21,2,2,0,0,1,.94-.8,1.4,1.4,0,0,0,.59-.54,1.15,1.15,0,0,0,1.05-1.46.81.81,0,0,0-1-.71l-1.25,0a.61.61,0,0,1-.54-.31,1.67,1.67,0,0,0-.9-.67,4,4,0,0,1-1.36-.76,1.36,1.36,0,0,0-.27-.13,3,3,0,0,0,.23.5,4.41,4.41,0,0,0,1.73,1.5c.25.13.53.21.79.32a1.27,1.27,0,0,1,.25.16.54.54,0,0,1-.61.06,9.3,9.3,0,0,1-1.43-.85,3.79,3.79,0,0,1-1.17-1.32,2.7,2.7,0,0,1-.41-1.52,4.46,4.46,0,0,1,.3-1.14,1.32,1.32,0,0,1,.42-.43,5,5,0,0,1,1.6-.9,1,1,0,0,1,.42,0,4.75,4.75,0,0,1,.63.14l1.22.38c.32.11.62.23.93.36s.68.28,1,.43l.29.12a.49.49,0,0,1,.19.1c.08.09.21.2.2.3s-.19.16-.32.15a4.52,4.52,0,0,1-.62-.12,1.7,1.7,0,0,0-.24-.09,18.48,18.48,0,0,0-2.69-.33,1.76,1.76,0,0,0-1.65,1.29,5.4,5.4,0,0,1-.15.61c.23,0,.32-.15.42-.25a3.53,3.53,0,0,1,1.62-1.07,2.65,2.65,0,0,1,1.84,0c-.08.16-.23.14-.35.16a2.08,2.08,0,0,0-1.44.89,1.07,1.07,0,0,0,0,1.09,2,2,0,0,0,.84.85,1.28,1.28,0,0,0,1.13,0l1-.35a1.2,1.2,0,0,1,1,.28,2.41,2.41,0,0,1,1,1.11,2.07,2.07,0,0,1,.15.58c0,.23,0,.46,0,.69a2.1,2.1,0,0,1-.83,1.63A3.24,3.24,0,0,0,66,88c-.16.28-.33.27-.55,0l-.15-.17s-.08,0-.09,0a2.83,2.83,0,0,0-1.15,1.36.73.73,0,0,0,.47,1c.45.15.89.34,1.34.46a6.16,6.16,0,0,1,1.2.53,1.49,1.49,0,0,1,.85,1c0,.09.07.18.1.27A1.16,1.16,0,0,1,68,93.16ZM62.63,84.5s0,0,.06-.1a.52.52,0,0,1,.07.12s0,0-.07,0S62.63,84.52,62.63,84.5Zm.31.14c.22.39.59.6.65,1.08A1.86,1.86,0,0,1,62.94,84.64Zm16,1.63a.36.36,0,0,1-.62.22c-.81-.65-1.63-1.28-2.43-1.94a49.15,49.15,0,0,1-4-3.67,30.33,30.33,0,0,1-3-3.44,14.88,14.88,0,0,1-1.55-2.6,6.92,6.92,0,0,1-.59-1.94c-.07-.61-.17-1.21-.26-1.81a1.47,1.47,0,0,1,0-.21l.09,0a1.68,1.68,0,0,1,.2.29c.27.73.5,1.47.81,2.18a13.41,13.41,0,0,0,.84,1.53,28.43,28.43,0,0,0,6.19,7c1.23,1.05,2.42,2.15,3.63,3.24a4.82,4.82,0,0,1,.5.6A.71.71,0,0,1,79,86.27Zm2.12-38.94c-.39.13-.81.2-1.21.3s-1,.3-1.48.41-1,.18-1.52.26a4.34,4.34,0,0,0-.7.14c-.66.2-1.31.43-2,.64s-1.17.39-1.77.55a8.08,8.08,0,0,1-1.1.15,1,1,0,0,1-.24,0,1,1,0,0,1,.14-.63.52.52,0,0,1,.49-.23c.45,0,.91,0,1.36,0a4,4,0,0,0,.77-.13c.42-.11.83-.23,1.24-.37s.92-.31,1.38-.46c.11,0,.21-.09.19-.23s-.14-.16-.27-.16a.33.33,0,0,1-.2,0,.35.35,0,0,1-.14-.22s.11-.13.17-.13a6.55,6.55,0,0,1,.89,0c.31,0,.33.05.38-.25a1,1,0,0,1,.34-.62.6.6,0,0,1,.45-.17h1.18a.92.92,0,0,0,.73-.21c0-.05.15,0,.23,0s0,.2,0,.25a1.27,1.27,0,0,1-.93.55c-.3,0-.6,0-.9,0a1.42,1.42,0,0,0-.44.11.29.29,0,0,0-.15.36c.05.15.17.16.29.15l1.46-.16,1-.1a6.19,6.19,0,0,0,.62-.13.71.71,0,0,1,.24-.06,3.46,3.46,0,0,0,1.31-.32,4,4,0,0,0,1.81-1.33c-.14,0-.22-.06-.3,0a8.66,8.66,0,0,1-1.44.24.71.71,0,0,0-.38.24,1.12,1.12,0,0,1-1.16.2l-.47-.24c-.14-.08-.15-.2,0-.27a.74.74,0,0,1,.34-.1A2.41,2.41,0,0,0,82.33,45l1-.38a1.25,1.25,0,0,1,1,.08l.36.15c.24.1.3.33.1.5a.39.39,0,0,0-.11.45.39.39,0,0,0,.39.27,1.31,1.31,0,0,0,.39,0c.34-.06.68-.14,1-.21l.14,0c.19-.09.22-.19.1-.37l-.13-.15c.18-.58.18-.58-.44-1,.09-.14.25-.11.38-.13l2.58-.39a2.3,2.3,0,0,0,.75-.23c-.35-.24-.72-.11-1-.26a.39.39,0,0,1,.23-.38c.31-.19.63-.35.92-.56a3.33,3.33,0,0,0,.48-.51s0-.09,0-.12-.21-.07-.3,0a4.06,4.06,0,0,1-1.65.71,10,10,0,0,1-1.63.24,1.09,1.09,0,0,1-.18,0,7.93,7.93,0,0,0-3.09.58,1.49,1.49,0,0,1-1.19,0,.58.58,0,0,1,.19-.1,2.59,2.59,0,0,0,1-.28,6.16,6.16,0,0,1,1.12-.38,24.34,24.34,0,0,1,2.94-.61c.74-.08,1.48-.26,2.22-.4a1,1,0,0,1,.56,0c.06,0,.15,0,.23,0a3,3,0,0,1,.5-.19,11.48,11.48,0,0,0,1.7-.52,8.44,8.44,0,0,1,1.39-.31c.49-.08,1-.13,1.46-.18.27,0,.55,0,.83,0a2.7,2.7,0,0,0,.41-.07.62.62,0,0,1,.78.54,2.55,2.55,0,0,1,0,.39c0,1.08,0,2.15,0,3.23a1.7,1.7,0,0,1-.5,1.26c-.2.2-.33.2-.61,0l.17-.17a1.57,1.57,0,0,0,.5-1.32c0-.51,0-1,0-1.54s0-1,.06-1.5a.6.6,0,0,0-.46-.63c-.2,0-.3.06-.29.26.06.87.13,1.73.2,2.6,0,.4,0,.46-.41.48s-.55,0-.76.21c0,0-.18,0-.26,0a2.38,2.38,0,0,1-.31-.17,1.23,1.23,0,0,0-.49,1c0,.23.12.33.35.29a2,2,0,0,0,.31-.08c.12,0,.25-.08.38-.1s.4,0,.42.17a.5.5,0,0,1-.32.46,1.16,1.16,0,0,1-.32,0,10.36,10.36,0,0,0-2.89,0l-.5.05c-1,.11-2,.2-2.92.34-.67.09-1.34.25-2,.37s-1.43.28-2.16.35c-.91.1-1.81.29-2.72.44-.11,0-.23,0-.35.06A2.92,2.92,0,0,0,81.07,47.33Zm4-2.75c.05-.06.09-.16.14-.17a2.1,2.1,0,0,1,.43,0c-.08.22-.21.31-.37.31S85.14,44.63,85.07,44.58Zm-2.15,7.74a1.64,1.64,0,0,1-1,0c0-.34.45-.43.45-.8l-.37.07a.2.2,0,0,1-.23-.14.61.61,0,0,1,.43-.81,1.84,1.84,0,0,1,1.16,0c.34.1.42.08.63-.19s.62-.76.92-1.15a1.71,1.71,0,0,1,.66-.53,5.19,5.19,0,0,0,.65-.37c.1,0,.19-.11.31,0l-.34.53.07.07,1.14-.64c.1.11.19.21.3.35-.14.16-.27.32-.41.5a.5.5,0,0,0,.21,0l1.67-.39A1.66,1.66,0,0,1,90,49c.49.15,1,.25,1.48.41a8.36,8.36,0,0,1,1.92.65,2.19,2.19,0,0,0,1.16.34A2.32,2.32,0,0,0,95.87,50c.37-.23.55-.21.75.17a1.74,1.74,0,0,1,.22.71A5.11,5.11,0,0,0,97,52.06a.54.54,0,0,1-.06.51c0,.08-.16.12-.24.17a.74.74,0,0,1-.14-.22c0-.11,0-.24-.06-.35a1.13,1.13,0,0,0-.9-.73L94.12,51l-1.28-.35-1.07-.29A19.82,19.82,0,0,0,89.12,50a4.85,4.85,0,0,0-1.86.12,1.36,1.36,0,0,0-.5.24,9.66,9.66,0,0,1-2.39,1.33Zm1.7,3.31c-.14,0-.29.06-.37-.11a.3.3,0,0,1,.11-.38l.46-.34a10.25,10.25,0,0,1,1-.65A6,6,0,0,1,87,53.73a2.39,2.39,0,0,0,.83-.41c.16-.12.31-.25.48-.36a2.32,2.32,0,0,1,.79-.33,4.44,4.44,0,0,0,.9-.33,2.31,2.31,0,0,1,1.19-.16.45.45,0,0,1,.34.71c0,.07-.1.13-.16.22L87.47,54.5l-2.14.89C85.1,55.48,84.86,55.56,84.62,55.63Zm5.12,3.82a.71.71,0,0,1-.21-.08,7.72,7.72,0,0,0-1.81-.67,3.77,3.77,0,0,1-1.89-1.22c0-.06-.1-.2-.07-.25A.32.32,0,0,1,86,57.1a4.83,4.83,0,0,1,.74.22,1,1,0,0,1,.29.21.78.78,0,0,0,.62.22,2.81,2.81,0,0,1,2.21,1,1.57,1.57,0,0,1,.2.3C90.2,59.28,90.07,59.46,89.74,59.45ZM90.29,58a4.15,4.15,0,0,1-1.2-.21,5.8,5.8,0,0,1-1.91-1.07,1.72,1.72,0,0,1-.55-.7.48.48,0,0,1,.06-.56,4.89,4.89,0,0,1,.46-.45l.56-.41,3.81-1.41c.28.09.37.23.32.51s-.12.51-.18.76-.11.57-.17.85c-.15.72-.3,1.44-.48,2.15A.6.6,0,0,1,90.29,58Zm3.92,18.21a.78.78,0,0,1-.59.36c-.29-.11-.59-.18-.86-.31a.68.68,0,0,0-.48-.06,1.83,1.83,0,0,1-1.68-.88.38.38,0,0,1,.07-.46,1,1,0,0,1,.37-.26,3.45,3.45,0,0,1,1.66-.08,2.26,2.26,0,0,1,1.32.91s.07.12.12.18A.55.55,0,0,1,94.21,76.19ZM93.11,71a2,2,0,0,1,1.41.48,3.09,3.09,0,0,1,.37.43.29.29,0,0,1,0,.39.33.33,0,0,1-.39.11c-.25-.07-.51-.14-.75-.23a1.4,1.4,0,0,0-.81,0c-.36.08-.72.18-1.08.27a.67.67,0,0,1-.31,0,.34.34,0,0,1-.24-.54A1.74,1.74,0,0,1,93.11,71Zm6.78-2.31a3.94,3.94,0,0,1-.73.74,1,1,0,0,1-1.09,0,5.33,5.33,0,0,1-1.86-1.36,1.23,1.23,0,0,0-1-.38.52.52,0,0,0-.4.27,2.3,2.3,0,0,1-1.31.89,1.55,1.55,0,0,1-1.67-.53,2.48,2.48,0,0,1-.59-1.61,1.53,1.53,0,0,1,.93-1.45A2.74,2.74,0,0,1,93.31,65a1.62,1.62,0,0,1,1.47,1.06,1.34,1.34,0,0,0,1,.86c.21.07.36-.07.54-.15a.82.82,0,0,0,.5-.77c.08-1.55.21-3.1.32-4.65,0-.15,0-.31,0-.5a4.87,4.87,0,0,0-.3-1.61,7.53,7.53,0,0,1-.33-1,3.86,3.86,0,0,1,.08-1.91A9,9,0,0,0,96.68,54a1.21,1.21,0,0,0-.11-.3.3.3,0,0,1,.13-.38.27.27,0,0,1,.35.06.74.74,0,0,1,.24.46,16.25,16.25,0,0,0,.27,1.7,25.58,25.58,0,0,1,.4,3c.14,1,.21,2.09.32,3.13.07.66.17,1.31.26,2,.11.85.23,1.7.34,2.55a1,1,0,0,0,.37.66,3.34,3.34,0,0,1,.68.82A.9.9,0,0,1,99.89,68.69Z" transform="translate(-25.9 -16.45)"/><path class="cls-2" d="M56,51c-.19-.08-.33-.14-.46-.21s-.44-.24-.67-.34a.18.18,0,0,0-.19,0,.24.24,0,0,0,0,.19,12,12,0,0,0,.84,1.68A4.37,4.37,0,0,1,56,53.52a1.06,1.06,0,0,1,0,.5,9.6,9.6,0,0,1-.34,1.16c-.17.44-.37.87-.58,1.3a8.52,8.52,0,0,1-.48.83c-.14.21-.27.21-.44,0-.46-.46-.92-.93-1.37-1.41a2.58,2.58,0,0,1-.57-1.1.58.58,0,0,1,0-.32A6.06,6.06,0,0,1,53,52.58a1.13,1.13,0,0,0,.17-.6c0-.23-.16-.31-.37-.21l-.57.29a.28.28,0,0,1-.36,0,2.28,2.28,0,0,1-.48-.94,5,5,0,0,1-.16-.51,2,2,0,0,1,0-1.16,2.66,2.66,0,0,1,.94-1.4c.07-.06.12-.14.18-.2a.63.63,0,0,0-.86-.28,4.36,4.36,0,0,0-1,.72c-.19.16-.18.25-.07.47a1.09,1.09,0,0,1,.14.43c0,.45,0,.91,0,1.36a1.12,1.12,0,0,0,.27.89,2.14,2.14,0,0,1,.39.67.78.78,0,0,1-.12.75.14.14,0,0,1-.26,0c-.07-.09-.11-.19-.17-.28a2.55,2.55,0,0,0-.31-.47,2.62,2.62,0,0,1-.75-1.43,3,3,0,0,0-.21-.45c-.11-.22-.11-.34,0-.49A.54.54,0,0,0,49.5,49a1.39,1.39,0,0,1,0-1.27A4.4,4.4,0,0,0,49.6,47a2.64,2.64,0,0,1,0-.28c0-.07.08-.17.14-.18a.26.26,0,0,1,.21.07c.06,0,.08.12.12.17.17.25.29.26.47,0a1.34,1.34,0,0,1,.2-.21.35.35,0,0,1,.51,0c.35.24.68.49,1,.71s.58.17.77-.27a3.19,3.19,0,0,1,.48-.87.83.83,0,1,1,1.35,1l0,.06c-.41.45-.37.44-.08,1a4,4,0,0,0,.56.74,1.78,1.78,0,0,1,.49,1c0,.3.1.59.15.89A2.42,2.42,0,0,1,56,51Z" transform="translate(-25.9 -16.45)"/><path class="cls-2" d="M47.09,49.72a.91.91,0,0,1,0-.76A.56.56,0,0,1,47.09,49.72Z" transform="translate(-25.9 -16.45)"/><path class="cls-2" d="M67.42,54.54a4.26,4.26,0,0,1-.21-1c0-.33,0-.66,0-1A3.5,3.5,0,0,0,67,51a.25.25,0,0,1,0-.07c-.11-.56-.21-1.13-.32-1.69,0-.32-.12-.65-.17-1a6.36,6.36,0,0,1-.08-.75c0-.26,0-.52,0-.78a3.08,3.08,0,0,0-.2-1.12A6.58,6.58,0,0,1,66,44.25a4.43,4.43,0,0,0-.22-1.3c-.12-.28.06-.51.2-.73a2.46,2.46,0,0,1,.43-.48,1.24,1.24,0,0,1,.84-.34,1.65,1.65,0,0,1,1.12.27.91.91,0,0,1,.35.75.61.61,0,0,1-.32.49.54.54,0,0,0-.13.86,3.79,3.79,0,0,0,.3.4,2.94,2.94,0,0,1,.65,1.25c.09.38-.05.59-.44.63s-.56.31-.3.66a3.86,3.86,0,0,0,.53.54,1.32,1.32,0,0,1,.25,1.6,6.84,6.84,0,0,0-.66,2,11.58,11.58,0,0,1-.26,1.33,1.47,1.47,0,0,1-.27.58,1.72,1.72,0,0,0-.25.85,6.87,6.87,0,0,1-.19.75S67.52,54.45,67.42,54.54Z" transform="translate(-25.9 -16.45)"/><path class="cls-2" d="M64.55,88l-.27.31-.77.88-.09.11c-.27.45-.17.69.32.87s1,.39,1.48.6c0,0,0,0,0,.08a.35.35,0,0,1-.41.06c-.52-.16-1-.31-1.53-.5a1.56,1.56,0,0,1-.78-.54.5.5,0,0,1,0-.62,3,3,0,0,1,1.13-1.07,2.77,2.77,0,0,1,.61-.27.72.72,0,0,1,.29,0Z" transform="translate(-25.9 -16.45)"/><path class="cls-2" d="M66.17,86.57a.68.68,0,0,1,0-.23,2.18,2.18,0,0,0-.82-2,.9.9,0,0,1-.21-.27.29.29,0,0,1,0-.26.28.28,0,0,1,.25-.06.57.57,0,0,0,.67,0s.19,0,.24.07a1.86,1.86,0,0,1,.57,1.82A1.57,1.57,0,0,1,66.17,86.57Z" transform="translate(-25.9 -16.45)"/><path class="cls-2" d="M65.1,92c.11,0,.2-.07.25,0,.39.21.85.22,1.23.46a.52.52,0,0,1,.3.52.77.77,0,0,1-.41.63s-.21-.05-.22-.09c-.09-.65-.62-1-1-1.34A1.36,1.36,0,0,1,65.1,92Z" transform="translate(-25.9 -16.45)"/><path class="cls-2" d="M45.08,33.76c0-.45,0-.9,0-1.36,0-.27.1-.53.13-.8a6.27,6.27,0,0,0,.06-1.14,2.67,2.67,0,0,0-.57-1.14,10.83,10.83,0,0,1-.59-1.05.69.69,0,0,1,0-.45c.07-.19.26-.19.38,0s.22.34.34.5a1.8,1.8,0,0,0,1.39.65,4.36,4.36,0,0,1,2.07.69l.61.37a1.23,1.23,0,0,1,.6,1c.09.7.16,1.4.31,2.09a6.08,6.08,0,0,0,1.06,2.43A.52.52,0,0,1,51,36a.37.37,0,0,1-.19.23,4.85,4.85,0,0,0-1.45,1,8.07,8.07,0,0,1-1.09.86,1.74,1.74,0,0,1-2.41-.48,3.15,3.15,0,0,1-.6-1.47A15.07,15.07,0,0,1,45.08,33.76Z" transform="translate(-25.9 -16.45)"/><path class="cls-2" d="M54,35.71c.06-.1.11-.21.17-.3a1.7,1.7,0,0,0,.07-1.58,2.84,2.84,0,0,0-1.59-1.6,5.74,5.74,0,0,1-1.37-.84,3,3,0,0,0-1.12-.61s-.07-.05-.13-.1a.5.5,0,0,1,.61-.05,6.4,6.4,0,0,1,.79.48,2.94,2.94,0,0,0,1,.5,4.65,4.65,0,0,1,1.24.62,2.49,2.49,0,0,1,1,.89,2.08,2.08,0,0,1,.26,1.51,1.63,1.63,0,0,1-.6,1.06C54.17,35.75,54.08,35.82,54,35.71Z" transform="translate(-25.9 -16.45)"/><path class="cls-2" d="M65.93,58.76l.38.24a1.69,1.69,0,0,0,.85.25.77.77,0,0,1,.55.22.3.3,0,0,1,0,.47.86.86,0,0,1-1.38,0,6.09,6.09,0,0,1-.44-.93C65.89,59,65.92,58.89,65.93,58.76Z" transform="translate(-25.9 -16.45)"/><path class="cls-2" d="M51.18,70.07c0,.14,0,.25.08.35.14.48.27,1,.42,1.44a6.07,6.07,0,0,0,.58,1.3,4.43,4.43,0,0,0,1.65,1.65c.57.34,1.16.66,1.72,1a4.34,4.34,0,0,1,1.53,1.48,1.61,1.61,0,0,1-.28,2,4.64,4.64,0,0,1-2.07,1,9.27,9.27,0,0,1-2,.21,2.88,2.88,0,0,0-1.2.31.91.91,0,0,0-.4,1.4c.29.38.61.73.92,1.09a4.94,4.94,0,0,1,.6.7,1.35,1.35,0,0,1,0,1.37,2.14,2.14,0,0,1-1.23.93c-.47.17-1,.32-1.42.47a2.48,2.48,0,0,0-1,.53.4.4,0,0,1-.13.07h-.1c-.06-.15,0-.23.12-.3.38-.24.76-.5,1.15-.72a9.56,9.56,0,0,1,1.08-.48,1.29,1.29,0,0,0,.52-2.18c-.21-.23-.47-.42-.68-.64a5.27,5.27,0,0,1-.52-.63,1,1,0,0,1,0-1.14,2,2,0,0,1,1-.94c.37-.19.76-.33,1.13-.52.58-.3,1.16-.61,1.72-.94a3.83,3.83,0,0,0,.81-.63,1.22,1.22,0,0,0,.32-.59.87.87,0,0,0-.3-.8,8,8,0,0,0-1-.83c-.54-.36-1.11-.66-1.65-1a3.62,3.62,0,0,1-1.37-1.53,3.26,3.26,0,0,1-.31-1.05,12.18,12.18,0,0,1,0-1.71A1.08,1.08,0,0,1,51.18,70.07Z" transform="translate(-25.9 -16.45)"/><path class="cls-2" d="M57.65,22.4l.49.49a15.72,15.72,0,0,0,2.34,2.2,8.78,8.78,0,0,0,1.26.73,16.29,16.29,0,0,1,2.6,1.48,2.22,2.22,0,0,1,.38.37.42.42,0,0,1-.13.69,10,10,0,0,1-1,.39,1.23,1.23,0,0,0-.82,1.17V30c0,1,0,.72-.66,1.19a8.9,8.9,0,0,1-1.19.71.7.7,0,0,1-.34.1,9,9,0,0,1-1,0,1.52,1.52,0,0,1-1.25-1.11,3.46,3.46,0,0,1-.17-1.23c0-.24.07-.47.11-.71.13-.87.3-1.73.41-2.61a4.9,4.9,0,0,0-.24-2.11,6.31,6.31,0,0,0-.81-1.57.63.63,0,0,1-.08-.23Zm1.72,3.05-.11.05c0,.12,0,.23,0,.35,0,.4-.06.8-.1,1.21s-.06.52-.1.78a.81.81,0,0,1-.06.31,4.23,4.23,0,0,0-.21,1.8,1.31,1.31,0,0,0,.21.73,1.41,1.41,0,0,0,1.54.71,1,1,0,0,0,.57-.19,1.16,1.16,0,0,0,.36-1.26,7.13,7.13,0,0,0-.32-1.09c-.24-.46-.37-1-.6-1.44s-.62-1.17-.95-1.75A1.17,1.17,0,0,0,59.37,25.45Z" transform="translate(-25.9 -16.45)"/><path class="cls-2" d="M47.61,69.13a7.92,7.92,0,0,1-.24-1,4.61,4.61,0,0,0-.65-1.72c-.28-.54-.56-1.07-.83-1.61a1.67,1.67,0,0,1-.08-.32c0-.19-.09-.39-.14-.58l0-.07a12.62,12.62,0,0,1-.3-2.44s0-.08,0-.11.09-.14.14-.21.15.09.18.15a4.84,4.84,0,0,0,1,1.32,10.82,10.82,0,0,1,.92,1.22A2.81,2.81,0,0,1,48,65.12a7.81,7.81,0,0,1-.14,2.46,5.74,5.74,0,0,0-.07.93l-.06.62Z" transform="translate(-25.9 -16.45)"/><path class="cls-2" d="M34.13,65.48A.32.32,0,0,1,34,65.1a2.24,2.24,0,0,0-.21-1,1.31,1.31,0,0,0-.3-.4,2.38,2.38,0,0,1-.75-1.46.27.27,0,0,1,0-.19.3.3,0,0,1,.23,0,3.11,3.11,0,0,1,1.34,2.3A4.66,4.66,0,0,1,34.13,65.48Z" transform="translate(-25.9 -16.45)"/><path class="cls-2" d="M70.56,21.43c.06.17.12.35.19.52a3.63,3.63,0,0,0,1.41,1.57,14.61,14.61,0,0,1,1.32,1,1.2,1.2,0,0,1,.41.66.83.83,0,0,1-.28.93l-.4.31a.83.83,0,0,0-.36,1,2.74,2.74,0,0,1,.05.28c0,.32-.07.5-.39.53a1.69,1.69,0,0,1-1.2-.19c-.25-.17-.33-.14-.56.08l-.33.29a1.31,1.31,0,0,1-1.2.3,1.72,1.72,0,0,1-1-.66,1.85,1.85,0,0,1-.16-2,8,8,0,0,1,1.21-1.84,6.71,6.71,0,0,0,1.08-2,3.89,3.89,0,0,0,0-.49c0-.14,0-.27,0-.4Z" transform="translate(-25.9 -16.45)"/><path class="cls-2" d="M63,68.59A.26.26,0,0,1,63,69a2.63,2.63,0,0,0-.48,1.51,3.77,3.77,0,0,1-.14.58c-.13.51-.26,1-.38,1.53,0,.08,0,.16,0,.24a2.47,2.47,0,0,0,.21,1.77v.1c-.05,0-.12.05-.15,0A3.61,3.61,0,0,1,61,74a2.68,2.68,0,0,1-.38-2.26,2.9,2.9,0,0,1,.78-1.22c.33-.34.68-.66,1-1a.87.87,0,0,0,.16-.26A2,2,0,0,1,63,68.59Z" transform="translate(-25.9 -16.45)"/><path class="cls-2" d="M54.37,26.93c.16.17.33.33.49.51a1.27,1.27,0,0,1,.36,1c0,.24-.16.35-.38.28a4.19,4.19,0,0,1-.69-.29s-.07-.16-.07-.25,0-.33,0-.5-.15-.23-.31-.15-.27.15-.4.24a1.37,1.37,0,0,1-1.57-.06c-.07,0-.11-.13-.16-.2a.25.25,0,0,1,0-.07h.26c.19,0,.38.05.57.05a.74.74,0,0,0,.64-.33.42.42,0,0,0,.11-.32,2.08,2.08,0,0,0-.7-1.25.68.68,0,0,0-.13,0c-.14.21-.27.43-.43.63a2.22,2.22,0,0,1-.37.38c-.15.12-.24.09-.32-.07a1.68,1.68,0,0,1-.22-.82,4.22,4.22,0,0,1,.16-1.37,2.75,2.75,0,0,0,.09-.5,5.61,5.61,0,0,1,.13-.59c.08-.28.18-.3.39-.12.58.47,1.16.92,1.73,1.39q.51.43,1,.93a1.27,1.27,0,0,1,.25.42.59.59,0,0,1-.23.81l-.19.16S54.4,26.87,54.37,26.93Z" transform="translate(-25.9 -16.45)"/><path class="cls-2" d="M43.28,61.07a1.79,1.79,0,0,1-.22-.34c-.2-.71-.39-1.42-.57-2.14A18.06,18.06,0,0,1,42,56.07c0-.33-.13-.65-.19-1a.75.75,0,0,1,0-.21c0-.26.08-.29.34-.23a2.45,2.45,0,0,1,1.67,1.58.5.5,0,0,1,0,.27c-.07.25-.18.5-.25.75a2.64,2.64,0,0,0-.11.56,13.7,13.7,0,0,0-.08,3.07.44.44,0,0,1,0,.16A.32.32,0,0,1,43.28,61.07Z" transform="translate(-25.9 -16.45)"/><path class="cls-2" d="M63.45,20.38a2.17,2.17,0,0,1,.77.7c.22.23.31.57.54.82.18-.17.11-.28,0-.42A10.09,10.09,0,0,0,63.68,20a.45.45,0,0,1-.06-.12s.06-.05.07,0a3.57,3.57,0,0,1,1.72,1.58,2.88,2.88,0,0,1,.41,1.34,1.18,1.18,0,0,1-.32.8A2.93,2.93,0,0,1,65,24a.25.25,0,0,1-.4-.08l0-.06a.72.72,0,0,0-1.05-.24,1,1,0,0,1-.29.12c-.21.05-.29,0-.25-.26l0-.06a2.48,2.48,0,0,0,0-1.78.37.37,0,0,1,0-.25A3.56,3.56,0,0,1,63.45,20.38ZM65,22.08l-.1,0,.06.2H65A1.55,1.55,0,0,1,65,22.08Z" transform="translate(-25.9 -16.45)"/><path class="cls-2" d="M77.25,24.14a.39.39,0,0,1-.44.09,3.18,3.18,0,0,1-2.27-1.94,3.39,3.39,0,0,1-.12-.91.52.52,0,0,1,.11-.29c.37-.55.75-1.08,1.09-1.63a3.25,3.25,0,0,0,.32-.74c.08-.21.23-.28.36-.11.3.38.57.79.86,1.18s.2.8-.21,1.14a1,1,0,0,0-.33,1.16,1,1,0,0,1,0,.56A1.09,1.09,0,0,0,77,24Z" transform="translate(-25.9 -16.45)"/><path class="cls-2" d="M94.12,29.83a1.94,1.94,0,0,1,1.16.4,2.57,2.57,0,0,0,.72.31c.06,0,.16-.05.25-.08a1,1,0,0,0-.11-.21,2,2,0,0,0-.38-.26l-1.45-.68c-.26-.12-.28-.21-.07-.41a1.26,1.26,0,0,0,.35-.53.69.69,0,0,1,.1-.19.3.3,0,0,1,.51,0,1.15,1.15,0,0,1,.24.35,1.65,1.65,0,0,0,.71.83,5,5,0,0,1,1.16,1.05,3.47,3.47,0,0,1,.27.46c.1.2,0,.36-.18.41a11.9,11.9,0,0,1-1.19.23,1.25,1.25,0,0,1-.88-.23,3.11,3.11,0,0,0-1.25-.5.59.59,0,0,1-.56-.63c0-.21.06-.27.28-.28Z" transform="translate(-25.9 -16.45)"/></g></svg>