<?xml version="1.0" encoding="utf-8"?>
<svg viewBox="0 0 428.04004 406.68778" width="428.04004" height="406.68778" xmlns="http://www.w3.org/2000/svg">
  <path d="M326.65781,67.37236v106c0,9.37402-7.62598,17-17,17h-106c-9.37402,0-17-7.62598-17-17V67.37236c0-9.37402,7.62598-17,17-17h106c9.37402,0,17,7.62598,17,17Zm-17,121c8.28427,0,15-6.71573,15-15v-53.44094c0-37.31184-30.24722-67.55906-67.55905-67.55906h-53.44095c-8.28427,0-15,6.71573-15,15v106c0,8.28427,6.71573,15,15,15h106Z" fill="#e6e6e6" transform="matrix(1, 0, 0, 1, 3.552713678800501e-15, 3.552713678800501e-15)"/>
  <g transform="matrix(1, 0, 0, 1, 3.552713678800501e-15, 3.552713678800501e-15)">
    <path id="b-332" d="M213.46512,148.67319c5.64194,.91399,10.68677-1.25626,11.26784-4.84689s-3.52132-7.2413-9.16537-8.15485c-2.24957-.39584-4.56122-.24722-6.74156,.43347l-23.95399-3.57069-1.43602,11.27663,23.76685,2.32285c1.85466,1.33447,4.00198,2.20529,6.26225,2.53951l.00002-.00002Z" fill="#ffb6b6"/>
    <path d="M127.86174,65.6504l-13.08166,7.25056s17.91828,54.1102,23.99198,63.33571,65.09514,15.8941,65.09514,15.8941l.8176-19.8326-37.91864-17.09318-38.90441-49.55461v.00002Z" fill="#2f2e41"/>
  </g>
  <g transform="matrix(1, 0, 0, 1, 3.552713678800501e-15, 3.552713678800501e-15)">
    <polygon points="109.58914 396.12967 123.17653 396.12833 126.65781 343.37235 109.58641 343.72062 109.58914 396.12967" fill="#ffb6b6"/>
    <path d="M156.14127,395.82145h0c.42307,.71252,.64629,3.01221,.64629,3.84082h0c0,2.54691-2.06464,4.61163-4.61162,4.61163h-42.07858c-1.73748,0-3.14607-1.40851-3.14607-3.14606v-1.75186s-2.08159-5.26526,2.20403-11.755c0,0,5.32645,5.08157,13.28554-2.87753l2.34706-4.25189,16.98951,12.42526,9.41704,1.15915c2.06026,.25357,3.88686-.03934,4.94662,1.74551h.00017l.00002-.00003Z" fill="#2f2e41"/>
  </g>
  <g transform="matrix(1, 0, 0, 1, 3.552713678800501e-15, 3.552713678800501e-15)">
    <polygon points="94.58914 396.12967 108.17653 396.12833 114.64014 343.71921 94.58641 343.72062 94.58914 396.12967" fill="#ffb6b6"/>
    <path d="M141.14127,395.82145h0c.42307,.71252,.64629,3.01221,.64629,3.84082h0c0,2.54691-2.06464,4.61163-4.61162,4.61163h-42.07858c-1.73748,0-3.14607-1.40851-3.14607-3.14606v-1.75186s-2.08159-5.26526,2.20403-11.755c0,0,5.32645,5.08157,13.28554-2.87753l2.34706-4.25189,16.98951,12.42526,9.41704,1.15915c2.06026,.25357,3.88686-.03934,4.94662,1.74551h.00017l.00002-.00003Z" fill="#2f2e41"/>
  </g>
  <circle cx="129.54844" cy="30.21052" r="22.51969" fill="#ffb6b6" transform="matrix(1, 0, 0, 1, 3.552713678800501e-15, 3.552713678800501e-15)"/>
  <path d="M155.15781,169.87236l-61.66929-7.6693s-5.33071,39.66928,2.66929,55.66928l-2,48s-10.81839,90.38583-2.4092,104.1929l35.9092-.6929,1.5-85.5,26-114v.00002Z" fill="#2f2e41" transform="matrix(1, 0, 0, 1, 3.552713678800501e-15, 3.552713678800501e-15)"/>
  <path d="M136.65781,66.37236l-23-16-4.66142,8s-18.33858,35-20.33858,46,6,59,6,59l58,11s4-20,2-24-17.5-74.5-17.5-74.5l-.5-9.5Z" fill="#012889" transform="matrix(1, 0, 0, 1, 3.552713678800501e-15, 3.552713678800501e-15)"/>
  <path d="M130.15781,76.87236l-20-22.77559s-29,31.77559-28,45.77559-5,108-5,108h45.8457s17.1543-40,20.1543-61-13-70-13-70Z" fill="#2f2e41" transform="matrix(1, 0, 0, 1, 3.552713678800501e-15, 3.552713678800501e-15)"/>
  <path d="M137.15781,75.87236s20.5,66.5,20.5,72.5-4.5,60.5-4.5,60.5h-8.25591l5.75591-63.5-13.5-69.5Z" fill="#2f2e41" transform="matrix(1, 0, 0, 1, 3.552713678800501e-15, 3.552713678800501e-15)"/>
  <path d="M138.15781,17.87236l2,8-3,12h-4.58661s-8.41339-12-11.41339,1v7.24016l-7,6.75984s-2-5-8-9-13-27,5-32c0,0,13.30982-14.90699,25.94482-11.31329,1.33356,.3793,.2531,2.98253,1.55518,3.81329,.77975,.4975,3.95741-.93485,4.71646-.25293,.75688,.67999,.55428,2.37281,1.28354,3.25293,1.60535,1.93742,4.08276,3.46305,5.5,6.5,0,0,2,1-2,2s-10,2-10,2Z" fill="#2f2e41" transform="matrix(1, 0, 0, 1, 3.552713678800501e-15, 3.552713678800501e-15)"/>
  <path id="c-333" d="M123.81856,195.15035c3.84249,4.23108,9.14026,5.67809,11.83255,3.23227s1.75937-7.85753-2.08505-12.0896c-1.5125-1.71159-3.4129-3.03612-5.54222-3.86269l-16.50717-17.72163-8.15113,7.92358,17.13854,16.62917c.61867,2.19951,1.75521,4.21883,3.31448,5.8889Z" fill="#ffb6b6" transform="matrix(1, 0, 0, 1, 3.552713678800501e-15, 3.552713678800501e-15)"/>
  <path d="M108.61844,76.87236l-14.74907-2.48301s-19.71156,53.48301-20.71156,64.48301,41,53,41,53l13-15-19-37,.46063-63Z" fill="#2f2e41" transform="matrix(1, 0, 0, 1, 3.552713678800501e-15, 3.552713678800501e-15)"/>
  <g transform="matrix(1, 0, 0, 1, 3.552713678800501e-15, 3.552713678800501e-15)">
    <path d="M403.784,315.42197c-.8443-1.42365-4.49683,.10068-5.16833-1.19135-.66913-1.28735,2.72449-3.24887,4.66333-7.7298,.34967-.80807,2.55298-5.90033,.92188-7.47162-3.09174-2.97836-17.23962,9.31259-22.19073,5.29041-1.08661-.88269-1.8457-2.64484-5.13428-5.50583-1.30829-1.13815-2.09937-1.65204-2.86499-1.46085-1.08636,.27127-1.17242,1.72522-2.33734,4.58398-1.74701,4.28729-2.78027,4.02841-3.79816,7.44897-.75562,2.53925-.58301,4.01553-1.47217,4.30313-1.25824,.40701-2.41638-2.28632-4.01099-2.04517-1.6272,.24612-2.61096,3.38205-2.92169,5.72998-.58313,4.40607,1.03497,7.31348,1.93182,10.37064,.97461,3.32236,1.55304,8.37494-.69769,15.52759l-22.27719,62.76614c4.91812-12.87943,19.15842-48.18536,25.14218-61.3053,1.72742-3.78745,3.6347-7.62909,7.55096-9.14526,3.77045-1.45978,8.94867-.58823,15.55029-2.17862,.771-.1857,2.91052-.73007,3.17981-1.98849,.22266-1.04037-1.03583-1.62109-.84247-2.59549,.25934-1.30701,2.73413-1.32306,5.77533-2.83096,2.14447-1.06332,3.48047-2.32785,4.62933-3.41531,.34637-.32785,5.49512-5.26166,4.37115-7.1568h-.00006Z" fill="#f2f2f2"/>
    <path d="M316.13889,348.4647c-.94235,.0036-1.24805,2.23611-2.07593,2.1929-.82492-.04303-.80847-2.2746-2.4483-4.5191-.29572-.40475-2.1593-2.95547-3.40115-2.60825-2.35385,.65808-.4035,11.14828-3.80618,12.41782-.74673,.27863-1.83066,.14276-4.18369,.93134-.9361,.31372-1.41656,.55371-1.54364,.98465-.1803,.61145,.50845,1.07324,1.57544,2.46979,1.60016,2.09445,1.17496,2.52692,2.56009,4.01343,1.02826,1.10352,1.80264,1.44476,1.68723,1.96414-.16327,.73499-1.81934,.52631-2.16107,1.37851-.34869,.86966,.90659,2.25729,1.9693,3.08725,1.99429,1.5575,3.88812,1.6022,5.64737,2.04413,1.91183,.48026,4.55859,1.65421,7.41974,4.82266l24.37836,29.04382c-4.90228-6.12997-18.12189-23.30609-22.83472-30.0285-1.3605-1.94061-2.69568-3.98517-2.30984-6.34479,.37143-2.27176,2.29327-4.56177,3.41748-8.26077,.13132-.43201,.48145-1.63916-.05847-2.13443-.44638-.40945-1.09451,.04068-1.51697-.33539-.56665-.50443,.13953-1.72369,.27689-3.6514,.09686-1.35931-.13831-2.37988-.34055-3.25754-.06097-.26459-.99695-4.21518-2.25137-4.21036v.00009Z" fill="#f2f2f2"/>
    <path d="M334.93851,352.68479l-.56775-5.06818,.2594-.38422c1.20035-1.77667,1.81216-3.51175,1.81949-5.15872,.00122-.26184-.01102-.52371-.02325-.79044-.04895-1.05719-.11011-2.37134,.5751-3.90329,.38422-.85406,1.46344-2.83142,3.08594-2.5867,.43683,.06119,.76721,.26184,1.01804,.49677,.03671-.05872,.07465-.11746,.11502-.18109,.50534-.77087,.90546-1.10123,1.29089-1.41937,.29611-.24472,.60202-.49677,1.08167-1.0939,.21045-.26184,.37442-.49188,.5127-.68521,.41971-.58487,.96786-1.28235,1.93451-1.27011,1.03271,.04895,1.57355,.90302,1.93207,1.46832,.63995,1.00824,.92993,1.73508,1.12204,2.21716,.06976,.17621,.14929,.37442,.18967,.43561,.33282,.48944,3.03824,.0318,4.05746-.13461,2.28937-.38177,4.27039-.71213,5.08655,.73172,.5849,1.03271,.15051,2.39825-1.33008,4.1676-.4613,.55063-.95197,.96909-1.38757,1.29703,.36096,.21536,.68396,.54572,.81494,1.06454h0c.30835,1.22849-.74762,2.45944-3.13733,3.66348-.59344,.30099-1.39246,.70236-2.51205,.89569-.52737,.09055-1.00214,.11258-1.40836,.12482-.00858,.23492-.06363,.48944-.20679,.75128-.41971,.77087-1.29333,1.13794-2.60995,1.04984-1.44876-.07587-2.64175-.35239-3.69406-.59467-.91891-.21045-1.7106-.3891-2.33218-.3475-1.15262,.09299-2.04099,1.01559-3.08347,2.21228l-2.6026,3.04187h-.00003Z" fill="#f2f2f2"/>
    <path d="M337.5722,322.50885l-4.75842,1.83472-.43744-.15347c-2.02304-.71045-3.85654-.86215-5.45151-.45148-.2536,.06525-.50378,.14349-.7587,.22299-1.01019,.31549-2.26587,.70801-3.92151,.43378-.92361-.155-3.11002-.69739-3.28485-2.32889-.05161-.43805,.05869-.80853,.22232-1.11075-.06613-.0206-.13257-.04239-.20435-.06531-.87384-.2933-1.29489-.59653-1.70041-.88867-.31183-.22437-.63324-.45633-1.33249-.76883-.30667-.13715-.57077-.2374-.79285-.32211-.67221-.2576-1.4859-.61096-1.71924-1.5491-.2146-1.01135,.47437-1.75113,.93024-2.24133,.81296-.87476,1.44244-1.33963,1.86005-1.64774,.15274-.11215,.32431-.23938,.37326-.29395,.38901-.44608-.73987-2.94693-1.15936-3.89062-.94998-2.11765-1.77203-3.95007-.5824-5.10577,.85059-.8277,2.28165-.75391,4.36868,.22946,.64963,.30655,1.17886,.67502,1.60657,1.01321,.11676-.40378,.35437-.80005,.82303-1.05829h0c1.11011-.60986,2.56863,.09933,4.33945,2.10547,.44168,.49768,1.03259,1.16876,1.50357,2.2027,.22134,.48715,.36307,.9408,.47797,1.33066,.22943-.0513,.48956-.06259,.77917,.00946,.85211,.21045,1.4288,.9624,1.67752,2.2583,.2941,1.42062,.32922,2.64474,.36179,3.72409,.02951,.94226,.0575,1.75336,.25543,2.34406,.38232,1.09134,1.50006,1.71661,2.92206,2.42148l3.60254,1.74591-.00012,.00003Z" fill="#f2f2f2"/>
    <path d="M334.93851,307.57785l-.56775-5.06818,.2594-.38422c1.20035-1.77667,1.81216-3.51175,1.81949-5.15872,.00122-.26184-.01102-.52371-.02325-.79044-.04895-1.05719-.11011-2.37134,.5751-3.90329,.38422-.85406,1.46344-2.83142,3.08594-2.5867,.43683,.06119,.76721,.26184,1.01804,.49677,.03671-.05872,.07465-.11746,.11502-.18109,.50534-.77087,.90546-1.10123,1.29089-1.41937,.29611-.24472,.60202-.49677,1.08167-1.0939,.21045-.26184,.37442-.49188,.5127-.68521,.41971-.58487,.96786-1.28235,1.93451-1.27011,1.03271,.04895,1.57355,.90302,1.93207,1.46832,.63995,1.00824,.92993,1.73508,1.12204,2.21716,.06976,.17621,.14929,.37442,.18967,.43561,.33282,.48944,3.03824,.0318,4.05746-.13461,2.28937-.38177,4.27039-.71213,5.08655,.73172,.5849,1.03271,.15051,2.39825-1.33008,4.1676-.4613,.55063-.95197,.96909-1.38757,1.29703,.36096,.21536,.68396,.54572,.81494,1.06454h0c.30835,1.22849-.74762,2.45944-3.13733,3.66348-.59344,.30099-1.39246,.70236-2.51205,.89569-.52737,.09055-1.00214,.11258-1.40836,.12482-.00858,.23492-.06363,.48944-.20679,.75128-.41971,.77087-1.29333,1.13794-2.60995,1.04984-1.44876-.07587-2.64175-.35239-3.69406-.59467-.91891-.21045-1.7106-.3891-2.33218-.3475-1.15262,.09299-2.04099,1.01559-3.08347,2.21228l-2.6026,3.04187h-.00003Z" fill="#f2f2f2"/>
    <path d="M340.12415,405.9556l-1.0621-.66565-.25696-1.22604,.25696,1.22604-1.23828,.14194c-.01959-.11502-.08688-.37933-.18842-.79291-.55429-2.26611-2.24408-9.16235-3.65369-20.02304-.9838-7.58145-1.54053-15.37579-1.65555-23.17017-.11502-7.80658,.25452-13.71661,.55063-18.46661,.22391-3.5827,.49557-6.99411,.7623-10.31744,.70969-8.87848,1.379-17.26505,.88098-26.54974-.11011-2.07278-.3414-6.38721-2.862-10.97818-1.46222-2.66257-3.47626-5.02655-5.98709-7.02347l1.56131-1.96265c2.77145,2.20737,4.99963,4.8259,6.62338,7.78214,2.79471,5.09018,3.04678,9.79129,3.16791,12.05005,.50656,9.44867-.17007,17.91602-.88712,26.88013-.26431,3.31107-.53595,6.70779-.75864,10.27582-.29367,4.70599-.65952,10.56458-.54572,18.27084,.11258,7.70135,.66318,15.40027,1.63351,22.88629,1.39246,10.72366,3.0578,17.51712,3.60474,19.74896,.29123,1.1918,.35239,1.44141,.05383,1.91373v-.00003Z" fill="#f2f2f2"/>
    <path d="M321.07507,292.09195c-.10278,0-.20679-.00244-.31201-.0098-2.13397-.11502-4.11008-1.39246-5.87451-3.79562-.82715-1.13062-1.25052-2.42029-2.09482-4.99231-.13092-.39645-.76721-2.40805-1.15387-5.17584-.2533-1.8085-.22147-2.56467,.13705-3.23276,.39767-.74396,1.04129-1.26276,1.76566-1.6127-.0318-.23984-.00613-.487,.0979-.73907,.42703-1.04495,1.56253-.9079,2.17679-.84183,.31079,.03915,.69867,.09055,1.11716,.06851,.65829-.0318,1.01193-.2276,1.54785-.52127,.5127-.28143,1.15018-.63138,2.09604-.82471,1.86478-.3891,3.42731,.1395,3.94244,.31323,2.71027,.90302,4.04645,3.01007,5.59308,5.44992,.30835,.48944,1.36676,2.271,2.06543,4.71332,.50412,1.76199,.43317,2.5451,.28143,3.12753-.30835,1.19669-1.03638,1.8819-2.88525,3.39429-1.93085,1.58334-2.89993,2.37625-3.73199,2.85834-1.93695,1.11838-3.15323,1.82071-4.76837,1.82071v.00006Z" fill="#f2f2f2"/>
  </g>
  <path d="M428.04004,404.81614h0c0,.46393-.3761,.84003-.84003,.84003H.84003c-.46393,0-.84003-.3761-.84003-.84003H0c0-.46393,.37609-.84003,.84003-.84003H427.20001c.46393,0,.84003,.3761,.84003,.84003Z" fill="#e6e6e6" transform="matrix(1, 0, 0, 1, 3.552713678800501e-15, 3.552713678800501e-15)"/>
  <g transform="matrix(1, 0, 0, 1, 3.552713678800501e-15, 3.552713678800501e-15)">
    <path d="M235.70119,111.55896c-.06361,5.79864-10.01833,11.89083-19.13048,11.79088s-18.90891-8.40891-18.84531-14.20756c.06361-5.79864,1.69856-16.67849,10.81071-16.57854s27.22867,13.19657,27.16505,18.99521h.00002Z" fill="#ff6884"/>
    <path d="M219.21487,159.69681l2.45532-33.54241s33.0748-6.63762,12.00934-46.37107l-27.97638-2.30699s-29.87663,34.17436,5.46219,49.06286l1.11975,33.13811c-7.73026,.38264-13.50699,2.09886-13.53033,4.22801-.02727,2.48514,7.78519,4.58566,17.44958,4.69167s17.52106-1.82265,17.54829-4.30779c.02444-2.22942-6.26682-4.14436-14.53778-4.59241l.00002,.00002Z" fill="#f2f2f2" isolation="isolate" opacity=".28"/>
    <path d="M201.72502,167.527c-2.65265-.96936-3.98595-2.18752-3.97009-3.63216,.0423-3.85857,9.79778-4.9006,13.49774-5.15698l-1.06529-31.53011c-9.3699-4.08741-14.99242-9.94226-16.71628-17.40945-3.58313-15.52556,10.86249-32.27428,11.4791-32.98003l.33217-.37976,29.02496,2.39284,.25587,.4834c7.42407,14.00286,9.07076,25.5706,4.89413,34.38231-4.45921,9.40714-14.06956,12.53593-16.84329,13.26074l-2.32808,31.80389c6.91618,.48953,14.50369,2.18927,14.46672,5.53822-.0417,3.77872-9.65018,5.39436-18.55946,5.2973-4.75529-.05234-9.23248-.58115-12.6077-1.48808-.67879-.18254-1.29913-.37701-1.86047-.58215l-.00003,.00002Zm4.4119-89.01126c-2.10663,2.56249-13.78905,17.53971-10.71558,30.83804,1.60849,6.95923,7.03621,12.43098,16.13228,16.2634l.58961,.24873,1.1741,34.76183-.98305,.04832c-8.93925,.44304-5.45479,2.78075-5.46339,3.55117-.00333,.28368-6.32236,.99104-2.76624,1.95057,3.21745,.86488,7.51865,1.36888,12.11058,1.41872,10.88542,.11948,16.52609-2.27238,16.53764-3.31828,.00896-.83682-3.88834-3.05641-13.59196-3.58308l-1.01762-.05476,2.58521-35.3157,.74422-.15017c.11423-.02376,11.49796-2.43588,16.18582-12.35211,3.83369-8.10941,2.28346-18.90265-4.60776-32.08748l-18.4347,3.05113c-3.74857,.62042-7.37618-1.63436-8.47916-5.27031h0Z" fill="#3f3d56"/>
  </g>
  <g transform="matrix(1, 0, 0, 1, 3.552713678800501e-15, 3.552713678800501e-15)">
    <path d="M341.41617,111.4002h-34.22061c-.86273,0-1.5647-.70199-1.5647-1.56472s.702-1.56439,1.5647-1.56439h34.22061c.86273,0,1.56439,.70166,1.56439,1.56439s-.70166,1.56471-1.56439,1.56472Z" fill="#3f3d56"/>
    <path d="M341.41617,144.76383h-34.22061c-.86273,0-1.5647-.702-1.5647-1.56471s.702-1.56439,1.5647-1.56439h34.22061c.86273,0,1.56439,.70166,1.56439,1.56439s-.70166,1.56471-1.56439,1.56471Z" fill="#3f3d56"/>
    <path d="M359.77933,128.09296h-70.9469c-.86273,0-1.5647-.70199-1.5647-1.56472s.702-1.56439,1.5647-1.56439h70.9469c.86273,0,1.56439,.70166,1.56439,1.56439s-.70166,1.5647-1.56439,1.5647v.00002Z" fill="#3f3d56"/>
  </g>
  <g transform="matrix(1, 0, 0, 1, 3.552713678800501e-15, 3.552713678800501e-15)">
    <circle cx="271.65781" cy="97.37236" r="7" fill="#012889"/>
    <path d="M271.41019,100.37249c-.12833,0-.24844-.06454-.31921-.17235l-2.10104-3.19886c-.11584-.17633-.06677-.41322,.10956-.52899,.17657-.11577,.41321-.06671,.52899,.10955l1.75912,2.67833,2.68338-4.69549c.10471-.18323,.33798-.2469,.52115-.14213,.18323,.10464,.24683,.33799,.14212,.52115l-2.99237,5.23629c-.06592,.1154-.18701,.18814-.31982,.19237l-.01187,.00013Z" fill="#fff"/>
  </g>
  <g transform="matrix(1, 0, 0, 1, 3.552713678800501e-15, 3.552713678800501e-15)">
    <circle cx="271.65781" cy="123.37236" r="7" fill="#012889"/>
    <path d="M271.41019,126.37249c-.12833,0-.24844-.06454-.31921-.17235l-2.10104-3.19886c-.11584-.17633-.06677-.41322,.10956-.52899,.17657-.11577,.41321-.06671,.52899,.10955l1.75912,2.67833,2.68338-4.69549c.10471-.18323,.33798-.2469,.52115-.14213,.18323,.10464,.24683,.33799,.14212,.52115l-2.99237,5.23629c-.06592,.1154-.18701,.18814-.31982,.19237l-.01187,.00013Z" fill="#fff"/>
  </g>
  <g transform="matrix(1, 0, 0, 1, 3.552713678800501e-15, 3.552713678800501e-15)">
    <circle cx="271.65781" cy="149.37236" r="7" fill="#012889"/>
    <path d="M271.41019,152.3725c-.12833,0-.24844-.06454-.31921-.17235l-2.10104-3.19885c-.11584-.17633-.06677-.41322,.10956-.52899,.17657-.11577,.41321-.06671,.52899,.10954l1.75912,2.67833,2.68338-4.6955c.10471-.18323,.33798-.2469,.52115-.14214,.18323,.10464,.24683,.338,.14212,.52115l-2.99237,5.2363c-.06592,.1154-.18701,.18814-.31982,.19237l-.01187,.00012v.00002Z" fill="#fff"/>
  </g>
</svg>